<svg xmlns="http://www.w3.org/2000/svg" width="75" height="98.003" viewBox="0 0 75 98.003">
    <path fill="#FFF" d="M69 81.295c0 .942-.764 1.705-1.705 1.705H2.705C1.765 83 1 82.237 1 81.295V2.705C1 1.763 1.764 1 2.705 1h64.59C68.235 1 69 1.763 69 2.705v78.59z"/>
    <path fill="#727272" d="M71 81.932A3.07 3.07 0 0 1 67.932 85H3.068A3.07 3.07 0 0 1 0 81.932V3.068A3.07 3.07 0 0 1 3.068 0H67.93A3.07 3.07 0 0 1 71 3.068v78.864zm-3-78.59A.34.34 0 0 0 67.66 3H3.34a.34.34 0 0 0-.34.34V81.66c0 .19.152.342.34.342h64.32a.34.34 0 0 0 .34-.34V3.34z"/>
    <path fill="#2196F3" d="M29.09 24.664c.387-.223.835-.08 1.134.203.293.276.595.544.896.81l.482.42c.032.027.063.054.096.08a19.58 19.58 0 0 0 .294.248c.44.373.89.738 1.34 1.098.783.622 1.594 1.387 2.406 1.97.062-.013.14.136.205.13l-.152.013c.064-.005.128-.01.19-.017.226-.02.437-.205.66-.23.778-.084 1.55-.265 2.323-.382 1.037-.158 2.065-.38 3.09-.605.537-.117 1.07-.264 1.602-.406.264-.07.527-.154.79-.232.335-.1.692-.19 1.007.042 1.775 1.315 3.746 2.408 5.72 3.39l.366.18a5.4 5.4 0 0 0 .157.074 45.366 45.366 0 0 0 2.867 1.25c.102-1.107.104-2.238.003-3.384-.916-10.478-10.153-18.23-20.63-17.312-9.926.868-17.405 9.203-17.387 18.986a126.48 126.48 0 0 0 12.544-6.326z"/>
    <path fill="#8BC34A" d="M49.937 32.67c-1.776-.897-3.557-1.88-5.182-3.045-1.86.546-3.776.91-5.694 1.19-.318.045-.64.09-.96.13.103.065.205.13.308.193a36.452 36.452 0 0 0 3.185 1.785c.014.007.044.02.07.035l.313.146a21.148 21.148 0 0 0 2.23.887c.125.04.235.107.328.19-4.44-.184-8.865-2.686-9.842-3.27-1.834-1.316-3.624-2.728-5.294-4.25a122.55 122.55 0 0 1-3.157 1.74 127.176 127.176 0 0 1-9.583 4.594C17.75 43.29 26.895 50.854 37.255 49.95c8.663-.76 15.463-7.207 17.038-15.34a47.737 47.737 0 0 1-4.356-1.94z"/>
    <path fill="#BBDEFB" d="M20 66h30v7H20zM15 54h41v10H15z"/>
    <path fill="#727272" d="M72 4.258v78.41C72 84.36 70.684 86 68.99 86H4.215c0 1 1.374 3 3.068 3h64.772C73.752 89 75 87.43 75 85.735V7.325c0-1.693-1-3.067-3-3.067z"/>
</svg>
