<svg xmlns="http://www.w3.org/2000/svg" width="1008.407" height="1008.414" viewBox="0 0 1008.407 1008.414">
    <path fill="#2196F3" d="M332.066 337.11c10.215-5.892 22.04-2.142 30 5.376 7.743 7.31 15.718 14.39 23.715 21.42 4.242 3.73 8.502 7.436 12.78 11.12.833.716 1.67 1.427 2.503 2.145.292.25.57.483.78.665 2.333 1.975 4.667 3.953 7.01 5.916a1692.987 1692.987 0 0 0 35.5 29.024c20.72 16.475 41.81 32.52 63.308 47.98a40 40 0 0 1 5.073-.803c-2.237.196-6.272.528-4.033.335 1.678-.146 3.355-.295 5.03-.453a1113 1113 0 0 0 17.83-1.81 1494.587 1494.587 0 0 0 61.685-8.02c27.44-4.163 54.79-9.01 81.904-14.935 14.208-3.107 28.37-6.453 42.425-10.217 7.006-1.875 13.998-3.816 20.947-5.893 8.875-2.652 18.348-4.92 26.647 1.225 47.024 34.81 99.2 63.81 151.46 89.803 3.235 1.61 6.474 3.21 9.72 4.79.992.483 1.98.964 2.973 1.442.455.213.89.422 1.16.555 5.854 2.785 11.723 5.54 17.618 8.23 12.842 5.86 25.766 11.533 38.803 16.943a1273.664 1273.664 0 0 0 19.488 7.89c2.63-29.3 2.72-59.24.065-89.573C982.19 182.877 737.65-22.32 460.257 1.95 197.495 24.937-.48 245.585 0 504.577c113.674-49.637 224.595-105.527 332.066-167.47z"/>
    <path fill="#8BC34A" d="M883.927 549.053c-47.043-23.754-94.18-49.764-137.17-80.617-49.28 14.46-99.992 24.115-150.772 31.477a1745.678 1745.678 0 0 1-25.42 3.482 1290.7 1290.7 0 0 0 8.132 5.12c25.336 15.804 51.254 30.73 77.967 44.085a709.98 709.98 0 0 0 6.37 3.152c.357.178 1.155.562 1.89.914 2.74 1.303 5.48 2.604 8.24 3.863 6.352 2.913 12.737 5.755 19.184 8.458 13.097 5.498 26.363 10.553 39.845 15.037a24.613 24.613 0 0 1 8.655 5.037c-117.546-4.895-234.682-71.14-260.545-86.62-48.57-34.82-95.97-72.188-140.17-112.524-27.65 15.754-55.505 31.145-83.606 46.086C173.72 480.04 89.077 520.656 2.87 557.614c28.936 272.57 271.047 472.843 545.272 448.85C777.507 986.4 957.508 815.725 999.24 600.41c-39.27-15.135-77.75-32.392-115.313-51.357z"/>
</svg>
