<?xml version="1.0" encoding="UTF-8" standalone="no"?>
<!DOCTYPE svg PUBLIC "-//W3C//DTD SVG 1.1//EN" "http://www.w3.org/Graphics/SVG/1.1/DTD/svg11.dtd">
<svg width="100%" height="100%" viewBox="0 0 1034 173" version="1.1" xmlns="http://www.w3.org/2000/svg" xmlns:xlink="http://www.w3.org/1999/xlink" xml:space="preserve" xmlns:serif="http://www.serif.com/" style="fill-rule:evenodd;clip-rule:evenodd;stroke-linejoin:round;stroke-miterlimit:2;">
    <g transform="matrix(1,0,0,1,-233.492,-463.954)">
        <g transform="matrix(1,0,0,1,71.1456,-49.531)">
            <path d="M231.307,513.485L232.55,513.485C233.378,513.589 233.792,514.003 233.792,514.728L233.792,516.591L230.686,515.97L228.201,515.97L228.201,516.591C229.443,517.834 230.479,519.905 231.307,522.804C232.964,522.804 233.792,523.218 233.792,524.047L233.792,527.153C233.792,527.981 232.342,528.396 229.443,528.396C229.443,527.774 228.822,527.153 227.579,526.532C226.647,526.532 225.819,528.603 225.094,532.744L223.852,533.366L221.988,532.123L220.745,532.123C219.917,532.227 219.503,532.641 219.503,533.366L219.503,533.987L221.988,536.472L221.988,538.336L220.745,538.336L220.745,536.472L218.882,536.472C218.157,536.472 217.535,537.508 217.018,539.578L218.26,540.2L221.367,539.578C220.538,542.685 220.124,545.584 220.124,548.276L220.124,552.625C220.124,553.453 219.71,553.868 218.882,553.868C218.882,553.039 218.467,552.625 217.639,552.625C215.982,554.385 215.154,556.042 215.154,557.595C215.154,558.32 216.811,559.977 220.124,562.565L220.124,569.399L218.882,569.399L217.018,568.157L216.397,568.157C216.397,570.435 217.639,572.506 220.124,574.37L220.124,575.612L218.26,575.612L218.26,577.476L220.124,577.476L220.124,578.718C220.124,580.479 218.674,582.343 215.775,584.31L215.775,586.795C215.775,587.313 217.225,588.348 220.124,589.901L220.124,591.144C220.124,593.215 219.71,594.25 218.882,594.25C219.71,595.803 220.124,597.46 220.124,599.22L220.124,607.918C220.124,611.956 218.882,616.305 216.397,620.965C216.397,621.379 217.432,622.829 219.503,625.314L219.503,625.935C218.674,628.834 218.26,630.491 218.26,630.905C218.882,630.905 219.503,631.526 220.124,632.769L220.124,654.513L220.745,660.726L219.503,660.105C218.674,660.208 218.26,660.623 218.26,661.347L218.26,661.969C219.917,663.832 220.745,665.282 220.745,666.318L222.609,666.318L222.609,665.075L223.852,665.075C223.852,666.11 227.165,669.217 233.792,674.394L233.792,675.637C231.203,677.708 229.754,680.193 229.443,683.092C228.615,684.749 227.994,685.577 227.579,685.577L225.716,685.577C225.716,682.678 224.473,681.228 221.988,681.228C218.364,678.743 212.98,677.5 205.835,677.5C205.835,676.672 205.007,676.258 203.35,676.258C202.004,677.086 200.761,677.5 199.622,677.5C188.025,670.77 182.227,665.386 182.227,661.347L182.848,658.862C182.848,657.309 180.984,656.274 177.256,655.756C177.256,656.17 177.049,656.377 176.635,656.377C176.635,655.445 175.393,653.374 172.908,650.165C170.837,646.23 169.387,642.916 168.559,640.224C169.18,640.224 169.801,639.603 170.423,638.36C166.695,634.736 164.831,630.595 164.831,625.935C163.174,620.24 162.346,611.956 162.346,601.084L162.346,599.842L162.967,599.842L164.831,601.084C165.659,599.738 166.074,598.496 166.074,597.357C165.245,596.942 164.624,596.735 164.21,596.735C163.381,597.149 162.76,597.357 162.346,597.357L162.346,596.735C162.657,587.209 164.313,582.446 167.316,582.446L167.316,579.34L164.831,578.718C166.384,566.811 170.112,556.87 176.014,548.897C176.842,548.897 177.256,548.69 177.256,548.276L176.635,547.034C179.431,542.064 181.502,539.578 182.848,539.578C184.09,539.993 184.712,540.407 184.712,540.821C186.368,540.407 187.197,539.164 187.197,537.093L186.576,533.987C191.649,529.431 194.756,527.153 195.895,527.153C195.895,527.774 196.723,528.396 198.38,529.017C200.243,524.461 201.486,522.183 202.107,522.183C205.421,520.94 207.492,519.905 208.32,519.077L208.941,519.077L211.426,520.94L213.29,520.94C214.533,520.94 215.154,520.112 215.154,518.455C214.74,517.627 214.533,517.006 214.533,516.591L215.775,515.97L218.882,516.591C218.882,514.521 223.023,513.485 231.307,513.485ZM246.839,514.106C266.719,519.698 276.66,523.633 276.66,525.911L277.281,525.911C278.316,525.911 280.18,524.875 282.872,522.804L282.872,522.183C281.63,522.183 281.009,521.769 281.009,520.94L281.009,519.698C281.112,518.869 281.526,518.455 282.251,518.455L283.494,518.455C284.322,518.455 284.736,519.077 284.736,520.319L285.357,520.319L287.843,518.455C288.671,518.869 289.292,519.077 289.706,519.077L289.706,522.183L294.055,524.668L294.055,540.2C293.02,540.2 291.984,540.614 290.949,541.442C291.57,545.17 292.606,547.862 294.055,549.519L294.055,573.748L293.434,574.991C292.916,574.577 291.881,574.37 290.328,574.37C290.328,577.269 288.878,579.133 285.979,579.961C283.494,578.926 282.251,577.476 282.251,575.612L281.009,576.233C280.18,576.233 278.731,571.884 276.66,563.187C278.006,562.358 279.041,561.944 279.766,561.944L279.766,560.702C278.731,558.424 276.453,556.353 272.932,554.489C271.69,552.004 270.24,549.519 268.583,547.034L268.583,545.791L270.447,543.306C270.447,542.892 267.341,541.028 261.128,537.715L249.324,527.774C249.324,528.603 248.91,529.017 248.081,529.017L246.839,529.017C246.321,529.017 245.286,527.981 243.732,525.911L243.732,518.455C245.389,515.556 246.425,514.106 246.839,514.106ZM292.191,517.213L293.434,517.213L294.055,519.698L292.813,520.319L291.57,519.698C291.984,518.973 292.191,518.145 292.191,517.213ZM218.26,545.791C218.26,546.723 218.053,547.551 217.639,548.276L218.882,548.897L218.882,545.791L218.26,545.791ZM286.6,634.633C291.57,635.047 294.055,637.325 294.055,641.467L293.434,647.679L291.57,647.679C291.156,647.679 290.949,647.472 290.949,647.058C285.979,650.682 283.494,654.824 283.494,659.484C277.799,663.625 273.657,668.181 271.068,673.152C270.654,673.152 269.204,675.222 266.719,679.364C258.85,683.506 251.809,685.577 245.596,685.577L244.975,684.334L245.596,681.228C244.975,681.228 244.354,680.607 243.732,679.364C245.907,678.329 247.564,676.672 248.703,674.394C253.259,672.944 256.158,670.459 257.4,666.939L258.022,666.939C258.436,666.939 258.643,667.146 258.643,667.56C262.888,664.247 265.166,662.59 265.477,662.59L267.962,664.454L269.826,664.454C273.139,662.59 274.796,659.691 274.796,655.756C273.968,655.756 273.553,655.342 273.553,654.513C276.453,650.475 279.145,645.091 281.63,638.36C283.494,638.36 285.15,637.118 286.6,634.633ZM279.766,646.437C279.766,647.058 280.387,647.679 281.63,648.301C282.251,648.301 282.872,647.679 283.494,646.437L283.494,643.331L282.251,643.331C281.733,643.331 280.905,644.366 279.766,646.437ZM279.766,650.165L279.766,652.028L281.009,652.028L281.63,648.922L281.009,648.922C280.18,649.026 279.766,649.44 279.766,650.165ZM231.307,683.713L231.928,684.956L230.686,685.577L230.064,684.334L231.307,683.713Z" style="fill:rgb(255,254,254);fill-rule:nonzero;"/>
            <path d="M303.064,519.698L311.14,519.698C311.14,521.769 311.554,522.804 312.383,522.804C313.625,522.39 314.247,521.976 314.247,521.562C313.832,520.733 313.625,520.112 313.625,519.698L322.944,519.698L322.323,522.804C323.98,522.804 325.429,521.769 326.672,519.698L330.4,519.698C331.642,519.698 332.263,519.905 332.263,520.319L335.37,519.698L341.582,519.698L341.582,520.319L340.961,521.562L342.204,522.183L343.446,522.183C343.446,520.526 343.86,519.698 344.689,519.698L348.416,519.698C351.316,523.011 355.457,524.668 360.842,524.668C362.084,525.6 362.706,526.221 362.706,526.532C360.531,527.36 359.289,528.396 358.978,529.638C358.978,530.259 360.428,532.33 363.327,535.851L364.569,535.23L365.191,535.23C366.33,535.954 368.401,541.339 371.403,551.383C370.886,551.383 370.057,552.418 368.918,554.489L368.918,556.974C370.057,559.045 371.921,560.08 374.51,560.08C379.066,572.092 382.172,581.204 383.829,587.416C384.554,587.106 387.039,579.857 391.284,565.672C393.769,566.19 395.012,566.811 395.012,567.536L395.012,583.689C395.012,585.138 394.805,587.002 394.39,589.28C394.805,590.005 395.012,590.833 395.012,591.765C393.769,596.735 392.527,600.463 391.284,602.948L388.178,602.327L388.178,603.569L390.663,606.676C390.663,608.85 389.006,610.507 385.693,611.646C385.693,613.717 386.314,614.752 387.556,614.752L387.556,615.373C387.556,617.444 386.728,620.136 385.071,623.45L383.829,622.829C383.311,622.829 382.483,623.864 381.344,625.935L381.344,627.178L383.829,629.663C383.829,630.077 383,631.319 381.344,633.39C381.344,634.322 381.551,635.15 381.965,635.875C381.344,639.603 379.48,641.467 376.374,641.467L375.752,644.573C377.409,645.816 378.237,646.851 378.237,647.679C377.616,651.925 375.959,655.031 373.267,656.998L373.267,658.862L374.51,658.862C374.51,663.832 373.06,666.318 370.161,666.318L369.54,666.318C370.368,669.217 370.782,670.874 370.782,671.288L364.569,679.364L359.599,679.364C358.046,679.364 355.561,672.53 352.144,658.862C352.972,658.448 353.594,658.241 354.008,658.241L354.008,655.135C350.694,652.96 348.623,650.889 347.795,648.922C345.724,641.881 344.689,637.946 344.689,637.118C346.345,635.668 347.174,634.426 347.174,633.39L345.931,632.769L342.825,633.39L342.825,630.905L345.931,630.905L345.931,630.284C341.79,630.284 339.719,628.006 339.719,623.45L332.263,601.084L332.263,599.842C333.506,599.842 334.127,599.427 334.127,598.599L334.127,596.114L332.263,596.114L332.263,598.599L331.021,598.599L330.4,595.493C332.47,592.593 333.506,590.937 333.506,590.523L327.914,581.825C327.086,582.239 326.465,582.446 326.051,582.446C325.222,581.514 321.081,569.089 313.625,545.17C314.454,545.17 314.868,544.756 314.868,543.927C314.764,542.581 313.315,540.925 310.519,538.957C308.448,535.644 305.549,533.987 301.821,533.987L301.821,532.744L304.927,532.744L304.927,531.502L299.957,531.502L300.579,532.744L299.336,532.744C296.437,531.502 294.987,529.431 294.987,526.532L294.987,525.911C294.987,522.286 297.679,520.216 303.064,519.698ZM406.195,519.698L426.696,519.698L426.696,520.94L422.348,521.562L422.348,524.047L423.59,524.047L426.696,522.183L429.803,522.183C429.803,520.526 430.217,519.698 431.045,519.698L436.637,519.698C436.637,520.63 436.844,521.458 437.258,522.183C438.501,522.183 439.122,521.355 439.122,519.698L463.351,519.698C468.736,520.216 471.428,522.286 471.428,525.911C470.6,526.325 469.978,526.532 469.564,526.532L469.564,527.153C469.978,527.153 470.6,527.36 471.428,527.774C470.185,531.502 467.286,533.366 462.73,533.366L458.381,533.366C457.553,533.469 457.139,533.883 457.139,534.608C457.139,535.23 457.967,536.058 459.624,537.093L459.002,540.2L459.002,549.519C459.002,550.347 458.381,550.761 457.139,550.761L457.139,552.625L459.002,555.11L459.002,561.323C459.002,561.737 458.795,561.944 458.381,561.944L459.002,563.187L459.002,599.22C455.275,602.12 453.411,606.469 453.411,612.267C453.825,616.927 454.654,620.24 455.896,622.207C455.068,623.553 454.654,624.796 454.654,625.935L459.002,629.663L459.002,667.56C459.002,667.974 458.795,668.181 458.381,668.181C459.21,671.495 460.038,673.152 460.866,673.152C463.766,675.637 465.629,676.879 466.458,676.879C467.286,675.844 467.7,674.808 467.7,673.773L468.322,673.773C469.978,673.773 470.807,675.222 470.807,678.122C470.082,678.122 468.839,677.708 467.079,676.879C466.354,679.778 465.526,681.228 464.594,681.228L460.245,681.228C460.245,684.127 459.624,685.577 458.381,685.577L447.82,685.577C446.37,683.713 444.299,682.471 441.607,681.849C441.193,682.574 440.986,683.402 440.986,684.334L438.501,684.334C438.293,684.334 437.258,683.506 435.394,681.849C435.394,682.471 433.737,683.713 430.424,685.577L409.922,685.577C409.301,685.577 408.68,684.956 408.058,683.713L408.058,683.092C409.301,683.092 409.922,682.678 409.922,681.849L409.922,681.228L406.816,680.607L404.331,681.849C403.606,681.435 402.778,681.228 401.846,681.228C401.846,682.056 401.224,682.471 399.982,682.471C397.29,681.435 395.84,680.4 395.633,679.364L395.633,678.743L396.254,675.637L399.361,676.258L400.603,676.258C405.987,674.083 408.68,670.77 408.68,666.318C409.508,666.318 409.922,664.868 409.922,661.969L409.922,661.347C409.508,661.347 408.887,661.14 408.058,660.726L405.573,661.969L404.952,660.726L404.952,655.135C404.952,654.928 406.195,653.478 408.68,650.786C406.609,647.887 405.573,645.401 405.573,643.331L406.816,642.709L404.952,639.603L404.952,638.36C405.366,638.36 405.987,638.153 406.816,637.739C405.573,635.668 404.952,634.012 404.952,632.769L404.952,626.556L406.195,624.692L406.195,624.071L404.952,622.207C404.952,621.586 405.78,620.758 407.437,619.722L404.952,615.373L404.952,610.403L405.573,609.161L406.816,609.782L408.058,609.782C409.301,609.368 409.922,608.125 409.922,606.054L409.922,604.191C409.922,603.569 409.301,602.948 408.058,602.327C407.023,602.327 406.402,603.155 406.195,604.812L404.952,604.812L404.952,595.493C407.023,593.836 408.265,591.765 408.68,589.28C408.265,585.967 407.023,583.482 404.952,581.825L404.952,570.021C405.159,568.985 406.609,567.95 409.301,566.914C409.301,564.222 407.851,562.773 404.952,562.565L404.952,548.897L406.195,547.034C405.366,547.034 404.952,546.62 404.952,545.791L404.952,540.2C404.952,539.786 406.195,537.922 408.68,534.608L408.68,532.744L404.952,527.774L404.952,520.94C405.056,520.112 405.47,519.698 406.195,519.698ZM363.327,530.259L364.569,530.259C364.569,531.191 364.777,532.02 365.191,532.744L363.948,533.366L362.706,533.366L363.327,530.259ZM393.769,554.489L395.012,554.489L395.012,560.702L393.769,560.702C392.941,560.702 392.527,560.287 392.527,559.459C393.355,557.906 393.769,556.249 393.769,554.489ZM321.702,561.944C321.702,563.808 321.495,565.051 321.081,565.672L322.944,566.914C322.944,566.086 323.359,564.636 324.187,562.565L322.944,561.944L321.702,561.944ZM313.625,578.718L314.868,578.718L323.566,604.812L322.323,604.191L321.081,608.539C321.391,610.61 322.012,611.646 322.944,611.646C323.255,609.989 323.669,609.161 324.187,609.161L323.566,607.918L323.566,606.676L324.808,606.676C326.051,610.403 326.672,612.888 326.672,614.131L326.672,615.373L325.429,615.373L325.429,613.51L324.808,613.51C324.394,616.927 324.187,618.997 324.187,619.722C325.844,620.344 326.672,620.965 326.672,621.586L326.672,647.058L321.702,652.65C322.737,658.759 324.808,663.315 327.914,666.318C328.743,666.318 329.157,665.489 329.157,663.832C331.642,665.8 332.885,668.492 332.885,671.909C334.438,671.909 336.095,672.53 337.855,673.773C337.855,673.359 338.062,672.737 338.476,671.909C343.032,673.98 345.31,676.465 345.31,679.364L344.689,680.607L341.582,679.985L340.34,679.985C339.097,681.228 336.819,682.056 333.506,682.471C332.678,684.334 331.849,685.37 331.021,685.577L326.672,685.577C323.98,683.506 321.702,682.471 319.838,682.471C319.01,684.334 318.181,685.37 317.353,685.577L308.655,685.577L307.413,684.956L308.034,683.713C307.62,682.885 307.413,682.263 307.413,681.849C306.584,682.263 305.963,682.471 305.549,682.471L306.17,685.577L305.549,685.577L302.442,683.092L298.715,683.713C298.094,683.713 297.265,682.885 296.23,681.228L296.23,679.364C296.23,676.879 298.094,674.808 301.821,673.152L304.306,674.394C304.306,673.98 304.513,673.773 304.927,673.773C304.927,674.187 305.135,674.394 305.549,674.394L308.655,670.666L307.413,668.803L309.276,666.318L312.383,666.939L314.247,665.696C313.832,664.868 313.625,664.247 313.625,663.832L312.383,663.832L311.14,664.454C311.14,664.04 310.933,663.832 310.519,663.832C311.761,661.554 312.383,659.691 312.383,658.241L313.004,658.241L314.868,659.484C317.353,656.584 318.595,654.099 318.595,652.028C318.285,648.301 316.628,646.437 313.625,646.437L313.625,642.088C313.625,640.949 314.661,640.328 316.732,640.224L316.732,638.982C314.661,638.982 313.625,638.567 313.625,637.739L313.625,617.237C315.696,617.237 316.732,616.823 316.732,615.995L316.732,612.267C314.661,612.267 313.625,611.853 313.625,611.025L313.625,596.735C313.625,595.907 314.247,595.493 315.489,595.493L315.489,593.629C314.247,593.629 313.625,593.215 313.625,592.386L313.625,578.718ZM397.497,671.909C397.497,672.323 397.704,672.53 398.118,672.53C397.704,673.359 397.497,673.98 397.497,674.394L395.633,674.394L394.39,673.773C394.39,675.43 393.769,676.258 392.527,676.258L391.284,676.258L391.284,675.015C391.284,673.98 393.355,672.944 397.497,671.909ZM470.807,680.607L470.807,681.849C469.253,684.334 466.975,685.577 463.973,685.577C463.973,685.163 463.766,684.956 463.351,684.956C463.351,682.471 465.836,681.021 470.807,680.607ZM343.446,682.471L343.446,683.092C343.032,684.334 341.79,684.956 339.719,684.956L339.097,684.956L339.097,684.334C339.097,683.506 340.547,682.885 343.446,682.471Z" style="fill:rgb(255,254,254);fill-rule:nonzero;"/>
            <path d="M552.193,513.485L552.814,513.485L559.027,514.106C559.027,515.245 558.613,516.488 557.784,517.834L559.648,519.077C563.79,518.766 565.861,517.523 565.861,515.349C570.831,516.074 573.316,518.352 573.316,522.183L578.286,522.183L578.286,522.804L577.044,522.804L577.044,523.425C577.044,523.943 578.701,525.393 582.014,527.774L583.878,527.774C584.292,527.774 585.949,527.36 588.848,526.532C589.159,528.603 590.194,529.638 591.954,529.638L591.333,533.987C596.407,541.442 600.756,545.17 604.38,545.17C606.036,545.377 606.865,545.998 606.865,547.034C605.208,548.794 604.38,550.451 604.38,552.004C611.835,558.32 615.563,563.497 615.563,567.536C615.148,568.778 614.734,569.399 614.32,569.399C617.219,573.852 618.669,578.615 618.669,583.689C617.841,585.035 617.426,586.277 617.426,587.416L617.426,588.659C619.083,588.659 619.911,589.901 619.911,592.386L619.911,606.054C617.012,608.229 615.563,609.678 615.563,610.403L615.563,611.025C615.563,611.956 615.77,612.785 616.184,613.51C615.355,614.856 614.941,616.098 614.941,617.237L614.941,622.829C612.87,625.003 611.835,626.66 611.835,627.799C611.835,628.938 613.285,629.973 616.184,630.905C614.527,635.15 613.699,637.843 613.699,638.982L611.835,638.982L611.835,638.36L612.456,634.012L611.214,633.39L610.592,633.39C610.178,636.807 609.557,639.706 608.729,642.088L610.592,645.194C608.936,650.165 606.451,652.65 603.137,652.65C600.652,653.892 599.41,655.549 599.41,657.62L599.41,658.862C600.652,658.862 601.273,659.069 601.273,659.484C600.652,661.14 600.031,661.969 599.41,661.969L598.788,661.969C598.788,660.312 598.374,659.484 597.546,659.484L596.924,660.726L597.546,663.832C596.2,663.832 594.957,665.282 593.818,668.181C590.919,670.666 588.641,671.909 586.984,671.909L586.984,671.288L585.742,671.288L583.878,672.53L584.499,673.773L584.499,674.394C573.523,681.849 562.547,685.577 551.572,685.577L550.95,684.334L550.95,674.394C552.607,673.255 553.436,672.22 553.436,671.288L556.542,671.288L557.784,670.666L557.163,669.424L562.133,660.726C563.79,660.726 564.618,659.276 564.618,656.377L565.861,654.513C565.033,654.513 564.618,653.892 564.618,652.65L562.755,653.892L562.133,653.892L562.133,614.752C562.858,609.886 563.686,606.986 564.618,606.054L564.618,604.812C562.962,604.812 562.133,604.398 562.133,603.569C562.133,603.155 563.169,602.327 565.24,601.084C565.24,600.566 564.204,599.531 562.133,597.978L562.133,589.28C562.133,580.168 563.376,575.612 565.861,575.612L564.618,573.748L563.376,574.37L562.133,574.37L562.133,542.685C562.133,534.608 558.613,529.224 551.572,526.532C551.158,526.532 550.95,526.325 550.95,525.911L550.95,523.425C551.054,522.597 551.468,522.183 552.193,522.183C552.297,523.011 552.711,523.425 553.436,523.425L554.057,523.425L554.057,520.94C551.986,519.491 550.95,517.42 550.95,514.728C551.054,513.899 551.468,513.485 552.193,513.485ZM532.934,519.698L537.283,519.698L537.283,520.94C530.241,526.221 526.721,530.57 526.721,533.987L526.721,534.608L527.342,534.608L528.585,533.987L530.449,536.472L530.449,538.957L529.827,538.957L527.963,537.715L527.342,537.715C526.721,537.715 526.1,538.336 525.478,539.578L525.478,541.442L526.1,542.685C527.446,541.856 528.481,541.442 529.206,541.442L529.827,542.685L529.827,547.655L529.206,548.897L527.963,548.276C526.307,548.276 525.064,551.797 524.236,558.838C524.65,564.843 525.064,568.157 525.478,568.778L524.857,572.506L524.857,578.097L525.478,582.446L524.857,582.446C525.685,584.103 526.1,585.552 526.1,586.795L527.342,586.795L528.585,586.174C529.413,587.52 529.827,588.762 529.827,589.901L529.827,593.008C526.928,597.253 525.478,599.945 525.478,601.084C526.307,603.983 526.721,605.64 526.721,606.054C525.893,609.782 525.478,612.474 525.478,614.131L525.478,617.237C526.514,618.169 527.756,620.861 529.206,625.314C529.62,625.314 529.827,625.521 529.827,625.935L529.827,646.437C527.342,648.197 526.1,650.268 526.1,652.65C526.721,652.65 527.342,653.271 527.963,654.513C527.963,654.824 526.928,655.86 524.857,657.62C526.928,663.004 528.378,665.696 529.206,665.696C530.449,665.696 532.934,667.353 536.661,670.666C539.561,671.598 541.01,672.427 541.01,673.152L541.01,678.743L540.389,679.985L539.146,679.364L537.904,679.364L536.04,680.607L531.691,679.985C531.07,679.985 530.034,681.228 528.585,683.713C525.478,682.885 523.615,682.471 522.993,682.471L523.615,679.364C522.061,677.397 519.369,675.533 515.538,673.773L514.917,673.773L511.189,677.5C504.976,673.462 500.006,669.527 496.279,665.696L496.279,665.075L497.521,663.211L497.521,662.59C496.279,660.001 494.001,657.102 490.687,653.892L486.338,653.892C481.368,646.126 478.883,640.742 478.883,637.739C478.055,637.739 477.641,637.325 477.641,636.497L477.641,634.012C479.297,634.012 480.126,633.183 480.126,631.526C479.608,626.142 478.78,623.45 477.641,623.45L478.262,620.344C478.262,618.169 476.398,616.098 472.67,614.131C472.256,608.747 472.049,604.398 472.049,601.084L472.049,594.871C472.049,594.043 473.085,593.629 475.156,593.629C474.741,588.762 474.12,585.449 473.292,583.689C473.292,581.204 473.913,577.269 475.156,571.884L476.398,571.884C476.398,573.127 476.812,573.748 477.641,573.748L478.262,569.399L476.398,566.914C480.436,555.214 483.75,548.38 486.338,546.412L487.581,547.034C490.894,547.034 492.551,545.17 492.551,541.442C490.894,541.442 490.066,540.821 490.066,539.578C500.524,528.913 507.565,522.908 511.189,521.562L513.053,521.562L513.053,522.183C512.639,523.011 512.432,523.633 512.432,524.047L513.053,524.047C513.778,523.633 514.606,523.425 515.538,523.425L518.023,524.047L532.934,519.698ZM538.525,524.047C538.525,524.875 539.146,525.289 540.389,525.289L540.389,527.153C540.078,527.153 538.836,527.36 536.661,527.774L536.661,525.911C536.661,525.289 537.283,524.668 538.525,524.047ZM473.292,598.599L473.292,599.842C473.395,600.67 473.809,601.084 474.534,601.084L475.156,599.842C475.156,599.013 474.741,598.599 473.913,598.599L473.292,598.599ZM539.146,683.713L539.768,683.713C540.596,683.817 541.01,684.231 541.01,684.956L539.768,685.577L537.904,685.577L537.904,684.956C538.007,684.127 538.422,683.713 539.146,683.713Z" style="fill:rgb(255,254,254);fill-rule:nonzero;"/>
            <path d="M766.997,515.97C767.929,515.97 768.55,517.006 768.861,519.077C769.586,519.077 771.45,518.248 774.452,516.591C777.766,516.799 779.423,517.42 779.423,518.455L779.423,519.077L776.937,521.562L778.18,521.562C780.562,521.562 783.254,520.526 786.257,518.455C794.126,520.63 798.475,522.494 799.303,524.047C798.682,524.047 798.061,524.668 797.439,525.911C797.439,526.532 798.268,527.153 799.924,527.774L803.031,527.153C803.859,527.567 804.48,527.774 804.895,527.774C804.998,526.946 805.412,526.532 806.137,526.532C815.146,534.194 819.909,539.578 820.426,542.685C820.012,543.41 819.805,544.238 819.805,545.17L819.805,545.791C821.255,545.791 822.704,548.069 824.154,552.625L824.154,553.868C822.083,553.868 821.048,555.317 821.048,558.217L822.911,558.217L824.775,556.974L825.397,558.217L825.397,561.944L823.533,561.944C824.361,562.669 824.982,565.568 825.397,570.642C823.119,582.239 820.012,588.038 816.077,588.038L816.077,588.659L817.32,590.523C816.906,591.351 816.699,591.972 816.699,592.386C814.524,591.972 813.282,591.765 812.971,591.765C811.314,592.386 810.486,593.008 810.486,593.629L810.486,594.25L811.729,596.114L811.729,597.357C811.729,598.185 811.314,598.599 810.486,598.599L808.001,596.114C807.483,596.114 804.791,598.392 799.924,602.948L799.924,603.569L800.546,606.676C797.129,608.747 794.851,609.782 793.712,609.782L791.227,607.918L789.363,607.918L789.363,611.646C789.363,612.371 781.493,615.684 765.755,621.586L764.512,621.586C764.098,621.586 763.891,621.379 763.891,620.965L760.163,624.071L759.542,624.071L755.814,623.45C750.43,624.796 747.116,626.039 745.874,627.178L746.495,630.284L727.857,635.875C729.1,633.597 733.034,629.456 739.661,623.45C741.318,624.278 742.768,624.692 744.01,624.692C746.909,620.551 748.566,618.48 748.98,618.48C748.98,618.894 749.187,619.101 749.602,619.101C749.602,617.03 751.465,615.373 755.193,614.131C755.711,609.575 757.367,607.297 760.163,607.297C766.479,601.188 770.828,595.389 773.21,589.901C776.006,589.901 777.662,589.073 778.18,587.416L778.18,585.552C778.18,584.621 777.973,583.792 777.559,583.067C778.387,581.721 778.801,580.479 778.801,579.34C777.973,579.34 777.352,577.269 776.937,573.127C776.523,573.127 776.316,572.92 776.316,572.506L776.316,558.217C778.801,558.217 780.044,557.802 780.044,556.974L780.044,554.489L779.423,550.14L777.559,550.14L777.559,551.383L776.316,551.383C776.316,541.339 772.796,533.676 765.755,528.396L765.755,525.289L769.482,524.668L769.482,524.047L765.755,520.319L765.755,517.213C765.858,516.384 766.272,515.97 766.997,515.97ZM754.572,516.591L755.193,517.834L755.193,528.396L748.359,533.366C748.359,535.437 750.844,538.129 755.814,541.442C759.542,545.895 761.406,549.829 761.406,553.246L761.406,557.595C761.406,560.598 760.577,563.912 758.921,567.536L757.678,567.536L754.572,565.051C750.844,568.053 748.98,571.781 748.98,576.233C747.841,577.269 745.563,578.097 742.146,578.718C742.146,575.819 740.904,574.37 738.419,574.37L737.176,574.37C736.866,574.37 735.416,575.819 732.827,578.718C731.171,577.89 729.721,577.476 728.478,577.476L728.478,576.233L729.1,576.233C729.514,576.233 729.721,576.44 729.721,576.855C730.549,576.44 731.171,576.233 731.585,576.233L731.585,574.37C730.756,574.37 730.342,574.162 730.342,573.748C729.721,574.266 727.65,574.68 724.129,574.991C717.917,568.985 714.81,564.429 714.81,561.323C715.639,561.323 716.053,560.909 716.053,560.08L714.189,557.595L714.189,552.004C714.189,548.69 715.225,544.756 717.296,540.2L718.538,540.821L720.402,540.821C721.23,540.821 722.059,539.578 722.887,537.093L722.266,533.366C726.615,528.396 729.307,525.911 730.342,525.911C731.067,526.325 731.895,526.532 732.827,526.532C733.241,525.807 733.449,524.772 733.449,523.425L734.691,523.425C735.519,523.425 735.934,524.047 735.934,525.289L736.555,525.289C737.28,525.289 739.351,524.461 742.768,522.804L745.253,523.425C747.738,522.804 748.98,521.355 748.98,519.077C748.566,519.077 748.359,518.869 748.359,518.455C751.672,517.213 753.743,516.591 754.572,516.591ZM745.253,573.127L745.253,574.991L746.495,574.991L746.495,573.127L745.253,573.127ZM822.911,630.284L826.639,630.284C829.124,631.941 830.367,634.012 830.367,636.497L830.367,637.118C830.367,647.369 827.467,656.688 821.669,665.075L820.426,664.454L819.805,664.454L819.805,665.075L820.426,668.181C819.702,668.181 817.838,670.252 814.835,674.394C812.039,676.879 810.175,678.122 809.244,678.122C808.933,678.122 807.276,677.915 804.273,677.5C800.649,682.885 795.265,685.577 788.12,685.577L781.908,685.577C757.471,680.4 745.253,676.672 745.253,674.394L744.01,674.394L744.01,675.637C743.803,675.637 741.111,675.43 735.934,675.015L731.585,675.637C729.928,675.222 728.478,675.015 727.236,675.015C726.304,677.915 725.476,679.364 724.751,679.364C724.751,678.018 722.68,676.983 718.538,676.258L717.917,675.015C718.331,674.291 718.538,673.462 718.538,672.53C717.192,672.53 715.742,671.081 714.189,668.181C714.293,666.214 716.157,664.35 719.781,662.59L723.508,656.998L722.266,655.135C725.165,655.135 726.615,654.099 726.615,652.028C725.786,652.028 725.372,651.614 725.372,650.786L725.372,649.543C734.588,643.331 742.25,640.224 748.359,640.224C748.359,641.363 750.844,642.192 755.814,642.709L755.814,643.331L757.057,642.709L758.921,642.709C760.06,643.952 763.166,644.78 768.24,645.194C769.586,644.366 770.828,643.952 771.967,643.952C771.967,645.194 772.796,645.816 774.452,645.816C774.659,645.816 775.488,645.609 776.937,645.194L779.423,646.437C781.183,645.816 782.425,644.78 783.15,643.331C792.987,645.401 800.028,646.437 804.273,646.437L804.273,647.058C803.859,647.783 803.652,648.611 803.652,649.543L804.273,650.786C806.344,649.543 807.794,648.922 808.622,648.922C809.968,649.75 811.211,650.165 812.35,650.165L817.32,644.573C817.32,643.641 817.113,642.813 816.699,642.088C819.08,634.219 821.151,630.284 822.911,630.284ZM766.997,640.845C767.825,640.949 768.24,641.363 768.24,642.088L768.24,642.709L766.997,642.709C766.169,642.709 765.755,642.295 765.755,641.467L766.997,640.845ZM729.721,650.165L730.342,650.165C731.171,650.165 731.585,649.75 731.585,648.922L731.585,648.301C730.963,648.301 730.342,648.922 729.721,650.165ZM824.775,652.65L824.154,655.756L826.018,655.756L826.018,653.892C826.018,653.064 825.604,652.65 824.775,652.65ZM763.27,679.364L763.27,680.607L765.133,680.607C765.133,679.778 764.719,679.364 763.891,679.364L763.27,679.364ZM794.333,680.607L794.333,682.471C795.161,682.471 795.576,682.056 795.576,681.228L794.333,680.607Z" style="fill:rgb(255,254,254);fill-rule:nonzero;"/>
            <path d="M899.949,515.97L901.191,515.97C902.538,515.97 903.987,516.591 905.54,517.834C906.472,517.834 907.301,517.627 908.025,517.213C921.072,521.458 929.356,526.635 932.876,532.744L936.604,537.715C936.707,538.543 937.122,538.957 937.846,538.957C937.95,538.129 938.364,537.715 939.089,537.715L940.953,540.2L940.953,540.821L939.089,543.306C939.089,543.824 941.16,546.102 945.302,550.14C944.473,550.14 944.059,550.761 944.059,552.004C944.68,553.661 945.302,554.489 945.923,554.489L946.544,554.489L947.165,551.383L948.408,551.383C954.828,566.5 958.141,578.097 958.348,586.174C957.002,587.002 955.967,587.416 955.242,587.416C957.727,589.28 958.97,591.144 958.97,593.008L958.97,596.735L957.727,598.599L958.97,600.463L958.348,600.463C957.934,600.463 957.727,600.256 957.727,599.842C957.002,600.256 956.174,600.463 955.242,600.463L955.242,602.948L958.348,606.054C958.348,606.883 958.141,607.297 957.727,607.297L958.348,611.646L958.348,614.131C955.863,631.526 953.585,640.224 951.514,640.224C951.514,639.396 951.1,638.982 950.272,638.982C948.097,639.914 946.441,641.777 945.302,644.573L945.923,644.573C946.648,644.159 947.476,643.952 948.408,643.952L949.029,645.194L949.029,646.437C947.373,652.339 943.645,657.309 937.846,661.347C937.846,664.661 935.776,667.56 931.634,670.045C931.634,672.116 927.078,675.43 917.966,679.985L914.238,678.743C914.238,681.642 911.339,683.506 905.54,684.334C903.78,684.334 901.709,684.749 899.328,685.577L898.706,684.334L898.706,673.773C898.81,672.944 899.224,672.53 899.949,672.53L900.57,672.53L903.055,675.015C906.162,673.152 908.44,671.081 909.889,668.803C911.546,668.803 912.374,667.767 912.374,665.696L911.753,664.454C912.167,663.729 912.374,662.901 912.374,661.969L911.132,661.347C910.303,661.762 909.682,661.969 909.268,661.969L909.268,661.347C909.682,660.623 909.889,659.794 909.889,658.862L909.889,648.301L910.511,647.058L911.753,647.679C912.581,647.679 912.996,647.265 912.996,646.437C910.925,646.437 909.889,646.023 909.889,645.194C909.889,644.573 910.511,643.952 911.753,643.331C912.581,643.745 913.203,643.952 913.617,643.952L914.238,642.709C914.238,640.224 912.789,637.946 909.889,635.875L909.889,630.905L912.996,631.526C913.824,627.799 914.238,625.107 914.238,623.45C913.824,622.622 913.617,622 913.617,621.586L912.996,621.586C912.167,621.586 911.546,622.829 911.132,625.314L909.889,625.314L909.889,622.207C909.889,620.965 911.132,620.344 913.617,620.344L913.617,618.48C911.132,618.48 909.889,617.858 909.889,616.616L909.889,607.297L911.132,605.433C910.303,605.433 909.889,605.019 909.889,604.191L909.889,602.948C912.374,601.395 913.617,600.359 913.617,599.842C914.031,597.564 914.238,595.7 914.238,594.25C914.238,589.384 912.996,586.484 910.511,585.552C910.096,585.552 909.889,585.345 909.889,584.931L909.889,583.067C909.993,580.996 910.407,579.961 911.132,579.961C910.303,578.615 909.889,577.372 909.889,576.233L909.889,574.37C912.789,572.299 914.238,571.056 914.238,570.642C914.652,559.873 915.067,554.489 915.481,554.489C915.481,551.175 913.617,548.276 909.889,545.791C909.889,540.614 909.268,537.093 908.025,535.23L908.025,533.366C906.058,533.366 904.816,530.881 904.298,525.911L901.813,525.911L899.949,527.153L898.706,527.153L898.706,517.213C898.81,516.384 899.224,515.97 899.949,515.97ZM888.766,516.591L889.387,517.834L889.387,523.425C888.455,527.981 886.799,530.259 884.417,530.259C884.417,529.431 884.003,529.017 883.175,529.017C880.275,529.535 878.826,530.363 878.826,531.502L881.932,533.987C879.861,536.886 878.826,543.513 878.826,553.868L878.826,558.838L878.204,558.838C876.858,558.009 875.823,557.595 875.098,557.595L875.098,559.459C875.202,560.287 875.616,560.702 876.341,560.702L876.962,560.702L878.204,560.08L878.826,561.323L878.826,563.187C875.926,565.775 874.477,568.675 874.477,571.884C874.477,573.541 875.719,576.44 878.204,580.582C877.583,580.582 876.755,581.411 875.719,583.067L875.719,584.31L876.962,584.31L878.204,583.689L878.826,584.931L878.826,593.008C878.826,594.457 878.619,596.321 878.204,598.599C878.619,599.22 878.826,600.463 878.826,602.327C875.926,605.64 874.477,608.747 874.477,611.646C877.376,612.785 878.826,613.613 878.826,614.131L878.826,623.45C875.512,625.107 873.856,626.763 873.856,628.42L873.856,629.041C873.856,629.766 875.512,632.251 878.826,636.497C877.169,638.257 876.341,639.914 876.341,641.467C876.341,642.502 877.169,643.952 878.826,645.816L878.826,649.543C878.826,650.786 877.997,651.407 876.341,651.407L876.341,653.271C878.826,653.271 880.068,656.791 880.068,663.832C880.482,663.832 881.311,665.489 882.553,668.803C881.725,669.217 881.104,669.424 880.69,669.424C880.69,669.942 883.589,671.184 889.387,673.152L889.387,681.228C888.559,681.228 887.524,682.056 886.281,683.713L885.66,683.713C883.175,681.228 881.311,679.778 880.068,679.364L878.204,683.092C873.649,681.435 871.371,680.193 871.371,679.364L871.992,676.258L870.749,675.637L870.128,675.637L870.128,679.364L869.507,679.364C864.847,677.604 861.948,674.912 860.809,671.288C856.253,671.288 850.04,664.661 842.171,651.407L842.171,650.165L842.792,648.922C840.514,648.922 838.236,644.78 835.958,636.497C836.786,636.497 837.408,635.047 837.822,632.148C837.615,630.284 836.165,628.627 833.473,627.178C833.059,626.453 832.852,625.624 832.852,624.692C833.473,624.692 834.301,623.657 835.337,621.586L835.337,620.344C834.405,619.101 833.369,616.409 832.23,612.267L832.23,609.782L830.367,609.782L830.367,599.842C831.609,598.288 832.23,596.839 832.23,595.493C832.23,594.871 831.609,594.25 830.367,593.629C830.367,585.656 832.23,575.923 835.958,564.429L836.579,564.429C836.579,564.843 836.786,565.051 837.201,565.051L841.55,561.323L841.55,559.459C841.55,558.631 841.135,558.217 840.307,558.217C839.479,558.631 838.857,558.838 838.443,558.838L838.443,558.217L839.064,555.731L842.171,556.353C842.792,556.353 843.413,555.731 844.035,554.489C844.035,553.143 843.413,551.693 842.171,550.14L842.171,549.519L852.732,534.608C864.329,523.84 872.82,518.455 878.204,518.455C879.447,518.869 880.068,519.284 880.068,519.698C881.621,518.869 883.278,518.455 885.038,518.455L886.281,519.077C886.281,518.455 887.109,517.627 888.766,516.591ZM875.098,552.625C875.098,553.868 874.891,554.489 874.477,554.489C874.891,555.317 875.098,555.939 875.098,556.353L875.719,556.353C876.341,556.353 876.962,555.731 877.583,554.489L877.583,553.868C877.583,553.039 877.169,552.625 876.341,552.625L875.098,552.625Z" style="fill:rgb(255,254,254);fill-rule:nonzero;"/>
            <path d="M1013.33,515.97C1014.26,515.97 1014.88,517.006 1015.2,519.077C1015.92,519.077 1017.78,518.248 1020.79,516.591C1024.1,516.799 1025.76,517.42 1025.76,518.455L1025.76,519.077L1023.27,521.562L1024.51,521.562C1026.89,521.562 1029.59,520.526 1032.59,518.455C1040.46,520.63 1044.81,522.494 1045.64,524.047C1045.02,524.047 1044.39,524.668 1043.77,525.911C1043.77,526.532 1044.6,527.153 1046.26,527.774L1049.36,527.153C1050.19,527.567 1050.81,527.774 1051.23,527.774C1051.33,526.946 1051.75,526.532 1052.47,526.532C1061.48,534.194 1066.24,539.578 1066.76,542.685C1066.35,543.41 1066.14,544.238 1066.14,545.17L1066.14,545.791C1067.59,545.791 1069.04,548.069 1070.49,552.625L1070.49,553.868C1068.42,553.868 1067.38,555.317 1067.38,558.217L1069.25,558.217L1071.11,556.974L1071.73,558.217L1071.73,561.944L1069.87,561.944C1070.69,562.669 1071.32,565.568 1071.73,570.642C1069.45,582.239 1066.35,588.038 1062.41,588.038L1062.41,588.659L1063.65,590.523C1063.24,591.351 1063.03,591.972 1063.03,592.386C1060.86,591.972 1059.62,591.765 1059.31,591.765C1057.65,592.386 1056.82,593.008 1056.82,593.629L1056.82,594.25L1058.06,596.114L1058.06,597.357C1058.06,598.185 1057.65,598.599 1056.82,598.599L1054.34,596.114C1053.82,596.114 1051.12,598.392 1046.26,602.948L1046.26,603.569L1046.88,606.676C1043.46,608.747 1041.18,609.782 1040.05,609.782L1037.56,607.918L1035.7,607.918L1035.7,611.646C1035.7,612.371 1027.83,615.684 1012.09,621.586L1010.85,621.586C1010.43,621.586 1010.22,621.379 1010.22,620.965L1006.5,624.071L1005.88,624.071L1002.15,623.45C996.764,624.796 993.45,626.039 992.208,627.178L992.829,630.284L974.191,635.875C975.433,633.597 979.368,629.456 985.995,623.45C987.652,624.278 989.101,624.692 990.344,624.692C993.243,620.551 994.9,618.48 995.314,618.48C995.314,618.894 995.521,619.101 995.935,619.101C995.935,617.03 997.799,615.373 1001.53,614.131C1002.04,609.575 1003.7,607.297 1006.5,607.297C1012.81,601.188 1017.16,595.389 1019.54,589.901C1022.34,589.901 1024,589.073 1024.51,587.416L1024.51,585.552C1024.51,584.621 1024.31,583.792 1023.89,583.067C1024.72,581.721 1025.13,580.479 1025.13,579.34C1024.31,579.34 1023.69,577.269 1023.27,573.127C1022.86,573.127 1022.65,572.92 1022.65,572.506L1022.65,558.217C1025.13,558.217 1026.38,557.802 1026.38,556.974L1026.38,554.489L1025.76,550.14L1023.89,550.14L1023.89,551.383L1022.65,551.383C1022.65,541.339 1019.13,533.676 1012.09,528.396L1012.09,525.289L1015.82,524.668L1015.82,524.047L1012.09,520.319L1012.09,517.213C1012.19,516.384 1012.61,515.97 1013.33,515.97ZM1000.9,516.591L1001.53,517.834L1001.53,528.396L994.693,533.366C994.693,535.437 997.178,538.129 1002.15,541.442C1005.88,545.895 1007.74,549.829 1007.74,553.246L1007.74,557.595C1007.74,560.598 1006.91,563.912 1005.25,567.536L1004.01,567.536L1000.9,565.051C997.178,568.053 995.314,571.781 995.314,576.233C994.175,577.269 991.897,578.097 988.48,578.718C988.48,575.819 987.237,574.37 984.752,574.37L983.51,574.37C983.199,574.37 981.75,575.819 979.161,578.718C977.504,577.89 976.055,577.476 974.812,577.476L974.812,576.233L975.433,576.233C975.847,576.233 976.055,576.44 976.055,576.855C976.883,576.44 977.504,576.233 977.918,576.233L977.918,574.37C977.09,574.37 976.676,574.162 976.676,573.748C976.055,574.266 973.984,574.68 970.463,574.991C964.25,568.985 961.144,564.429 961.144,561.323C961.972,561.323 962.387,560.909 962.387,560.08L960.523,557.595L960.523,552.004C960.523,548.69 961.558,544.756 963.629,540.2L964.872,540.821L966.735,540.821C967.564,540.821 968.392,539.578 969.221,537.093L968.599,533.366C972.948,528.396 975.64,525.911 976.676,525.911C977.401,526.325 978.229,526.532 979.161,526.532C979.575,525.807 979.782,524.772 979.782,523.425L981.025,523.425C981.853,523.425 982.267,524.047 982.267,525.289L982.888,525.289C983.613,525.289 985.684,524.461 989.101,522.804L991.586,523.425C994.071,522.804 995.314,521.355 995.314,519.077C994.9,519.077 994.693,518.869 994.693,518.455C998.006,517.213 1000.08,516.591 1000.9,516.591ZM991.586,573.127L991.586,574.991L992.829,574.991L992.829,573.127L991.586,573.127ZM1069.25,630.284L1072.97,630.284C1075.46,631.941 1076.7,634.012 1076.7,636.497L1076.7,637.118C1076.7,647.369 1073.8,656.688 1068,665.075L1066.76,664.454L1066.14,664.454L1066.14,665.075L1066.76,668.181C1066.04,668.181 1064.17,670.252 1061.17,674.394C1058.37,676.879 1056.51,678.122 1055.58,678.122C1055.27,678.122 1053.61,677.915 1050.61,677.5C1046.98,682.885 1041.6,685.577 1034.45,685.577L1028.24,685.577C1003.81,680.4 991.586,676.672 991.586,674.394L990.344,674.394L990.344,675.637C990.137,675.637 987.444,675.43 982.267,675.015L977.918,675.637C976.262,675.222 974.812,675.015 973.569,675.015C972.638,677.915 971.809,679.364 971.084,679.364C971.084,678.018 969.013,676.983 964.872,676.258L964.25,675.015C964.665,674.291 964.872,673.462 964.872,672.53C963.526,672.53 962.076,671.081 960.523,668.181C960.626,666.214 962.49,664.35 966.114,662.59L969.842,656.998L968.599,655.135C971.499,655.135 972.948,654.099 972.948,652.028C972.12,652.028 971.706,651.614 971.706,650.786L971.706,649.543C980.921,643.331 988.583,640.224 994.693,640.224C994.693,641.363 997.178,642.192 1002.15,642.709L1002.15,643.331L1003.39,642.709L1005.25,642.709C1006.39,643.952 1009.5,644.78 1014.57,645.194C1015.92,644.366 1017.16,643.952 1018.3,643.952C1018.3,645.194 1019.13,645.816 1020.79,645.816C1020.99,645.816 1021.82,645.609 1023.27,645.194L1025.76,646.437C1027.52,645.816 1028.76,644.78 1029.48,643.331C1039.32,645.401 1046.36,646.437 1050.61,646.437L1050.61,647.058C1050.19,647.783 1049.99,648.611 1049.99,649.543L1050.61,650.786C1052.68,649.543 1054.13,648.922 1054.96,648.922C1056.3,649.75 1057.54,650.165 1058.68,650.165L1063.65,644.573C1063.65,643.641 1063.45,642.813 1063.03,642.088C1065.41,634.219 1067.49,630.284 1069.25,630.284ZM1013.33,640.845C1014.16,640.949 1014.57,641.363 1014.57,642.088L1014.57,642.709L1013.33,642.709C1012.5,642.709 1012.09,642.295 1012.09,641.467L1013.33,640.845ZM976.055,650.165L976.676,650.165C977.504,650.165 977.918,649.75 977.918,648.922L977.918,648.301C977.297,648.301 976.676,648.922 976.055,650.165ZM1071.11,652.65L1070.49,655.756L1072.35,655.756L1072.35,653.892C1072.35,653.064 1071.94,652.65 1071.11,652.65ZM1009.6,679.364L1009.6,680.607L1011.47,680.607C1011.47,679.778 1011.05,679.364 1010.22,679.364L1009.6,679.364ZM1040.67,680.607L1040.67,682.471C1041.5,682.471 1041.91,682.056 1041.91,681.228L1040.67,680.607Z" style="fill:rgb(255,254,254);fill-rule:nonzero;"/>
            <path d="M1139.45,516.591C1150.63,517.213 1156.22,518.248 1156.22,519.698C1155.39,519.801 1154.98,520.216 1154.98,520.94L1154.98,522.183C1159.43,525.082 1165.64,527.774 1173.62,530.259C1173.62,527.774 1174.03,526.532 1174.86,526.532L1177.35,529.017C1177.35,529.845 1176.52,530.259 1174.86,530.259L1174.86,532.123C1179.83,534.194 1182.32,536.472 1182.32,538.957C1183.25,538.957 1184.08,538.75 1184.8,538.336C1186.35,538.336 1187.8,539.578 1189.15,542.064C1188.74,542.788 1188.53,543.617 1188.53,544.549C1191.43,545.688 1192.88,550.451 1192.88,558.838L1192.88,559.459C1189.98,559.459 1188.53,560.909 1188.53,563.808C1188.53,565.465 1188.32,566.293 1187.91,566.293C1187.91,567.018 1189.15,568.053 1191.63,569.399L1191.63,570.021C1190.19,576.337 1187.29,581.514 1182.94,585.552L1182.32,585.552L1182.32,584.931C1182.73,584.103 1182.94,583.482 1182.94,583.067L1181.07,583.067C1181.07,585.552 1179,588.245 1174.86,591.144L1174.86,592.386L1173.62,592.386L1173,589.901L1171.76,589.901C1171.76,590.73 1170.93,591.972 1169.27,593.629C1169.68,594.457 1169.89,595.079 1169.89,595.493C1167.3,596.735 1163.78,597.978 1159.33,599.22L1159.33,599.842C1170.1,602.327 1177.55,605.64 1181.69,609.782L1181.69,610.403C1181.69,610.817 1181.49,611.025 1181.07,611.025C1182.94,614.545 1184.59,616.409 1186.04,616.616C1186.77,616.202 1187.6,615.995 1188.53,615.995C1190.6,619.722 1191.63,622.207 1191.63,623.45L1191.01,623.45L1189.77,622.829L1189.15,624.071L1189.15,624.692C1192.05,628.109 1193.5,630.595 1193.5,632.148C1192.26,633.494 1191.63,634.529 1191.63,635.254L1192.88,637.739C1192.46,638.464 1192.26,639.292 1192.26,640.224C1194.33,641.156 1195.36,642.192 1195.36,643.331C1195.36,653.478 1190.6,663.004 1181.07,671.909L1180.45,671.909C1180.45,670.459 1179.42,669.424 1177.35,668.803C1176.21,668.803 1174.34,671.081 1171.76,675.637L1171.13,675.637L1171.13,676.258C1172.38,676.258 1173,676.672 1173,677.5L1173,678.122L1168.65,678.743L1168.65,678.122L1169.89,676.258C1168.65,676.258 1168.03,676.051 1168.03,675.637C1163.47,677.293 1161.19,678.536 1161.19,679.364C1161.19,681.539 1160.57,682.781 1159.33,683.092L1157.46,683.092L1155.6,681.849L1154.36,681.849C1153.12,684.334 1149.18,685.577 1142.56,685.577C1138.93,685.163 1136.65,684.956 1135.72,684.956L1135.72,684.334L1138.83,680.607C1135.1,677.915 1133.24,676.258 1133.24,675.637C1133.24,675.119 1136.34,673.876 1142.56,671.909L1145.66,668.181L1145.04,664.454C1145.87,663.108 1146.28,661.865 1146.28,660.726L1146.28,658.862L1147.53,658.862L1148.15,662.59L1150.01,662.59C1150.01,661.865 1148.77,658.966 1146.28,653.892L1146.28,630.905C1146.28,630.077 1147.11,629.663 1148.77,629.663L1148.77,629.041C1147.11,629.041 1146.28,628.627 1146.28,627.799L1146.28,623.45C1147.01,622.518 1147.63,620.447 1148.15,617.237C1149.39,617.237 1150.01,616.823 1150.01,615.995C1149.18,615.995 1148.77,615.373 1148.77,614.131L1148.15,614.131L1146.9,614.752C1144.52,609.886 1141.83,606.986 1138.83,606.054C1129.71,604.708 1125.16,603.259 1125.16,601.705L1125.16,601.084C1127.95,599.531 1129.4,597.874 1129.51,596.114C1129.51,593.318 1133.44,591.247 1141.31,589.901L1140.69,591.144C1142.04,591.972 1143.28,592.386 1144.42,592.386C1145.14,592.283 1147.42,588.348 1151.25,580.582C1150.22,576.44 1148.98,573.955 1147.53,573.127L1147.53,571.884L1148.77,570.021L1148.77,569.399L1146.28,569.399L1146.28,555.11L1148.15,552.625L1148.15,552.004C1146.9,552.004 1146.28,551.59 1146.28,550.761L1146.28,545.791C1147.53,544.238 1148.15,542.788 1148.15,541.442L1148.15,538.957C1146.9,538.957 1144.83,536.886 1141.93,532.744C1138.83,530.674 1136.55,529.638 1135.1,529.638L1135.1,529.017C1135.1,528.396 1136.34,527.774 1138.83,527.153C1138.83,523.425 1138.21,520.733 1136.96,519.077C1137.38,517.42 1138.21,516.591 1139.45,516.591ZM1140.07,518.455C1140.17,519.284 1140.59,519.698 1141.31,519.698L1141.31,517.213C1140.48,517.316 1140.07,517.73 1140.07,518.455ZM1114.6,519.077C1114.6,520.008 1116.25,521.872 1119.57,524.668C1118.95,524.668 1118.12,525.496 1117.08,527.153C1118.74,527.981 1119.98,528.396 1120.81,528.396L1120.81,529.638C1116.98,530.881 1114.7,531.502 1113.98,531.502C1113.98,530.674 1113.56,530.259 1112.73,530.259C1112.32,534.401 1111.28,537.093 1109.63,538.336L1109.63,538.957C1111.28,540.614 1112.11,541.856 1112.11,542.685L1115.22,542.685L1117.08,541.442L1117.7,541.442C1122.26,544.859 1124.54,548.587 1124.54,552.625L1124.54,556.974L1118.33,562.565C1119.15,563.912 1119.57,565.154 1119.57,566.293L1119.57,569.399C1119.57,569.917 1117.91,571.367 1114.6,573.748L1113.98,573.748C1113.98,572.506 1113.56,571.884 1112.73,571.884C1112.73,575.198 1110.46,576.855 1105.9,576.855L1100.31,576.855C1095.65,576.855 1091.3,574.37 1087.26,569.399C1087.37,568.571 1087.78,568.157 1088.5,568.157C1087.68,565.051 1087.26,562.151 1087.26,559.459L1083.53,563.187C1082.71,561.53 1082.29,559.252 1082.29,556.353L1082.29,550.761C1082.39,549.933 1082.81,549.519 1083.53,549.519L1086.64,550.14C1086.64,546.62 1088.3,543.099 1091.61,539.578C1091.61,537.818 1090.78,536.369 1089.13,535.23C1093.48,527.878 1101.76,522.494 1113.98,519.077L1114.6,519.077ZM1146.28,579.34L1147.53,579.34L1147.53,581.204L1146.28,581.204L1146.28,579.34ZM1185.42,618.48L1185.42,619.722L1187.91,620.344C1187.91,619.929 1188.12,619.722 1188.53,619.722C1187.91,618.066 1187.29,617.237 1186.66,617.237C1185.84,617.341 1185.42,617.755 1185.42,618.48ZM1097.82,625.314L1103.41,625.314L1107.76,628.42C1107.87,627.592 1108.28,627.178 1109.01,627.178C1112.32,628.938 1114.81,631.009 1116.46,633.39L1115.22,635.254C1119.36,635.254 1121.43,638.36 1121.43,644.573L1121.43,648.922C1121.43,654.617 1117.7,660.208 1110.25,665.696L1109.01,665.696L1107.14,664.454C1107.14,665.075 1106.73,665.903 1105.9,666.939L1105.9,668.803C1107.45,671.288 1108.49,672.53 1109.01,672.53L1111.49,672.53C1112.42,672.53 1113.25,672.323 1113.98,671.909C1117.5,673.152 1119.78,673.773 1120.81,673.773C1120.81,673.359 1121.02,673.152 1121.43,673.152L1122.05,674.394L1122.05,684.334C1122.05,685.163 1121.64,685.577 1120.81,685.577C1111.8,684.334 1104.76,682.471 1099.69,679.985C1099.69,679.364 1098.03,677.293 1094.72,673.773L1093.48,674.394L1092.23,674.394C1091.4,674.394 1090.99,673.98 1090.99,673.152C1091.4,672.427 1091.61,671.598 1091.61,670.666C1090.68,670.666 1088.19,668.803 1084.16,665.075C1084.16,665.903 1083.74,666.318 1082.91,666.318L1082.29,666.318C1078.56,661.865 1076.7,656.895 1076.7,651.407L1076.7,647.058C1079.08,632.562 1086.12,625.314 1097.82,625.314ZM1194.74,633.39L1195.36,634.633C1195.36,635.461 1194.95,635.875 1194.12,635.875L1193.5,634.633C1193.6,633.804 1194.02,633.39 1194.74,633.39ZM1117.7,642.088L1117.08,644.573L1118.33,644.573C1118.33,643.952 1118.74,643.123 1119.57,642.088L1117.7,642.088ZM1142.56,683.713L1143.8,684.334L1145.66,684.334L1145.66,683.713C1145.66,682.885 1145.25,682.471 1144.42,682.471L1143.8,682.471C1142.97,682.574 1142.56,682.988 1142.56,683.713Z" style="fill:rgb(255,254,254);fill-rule:nonzero;"/>
        </g>
    </g>
</svg>
