<svg xmlns="http://www.w3.org/2000/svg" xml:space="preserve" width="75" height="98" style="fill-rule:evenodd;clip-rule:evenodd;stroke-linejoin:round;stroke-miterlimit:2" viewBox="0 0 75 98">
  <path d="M0 230a5 5 0 0 1-5 5h-190a5 5 0 0 1-5-5V0a5 5 0 0 1 5-5H-5a5 5 0 0 1 5 5v230Z" style="fill:#727272;fill-rule:nonzero" transform="matrix(.31845 0 0 .31912 69.419 1.596)"/>
  <path d="M224 256c70.7 0 128-57.3 128-128S294.7 0 224 0 96 57.3 96 128s57.3 128 128 128Zm89.6 32h-16.7c-22.2 10.2-46.9 16-72.9 16-26 0-50.6-5.8-72.9-16h-16.7C60.2 288 0 348.2 0 422.4V464c0 26.5 21.5 48 48 48h352c26.5 0 48-21.5 48-48v-41.6c0-74.2-60.2-134.4-134.4-134.4Z" style="fill:#fff;fill-rule:nonzero" transform="matrix(.10806 0 0 .10806 13.368 9.973)"/>
</svg>
