<svg xmlns="http://www.w3.org/2000/svg" xml:space="preserve" width="75" height="98" style="fill-rule:evenodd;clip-rule:evenodd;stroke-linejoin:round;stroke-miterlimit:2" viewBox="0 0 75 98">
  <path d="M64.143 16.053a2.945 2.945 0 0 0-2.945-2.944H14.294a2.946 2.946 0 0 0-2.945 2.944v29.753a2.946 2.946 0 0 0 2.945 2.944h46.904a2.945 2.945 0 0 0 2.945-2.944V16.053Z" style="fill:#fff" transform="matrix(1 0 0 1 -.246 -8.606)"/>
  <path d="M0-22.216c-3.242-1.638-6.491-3.431-9.457-5.557-3.397.996-6.891 1.662-10.393 2.17-.582.084-1.166.164-1.751.239.187.119.373.237.56.353a66.203 66.203 0 0 0 5.374 3.039 29.82 29.82 0 0 0 .57.28c.191.091.378.181.568.268.437.2.878.395 1.322.582.904.379 1.818.727 2.749 1.037.225.075.426.195.596.346-8.104-.338-16.178-4.903-17.961-5.969-3.349-2.401-6.615-4.978-9.663-7.758a227.188 227.188 0 0 1-5.762 3.177 232.698 232.698 0 0 1-17.487 8.384C-58.74-2.837-42.051 10.97-23.146 9.316-7.336 7.932 5.073-3.833 7.949-18.676A87.184 87.184 0 0 1 0-22.216" style="fill:#8bc34a;fill-rule:nonzero" transform="matrix(.3409 0 0 .3409 46.424 30.95)"/>
  <path d="M0 10.11c.704-.406 1.521-.147 2.067.371.535.504 1.084.993 1.636 1.477.292.258.586.513.88.767l.175.147.052.046c.161.137.321.274.485.408.807.678 1.621 1.345 2.445 2.002a114.33 114.33 0 0 0 4.366 3.314c.113-.026.23-.037.35-.048a6.318 6.318 0 0 1-.278.024l.346-.03c.411-.036.82-.088 1.23-.133a107.19 107.19 0 0 0 4.251-.557 87.88 87.88 0 0 0 5.645-1.033c.98-.213 1.956-.446 2.926-.705.482-.129.964-.263 1.443-.406.612-.183 1.264-.34 1.837.085 3.242 2.399 6.838 4.398 10.44 6.189.225.111.447.222.67.331l.206.098c.031.016.06.029.08.038a80.678 80.678 0 0 0 5.232 2.281 34.79 34.79 0 0 0 .004-6.175C44.815-.521 27.959-14.666 8.838-12.993-9.275-11.408-22.924 3.802-22.891 21.656A230.95 230.95 0 0 0 0 10.11" style="fill:#2196f3;fill-rule:nonzero" transform="matrix(.3409 0 0 .3409 33.455 14.95)"/>
  <path d="M512 64v256H128V64h384m16-64H112C85.5 0 64 21.5 64 48v288c0 26.5 21.5 48 48 48h416c26.5 0 48-21.5 48-48V48c0-26.5-21.5-48-48-48Zm100 416H389.5c-3 0-5.5 2.1-5.9 5.1C381.2 436.3 368 448 352 448h-64c-16 0-29.2-11.7-31.6-26.9-.5-2.9-3-5.1-5.9-5.1H12c-6.6 0-12 5.4-12 12v36c0 26.5 21.5 48 48 48h544c26.5 0 48-21.5 48-48v-36c0-6.6-5.4-12-12-12Z" style="fill:#727272;fill-rule:nonzero" transform="matrix(.11719 0 0 .11719 0 0)"/>
</svg>
