<svg xmlns="http://www.w3.org/2000/svg" xml:space="preserve" width="75" height="98" style="fill-rule:evenodd;clip-rule:evenodd;stroke-linejoin:round;stroke-miterlimit:2" viewBox="0 0 75 98">
  <path d="M0 230a5 5 0 0 1-5 5h-190a5 5 0 0 1-5-5V0a5 5 0 0 1 5-5H-5a5 5 0 0 1 5 5v230Z" style="fill:#fff;fill-rule:nonzero" transform="matrix(.3409 0 0 .3409 69.545 3.068)"/>
  <path d="M0-230a1 1 0 0 0-1-1h-190a1 1 0 0 0-1 1V0a1 1 0 0 0 1 1H-1a1 1 0 0 0 1-1v-230ZM8 0a9 9 0 0 1-9 9h-190a9 9 0 0 1-9-9v-230a9 9 0 0 1 9-9H-1a9 9 0 0 1 9 9V0Z" style="fill:#727272;fill-rule:nonzero" transform="matrix(.3409 0 0 .3409 68.182 81.477)"/>
  <path d="M0 10.11c.704-.406 1.521-.147 2.067.371.535.504 1.084.993 1.636 1.477.292.258.586.513.88.767l.175.147.052.046c.161.137.321.274.485.408.807.678 1.621 1.345 2.445 2.002a114.33 114.33 0 0 0 4.366 3.314c.113-.026.23-.037.35-.048a6.318 6.318 0 0 1-.278.024l.346-.03c.411-.036.82-.088 1.23-.133a107.19 107.19 0 0 0 4.251-.557 87.88 87.88 0 0 0 5.645-1.033c.98-.213 1.956-.446 2.926-.705.482-.129.964-.263 1.443-.406.612-.183 1.264-.34 1.837.085 3.242 2.399 6.838 4.398 10.44 6.189.225.111.447.222.67.331l.206.098c.031.016.06.029.08.038a80.678 80.678 0 0 0 5.232 2.281 34.79 34.79 0 0 0 .004-6.175C44.815-.521 27.959-14.666 8.838-12.993-9.275-11.408-22.924 3.802-22.891 21.656A230.95 230.95 0 0 0 0 10.11" style="fill:#2196f3;fill-rule:nonzero" transform="matrix(.3409 0 0 .3409 13.932 10.685)"/>
  <path d="M0-22.216c-3.242-1.638-6.491-3.431-9.457-5.557-3.397.996-6.891 1.662-10.393 2.17-.582.084-1.166.164-1.751.239.187.119.373.237.56.353a66.203 66.203 0 0 0 5.374 3.039 29.82 29.82 0 0 0 .57.28c.191.091.378.181.568.268.437.2.878.395 1.322.582.904.379 1.818.727 2.749 1.037.225.075.426.195.596.346-8.104-.338-16.178-4.903-17.961-5.969-3.349-2.401-6.615-4.978-9.663-7.758a227.188 227.188 0 0 1-5.762 3.177 232.698 232.698 0 0 1-17.487 8.384C-58.74-2.837-42.051 10.97-23.146 9.316-7.336 7.932 5.073-3.833 7.949-18.676A87.184 87.184 0 0 1 0-22.216" style="fill:#8bc34a;fill-rule:nonzero" transform="matrix(.3409 0 0 .3409 26.9 26.687)"/>
  <path d="M101 238h89v21h-89z" style="fill:#bbdefb" transform="matrix(-.3409 0 0 .3409 99.205 -71.932)"/>
  <path d="M101 210h89v21h-89z" style="fill:#bbdefb" transform="matrix(-.3409 0 0 .3409 99.205 -52.84)"/>
  <path d="m444.788 291.1 42.616 24.599c4.867 2.809 7.126 8.618 5.459 13.985-11.07 35.642-29.97 67.842-54.689 94.586-3.797 4.11-9.986 5.05-14.832 2.254l-42.584-24.595a191.582 191.582 0 0 1-60.759 35.13v49.182c0 5.599-3.915 10.491-9.377 11.718-34.956 7.85-72.499 8.256-109.219.007-5.49-1.233-9.403-6.096-9.403-11.723v-49.184a191.552 191.552 0 0 1-60.759-35.13l-42.584 24.595c-4.846 2.796-11.035 1.856-14.832-2.254-24.718-26.744-43.619-58.944-54.689-94.586-1.667-5.366.592-11.175 5.459-13.985L67.212 291.1a193.501 193.501 0 0 1 0-70.199l-42.616-24.599c-4.867-2.809-7.126-8.618-5.459-13.985 11.07-35.642 29.97-67.842 54.689-94.586 3.797-4.11 9.986-5.05 14.832-2.254l42.584 24.595a191.582 191.582 0 0 1 60.759-35.13V25.759c0-5.599 3.915-10.491 9.377-11.718 34.956-7.85 72.499-8.256 109.219-.007 5.49 1.233 9.403 6.096 9.403 11.723v49.184a191.552 191.552 0 0 1 60.759 35.13l42.584-24.595c4.846-2.796 11.035-1.856 14.832 2.254 24.718 26.744 43.619 58.944 54.689 94.586 1.667 5.366-.592 11.175-5.459 13.985L444.788 220.9a193.507 193.507 0 0 1 0 70.2ZM336 256c0-44.112-35.888-80-80-80s-80 35.888-80 80 35.888 80 80 80 80-35.888 80-80Z" style="fill:#bbdefb;fill-rule:nonzero" transform="matrix(.07545 0 0 .07545 16.14 35.765)"/>
  <path d="M0-247.509v230C0-12.539-3.662-9-8.633-9h-190c0 5 4.029 9 9 9h190C5.338 0 9-3.539 9-8.509v-230c0-4.971-4-9-9-9" style="fill:#727272;fill-rule:nonzero" transform="matrix(.3409 0 0 .3409 71.932 88.636)"/>
</svg>
