<svg xmlns="http://www.w3.org/2000/svg" width="1359.283" height="1359.281" viewBox="0 0 1359.283 1359.281">
    <path fill="#FFF" d="M679.642 1356.78c-91.412 0-180.09-17.903-263.575-53.213-80.634-34.105-153.05-82.93-215.237-145.116-62.187-62.186-111.01-134.602-145.116-215.235C20.404 859.732 2.5 771.053 2.5 679.64c0-91.41 17.904-180.09 53.214-263.573 34.105-80.633 82.93-153.05 145.116-215.236 62.188-62.186 134.604-111.01 215.237-145.116C499.55 20.404 588.23 2.5 679.642 2.5s180.092 17.904 263.574 53.214c80.634 34.105 153.05 82.93 215.236 145.116 62.187 62.187 111.01 134.603 145.116 215.236 35.31 83.483 53.214 172.162 53.214 263.574s-17.903 180.092-53.214 263.574c-34.105 80.634-82.93 153.05-145.116 215.236s-134.603 111.01-215.236 145.116c-83.482 35.31-172.162 53.215-263.574 53.215z"/>
    <path fill="#212121" d="M679.642 5c372.594 0 674.64 302.05 674.64 674.64 0 372.595-302.046 674.642-674.64 674.642C307.05 1354.282 5 1052.234 5 679.642 5 307.048 307.05 5 679.642 5m0-5c-91.75 0-180.755 17.97-264.548 53.412-40.272 17.034-79.115 38.117-115.45 62.664-35.986 24.312-69.827 52.233-100.58 82.987s-58.676 64.594-82.988 100.582c-24.547 36.333-45.63 75.176-62.664 115.45C17.97 498.884 0 587.892 0 679.64c0 91.75 17.97 180.757 53.412 264.55 17.034 40.272 38.117 79.114 62.664 115.448 24.312 35.987 52.233 69.827 82.987 100.58s64.595 58.676 100.582 82.988c36.333 24.547 75.176 45.63 115.45 62.663 83.792 35.44 172.8 53.41 264.547 53.41 91.75 0 180.756-17.97 264.55-53.41 40.27-17.034 79.113-38.117 115.447-62.664 35.986-24.312 69.826-52.233 100.58-82.987s58.675-64.595 82.987-100.582c24.547-36.334 45.63-75.176 62.663-115.45 35.44-83.79 53.412-172.798 53.412-264.547 0-91.747-17.97-180.754-53.412-264.546-17.033-40.272-38.116-79.115-62.663-115.45-24.312-35.986-52.233-69.827-82.987-100.58s-64.594-58.676-100.58-82.988c-36.335-24.547-75.177-45.63-115.45-62.664C860.4 17.97 771.39 0 679.643 0z"/>
    <path fill="#FFF" d="M679.64 1236.27c-75.146 0-148.042-14.718-216.664-43.742-66.282-28.035-125.81-68.17-176.93-119.29-51.122-51.12-91.256-110.648-119.292-176.93-29.024-68.623-43.74-141.52-43.74-216.664 0-75.146 14.716-148.043 43.74-216.666 28.035-66.283 68.17-125.812 119.29-176.933 51.12-51.12 110.65-91.256 176.932-119.29 68.622-29.026 141.52-43.743 216.664-43.743s148.04 14.717 216.664 43.742c66.282 28.035 125.81 68.17 176.932 119.29 51.12 51.122 91.256 110.65 119.29 176.934 29.026 68.623 43.743 141.52 43.743 216.666 0 75.146-14.718 148.04-43.743 216.663-28.035 66.282-68.17 125.81-119.29 176.93-51.122 51.12-110.65 91.256-176.933 119.29-68.623 29.025-141.518 43.742-216.664 43.742z"/>
    <path fill="#212121" d="M679.64 125.513c74.81 0 147.377 14.65 215.69 43.544 32.833 13.887 64.5 31.076 94.124 51.09a558.17 558.17 0 0 1 82.014 67.666 558.213 558.213 0 0 1 67.667 82.013c20.013 29.624 37.202 61.292 51.09 94.125 28.894 68.314 43.544 140.883 43.544 215.693s-14.65 147.377-43.545 215.69a554.22 554.22 0 0 1-51.09 94.123 558.213 558.213 0 0 1-67.667 82.013 558.1 558.1 0 0 1-82.014 67.665c-29.623 20.013-61.29 37.202-94.125 51.09-68.313 28.893-140.882 43.543-215.69 43.543-74.81 0-147.378-14.65-215.69-43.544-32.833-13.887-64.5-31.076-94.125-51.09a558.143 558.143 0 0 1-82.013-67.665 558.15 558.15 0 0 1-67.667-82.014c-20.013-29.623-37.202-61.29-51.09-94.124-28.893-68.312-43.543-140.88-43.543-215.69s14.65-147.378 43.544-215.69c13.887-32.834 31.076-64.502 51.09-94.126a558.097 558.097 0 0 1 67.666-82.013 558.097 558.097 0 0 1 82.013-67.667c29.623-20.013 61.29-37.202 94.125-51.09 68.312-28.893 140.88-43.543 215.69-43.543m0-5c-308.798 0-559.126 250.33-559.126 559.13 0 308.798 250.328 559.126 559.126 559.126 308.797 0 559.13-250.33 559.13-559.126 0-308.8-250.333-559.13-559.13-559.13z"/>
    <g>
        <path fill="#2196F3" d="M507.504 512.54c10.217-5.888 22.04-2.138 30.002 5.378 7.742 7.31 15.72 14.39 23.715 21.422 4.243 3.73 8.5 7.436 12.78 11.12.834.716 1.67 1.427 2.504 2.144.29.248.568.482.78.666 2.333 1.975 4.667 3.953 7.01 5.916a1691.555 1691.555 0 0 0 35.5 29.023c20.718 16.472 41.807 32.517 63.307 47.98a39.62 39.62 0 0 1 5.075-.804c-2.24.193-6.273.527-4.033.334a830.19 830.19 0 0 0 5.027-.455c5.948-.555 11.89-1.158 17.83-1.81a1492.655 1492.655 0 0 0 61.685-8.02c27.44-4.162 54.79-9.006 81.904-14.934 14.21-3.104 28.372-6.452 42.425-10.214 7.006-1.875 13.998-3.816 20.947-5.893 8.875-2.652 18.348-4.92 26.646 1.225 47.027 34.81 99.203 63.807 151.463 89.8 3.235 1.61 6.474 3.212 9.72 4.794.992.482 1.98.963 2.973 1.44a1208.236 1208.236 0 0 0 18.78 8.783c12.84 5.864 25.763 11.536 38.8 16.946a1283.95 1283.95 0 0 0 19.488 7.892c2.63-29.303 2.72-59.242.065-89.574-24.268-277.39-268.81-482.586-546.2-458.316-262.763 22.988-460.74 243.638-460.257 502.63 113.673-49.637 224.595-105.53 332.066-167.47z"/>
        <path fill="#8BC34A" d="M1059.365 724.486c-47.043-23.754-94.18-49.766-137.168-80.617-49.283 14.458-99.994 24.114-150.773 31.474a1718.854 1718.854 0 0 1-25.422 3.482c2.707 1.717 5.414 3.426 8.133 5.12 25.336 15.804 51.254 30.73 77.967 44.085 2.12 1.062 4.242 2.118 6.37 3.155a560.84 560.84 0 0 0 10.13 4.777c6.352 2.912 12.738 5.754 19.184 8.46 13.098 5.497 26.363 10.552 39.846 15.036a24.61 24.61 0 0 1 8.654 5.037c-117.546-4.895-234.683-71.14-260.546-86.618-48.568-34.82-95.968-72.19-140.17-112.525-27.65 15.754-55.505 31.145-83.606 46.084-82.807 44.035-167.447 84.652-253.656 121.61 28.936 272.573 271.05 472.845 545.273 448.853 229.366-20.067 409.368-190.743 451.1-406.058-39.272-15.133-77.753-32.393-115.315-51.356z"/>
    </g>
    <g>
        <path d="M940.615 90.1l-4.796 55.35 40.922-37.97 7.48 3.597-25.69 53.405-5.086-2.447 22.2-46.15-.15-.07-40.45 37.37-4.786-2.303 4.622-54.604-.15-.072-22.198 46.15-5.087-2.448 25.69-53.405 7.478 3.598zM1049.19 173.22c3.22-2.176 6.626-3.654 10.22-4.435 3.593-.78 7.29-.735 11.09.134 3.8.87 7.517 2.75 11.152 5.648 3.635 2.896 6.29 6.09 7.965 9.583 1.674 3.494 2.532 7.078 2.574 10.754.042 3.678-.638 7.328-2.04 10.95-1.4 3.625-3.377 7.038-5.93 10.24-2.55 3.203-5.437 5.892-8.654 8.066-3.22 2.176-6.617 3.643-10.193 4.4s-7.254.713-11.03-.14c-3.778-.853-7.485-2.727-11.12-5.623-3.636-2.896-6.302-6.1-7.998-9.61-1.697-3.508-2.573-7.09-2.633-10.746-.06-3.654.612-7.293 2.014-10.917 1.4-3.623 3.378-7.036 5.93-10.24 2.55-3.2 5.436-5.888 8.655-8.064zm-9.157 19.817c-1.278 2.98-1.98 5.993-2.108 9.04-.13 3.045.446 6.032 1.723 8.96 1.276 2.926 3.45 5.613 6.522 8.062 3.072 2.447 6.167 3.957 9.284 4.53 3.115.573 6.145.458 9.086-.348 2.94-.805 5.72-2.163 8.34-4.073a35.776 35.776 0 0 0 6.928-6.632 35.618 35.618 0 0 0 4.942-8.267c1.26-2.957 1.953-5.96 2.082-9.006.127-3.046-.436-6.025-1.69-8.934-1.254-2.91-3.417-5.59-6.49-8.037-3.072-2.45-6.177-3.967-9.315-4.558-3.138-.59-6.18-.482-9.118.323-2.942.805-5.714 2.152-8.314 4.04a35.552 35.552 0 0 0-6.955 6.664 35.686 35.686 0 0 0-4.917 8.235zM1168.17 259.248l-28.432 23.186c-2.66 2.168-4.677 4.312-6.052 6.435-1.376 2.12-2.182 4.24-2.416 6.36-.236 2.12.06 4.234.89 6.344.826 2.11 2.098 4.214 3.81 6.316 1.75 2.144 3.572 3.834 5.474 5.07 1.9 1.235 3.91 1.95 6.034 2.146 2.124.196 4.362-.167 6.718-1.087 2.354-.922 4.86-2.466 7.52-4.634l28.432-23.186 3.567 4.374-29.396 23.972c-2.36 1.924-4.87 3.418-7.536 4.484-2.665 1.066-5.377 1.53-8.134 1.386-2.76-.143-5.517-.963-8.274-2.463-2.758-1.5-5.448-3.857-8.07-7.073-2.59-3.174-4.34-6.262-5.253-9.265-.915-3.003-1.164-5.87-.75-8.6.415-2.73 1.414-5.295 2.995-7.69 1.58-2.396 3.55-4.555 5.908-6.48l29.396-23.97 3.567 4.373zM1246.115 372.042l-28.963 53.54.075.148 44.655-22.784 2.565 5.027-52.788 26.934-2.867-5.62 28.963-53.54-.076-.147-44.655 22.784-2.564-5.028 52.788-26.934 2.867 5.62zM1307.338 532.003l-4.644 1.27-5.45-19.935-52.52 14.36-1.49-5.443 52.52-14.36-5.428-19.855 4.644-1.27 12.368 45.233zM1322.23 632.716l-57.29 27.748-.47-6.04 17.814-8.624-2.084-26.894-18.923-5.693-.46-5.958 60.924 19.172.49 6.29zm-35.294 10.81l29.402-13.767-31.204-9.488 1.802 23.254zM1320.657 744.757l-58.99-5.668.54-5.62 58.99 5.668-.54 5.62zM1304.073 839.75l-57.662 19.505-.045.16 48.223 13.707-1.544 5.428-57.004-16.203 1.726-6.066 57.662-19.505.045-.16-48.222-13.707 1.544-5.428 57.004 16.2-1.725 6.07z"/>
        <g>
            <path d="M229.823 1083.083c3.462-1.762 7.024-2.81 10.688-3.143 3.663-.33 7.324.168 10.99 1.5 3.662 1.33 7.12 3.658 10.37 6.98 3.25 3.322 5.492 6.818 6.724 10.49s1.642 7.336 1.23 10.988c-.412 3.656-1.536 7.193-3.373 10.617s-4.218 6.566-7.145 9.43c-2.928 2.865-6.122 5.178-9.584 6.94-3.462 1.76-7.014 2.798-10.656 3.11s-7.286-.186-10.93-1.498c-3.645-1.31-7.092-3.627-10.343-6.95s-5.5-6.83-6.752-10.52c-1.252-3.69-1.68-7.355-1.29-10.99.394-3.635 1.507-7.162 3.345-10.586 1.837-3.423 4.22-6.565 7.146-9.43 2.926-2.863 6.12-5.175 9.583-6.937zm-11.53 18.54c-1.636 2.798-2.704 5.702-3.206 8.708-.503 3.01-.3 6.044.605 9.106.906 3.06 2.732 5.996 5.48 8.805 2.747 2.808 5.632 4.69 8.654 5.642 3.02.95 6.04 1.21 9.06.773 3.017-.438 5.943-1.44 8.778-3.016a35.737 35.737 0 0 0 7.692-5.728 35.62 35.62 0 0 0 5.923-7.596c1.613-2.78 2.672-5.674 3.175-8.682.5-3.006.31-6.03-.576-9.074-.888-3.04-2.705-5.967-5.452-8.775-2.748-2.81-5.642-4.697-8.684-5.67-3.04-.973-6.072-1.24-9.09-.803-3.017.436-5.934 1.432-8.747 2.986a35.55 35.55 0 0 0-7.723 5.756 35.806 35.806 0 0 0-5.89 7.568zM352.898 1166.16l-19.57 31.03c-1.83 2.902-3.06 5.576-3.688 8.025-.63 2.45-.718 4.717-.266 6.8.45 2.085 1.406 3.995 2.862 5.73s3.33 3.33 5.625 4.774c2.34 1.476 4.607 2.497 6.802 3.06 2.194.57 4.33.606 6.405.116s4.082-1.547 6.02-3.17 3.824-3.883 5.655-6.785l19.57-31.03 4.773 3.012-20.234 32.082c-1.622 2.574-3.527 4.79-5.714 6.65-2.188 1.86-4.61 3.16-7.27 3.902-2.66.744-5.537.844-8.628.3-3.092-.544-6.393-1.923-9.903-4.136-3.464-2.186-6.105-4.555-7.93-7.11-1.82-2.556-2.97-5.194-3.446-7.915-.478-2.72-.347-5.47.39-8.242s1.914-5.447 3.538-8.02l20.234-32.085 4.776 3.013zM505.86 1239.667l-1.61 4.537-19.476-6.91-18.208 51.312-5.32-1.887 18.21-51.315-19.4-6.883 1.61-4.537 44.195 15.682zM614.03 1261.77c2.416.294 4.673.872 6.77 1.74 2.098.866 3.882 2.015 5.354 3.446 1.47 1.432 2.568 3.182 3.295 5.248.724 2.066.928 4.418.61 7.055-.452 3.735-1.806 6.858-4.06 9.374-2.256 2.514-5.324 3.926-9.207 4.236l-.02.166c1.888.508 3.42 1.207 4.594 2.102s2.09 1.967 2.747 3.217c.656 1.25 1.072 2.652 1.247 4.205.175 1.555.21 3.217.11 4.988-.066.994-.157 2.21-.274 3.645a57.57 57.57 0 0 0-.193 4.365 26.67 26.67 0 0 0 .285 4.215c.2 1.336.56 2.396 1.078 3.182l-6.18-.746c-.264-.59-.443-1.294-.54-2.114-.096-.818-.133-1.66-.112-2.52s.052-1.708.098-2.54c.044-.83.075-1.55.094-2.162.142-2.1.215-4.195.217-6.285s-.3-3.995-.898-5.712c-.602-1.715-1.597-3.16-2.988-4.332s-3.41-1.86-6.062-2.07l-21.26-2.568-3.156 26.12-5.605-.677 7.11-58.833 26.945 3.254zm-3.788 27.885a15.16 15.16 0 0 0 4.956-.195c1.6-.336 3.038-.93 4.312-1.78a11.155 11.155 0 0 0 3.193-3.25c.855-1.317 1.394-2.882 1.613-4.694.438-3.627-.262-6.607-2.096-8.95-1.836-2.34-4.896-3.767-9.18-4.284l-20.93-2.53-2.8 23.155 20.932 2.528zM760.627 1260.253l.478 4.79-35.102 3.5 2.125 21.31 32.87-3.277.48 4.79-32.872 3.276 2.32 23.29 35.515-3.54.48 4.79-41.13 4.1-5.88-58.968 40.717-4.06zM867.24 1234.704l40.694 48.95-5.752 1.905-12.648-15.222-25.606 8.48-.983 19.736-5.673 1.88 3.98-63.747 5.99-1.983zm18.968 31.666l-20.424-25.238-1.717 32.57 22.14-7.332zM1005.97 1180.63c-1.905-.94-3.873-1.508-5.9-1.695a18.515 18.515 0 0 0-6.053.443 19.944 19.944 0 0 0-5.773 2.41c-3.353 2.05-5.842 4.447-7.47 7.193-1.63 2.75-2.568 5.642-2.818 8.68s.067 6.105.952 9.194a35.587 35.587 0 0 0 3.882 8.816 35.722 35.722 0 0 0 6.055 7.436c2.362 2.22 4.953 3.912 7.772 5.074 2.817 1.164 5.82 1.646 9.008 1.447 3.188-.197 6.456-1.32 9.81-3.37 2.36-1.442 4.224-3.165 5.593-5.17 1.368-2.005 2.29-4.157 2.765-6.458.475-2.3.537-4.69.19-7.17s-1.1-4.923-2.247-7.333l4.814-2.943c1.574 3.316 2.56 6.574 2.957 9.768.397 3.195.232 6.215-.493 9.06-.727 2.843-2.017 5.48-3.87 7.91-1.855 2.43-4.27 4.556-7.242 6.374-3.966 2.424-7.888 3.832-11.766 4.225-3.88.396-7.545-.007-11-1.202-3.454-1.195-6.644-3.07-9.57-5.627-2.924-2.556-5.454-5.58-7.59-9.075-2.137-3.494-3.676-7.125-4.618-10.895-.942-3.768-1.166-7.475-.67-11.12.497-3.642 1.803-7.1 3.92-10.372 2.118-3.273 5.16-6.12 9.125-8.547a27.812 27.812 0 0 1 7.695-3.245c2.723-.69 5.442-.91 8.158-.658 2.716.254 5.32 1.012 7.812 2.277s4.712 3.12 6.66 5.56l-4.816 2.944c-1.61-1.676-3.367-2.985-5.272-3.928zM1079.54 1107.99l18.116 18.272 24.99-24.78-18.115-18.27 4.01-3.973 41.725 42.083-4.01 3.973-20.218-20.393-24.99 24.777 20.22 20.393-4.01 3.975-41.725-42.084 4.01-3.973z"/>
        </g>
        <g>
            <path d="M67.524 840.202c-1.408 1.594-2.468 3.344-3.18 5.252a18.516 18.516 0 0 0-1.157 5.957c-.06 2.065.21 4.132.816 6.204 1.1 3.77 2.763 6.803 4.988 9.092 2.226 2.29 4.772 3.955 7.64 4.99 2.868 1.037 5.91 1.533 9.123 1.488a35.635 35.635 0 0 0 9.523-1.44c3.08-.9 6.003-2.196 8.763-3.897 2.76-1.7 5.07-3.756 6.93-6.172 1.86-2.416 3.11-5.19 3.755-8.316s.415-6.577-.686-10.35c-.776-2.655-1.952-4.905-3.528-6.753-1.576-1.844-3.412-3.297-5.51-4.357-2.095-1.06-4.385-1.746-6.87-2.06-2.48-.31-5.037-.228-7.664.25l-1.582-5.42c3.614-.65 7.016-.75 10.202-.296 3.188.453 6.06 1.402 8.613 2.848 2.556 1.445 4.764 3.38 6.624 5.805s3.28 5.312 4.256 8.658c1.303 4.46 1.636 8.615 1 12.46-.635 3.85-1.982 7.28-4.04 10.302s-4.703 5.61-7.937 7.764c-3.232 2.155-6.814 3.806-10.746 4.954-3.93 1.146-7.838 1.682-11.723 1.605-3.883-.077-7.52-.833-10.906-2.265-3.387-1.432-6.38-3.598-8.987-6.498-2.603-2.9-4.557-6.582-5.86-11.043a27.807 27.807 0 0 1-1.117-8.277 23.94 23.94 0 0 1 1.5-8.047c.954-2.555 2.368-4.87 4.24-6.943 1.874-2.074 4.243-3.732 7.11-4.973l1.58 5.418c-2.037 1.115-3.76 2.468-5.17 4.06zM36.934 724.84l57.363-27.595.452 6.043-17.837 8.574 2.012 26.9 18.907 5.744.445 5.96-60.874-19.335-.47-6.29zm35.32-10.714l-29.438 13.688 31.18 9.57-1.74-23.258zM41.48 590.505c.312-2.413.912-4.665 1.797-6.755.886-2.088 2.05-3.862 3.495-5.32 1.445-1.458 3.205-2.54 5.276-3.25 2.073-.705 4.426-.89 7.06-.546 3.732.484 6.845 1.866 9.34 4.143 2.493 2.277 3.88 5.358 4.154 9.244l.165.022c.524-1.885 1.237-3.41 2.143-4.576a9.684 9.684 0 0 1 3.24-2.718c1.256-.645 2.662-1.048 4.217-1.21 1.557-.16 3.22-.18 4.988-.063.995.074 2.21.176 3.643.307 1.435.13 2.89.208 4.364.23a26.835 26.835 0 0 0 4.217-.246c1.336-.188 2.4-.538 3.19-1.05l-.802 6.173c-.59.257-1.297.43-2.118.52-.82.09-1.66.118-2.522.09a78.374 78.374 0 0 1-2.537-.12c-.83-.052-1.55-.09-2.16-.113-2.1-.16-4.194-.252-6.284-.272s-3.995.263-5.718.848a9.798 9.798 0 0 0-4.36 2.95c-1.183 1.38-1.89 3.394-2.123 6.042l-2.76 21.235 26.093 3.39-.728 5.598-58.768-7.636 3.497-26.917zm27.848 4.037c.22-1.7.172-3.354-.15-4.958-.322-1.604-.902-3.046-1.74-4.327a11.204 11.204 0 0 0-3.222-3.223c-1.31-.867-2.87-1.42-4.682-1.654-3.622-.47-6.61.202-8.967 2.016-2.355 1.815-3.812 4.86-4.368 9.142l-2.717 20.906 23.13 3.005 2.715-20.908zM73.4 461.032c.878-2.507 2.025-4.656 3.443-6.446 1.418-1.79 3.075-3.174 4.97-4.152 1.896-.978 3.974-1.512 6.232-1.6 2.26-.09 4.642.304 7.148 1.18s4.616 2.056 6.326 3.533c1.71 1.478 3.002 3.19 3.874 5.137.873 1.947 1.305 4.062 1.298 6.345-.008 2.283-.45 4.678-1.327 7.185l-6.824 19.508 23.974 8.387-1.863 5.328-55.937-19.57 8.688-24.836zm27.01 10.767c1.298-3.71 1.408-7.04.332-9.997-1.076-2.956-3.546-5.11-7.41-6.462-3.866-1.35-7.142-1.207-9.825.433-2.685 1.64-4.675 4.315-5.973 8.023L71.12 482.13 94 490.13l6.413-18.333zM125.438 350.913l62.873 9.958-3.066 5.226-19.546-3.1-13.656 23.262 12.277 15.484-3.026 5.154-39.05-50.544 3.194-5.44zm35.142 11.292l-31.996-5.5 20.188 25.614 11.808-20.115zM210.318 237.644l3.622 3.172-13.618 15.546 40.958 35.875-3.72 4.246-40.957-35.875-13.562 15.484-3.62-3.172 30.898-35.276zM276.59 176.69l15.55 20.5 28.037-21.268-15.55-20.5 4.497-3.41 35.815 47.214-4.498 3.41-17.355-22.88-28.038 21.27 17.354 22.88-4.497 3.41-35.814-47.215 4.496-3.41zM391.594 103.207l26.76 52.876-5.035 2.55-26.762-52.877 5.036-2.55zM497.227 61.573l39.318 50.06-5.802 1.746-12.22-15.568-25.834 7.767-1.53 19.7-5.723 1.72 5.75-63.61 6.04-1.817zM515.31 93.75l-19.717-25.793-2.62 32.51 22.336-6.716zM608.84 39.004l38.55 47.11.166-.014-4.14-49.96 5.625-.467 4.894 59.06-6.286.52-38.55-47.11-.165.015 4.14 49.96-5.625.467-4.893-59.06 6.286-.52z"/>
        </g>
    </g>
</svg>
