<svg xmlns="http://www.w3.org/2000/svg" width="500" height="212.641" viewBox="0 0 500 212.641">
    <g fill="#2196F3">
        <path d="M162.456 153.85H128.7v54.853H94.666V153.85H9.435v-25.033L98.602 10.393H128.7v114.204h33.756v29.254zm-67.79-91.7L45.72 124.598h48.945V62.15zM179.612 109.97c0-17.062 1.784-32.02 5.362-44.866 3.578-12.843 8.61-23.488 15.106-31.926 6.496-8.44 14.262-14.768 23.3-18.987 9.035-4.218 19.104-6.328 30.21-6.328 23.718 0 41.98 8.298 54.778 24.895S327.57 75.09 327.57 109.97c0 17.256-1.788 32.306-5.366 45.148-3.578 12.847-8.61 23.537-15.106 32.067-6.496 8.535-14.306 14.908-23.435 19.127-9.133 4.22-19.25 6.33-30.354 6.33-23.91 0-42.168-8.765-54.782-26.3-12.613-17.534-18.916-42.99-18.916-76.372zm36.568 0c0 2.813.044 5.485.136 8.017.093 2.532.233 5.112.422 7.736l68.077-62.728c-5.582-16.126-16.09-24.19-31.526-24.19-11.908 0-21.067 5.766-27.484 17.3-6.417 11.53-9.626 29.49-9.626 53.865zm74.823 0c0-2.998-.048-5.86-.14-8.58a222.86 222.86 0 0 0-.418-8.017L222.087 156.1c5.767 17.068 16.275 25.6 31.527 25.6 11.902 0 21.11-5.72 27.624-17.16 6.51-11.436 9.765-29.627 9.765-54.57zM500 153.85h-33.755v54.853h-34.037V153.85h-85.23v-25.033l89.168-118.424h30.1v114.204H500v29.254zm-67.79-91.7l-48.945 62.447h48.944V62.15z"/>
    </g>
    <path fill="#FFF" d="M87.118 198.955v-54.852H1.888v-22.517L90.11 4.418h27.27v114.204h33.755v25.48H117.38v54.853H87.118zM32.41 118.623h54.71v-69.8l-54.71 69.8z"/>
    <path fill="#2196F3" d="M115.494 6.305V120.51h33.754v21.706h-33.754V197.068h-26.49V142.216H3.775v-20l87.28-115.91h24.44M28.536 120.508H89.006V43.357l-6.744 8.604-48.943 62.446-4.782 6.1M119.268 2.533h-30.1L0 120.956v25.035h85.23v54.853h34.038V145.99h33.755v-29.254h-33.755V2.532zm-82.98 114.204L85.23 54.29v62.446H36.288z"/>
    <path fill="#FFF" d="M243.876 202.894c-11.614 0-21.98-2.15-30.81-6.39-8.8-4.223-16.35-10.66-22.44-19.126-12.316-17.12-18.562-42.443-18.562-75.27 0-16.823 1.78-31.748 5.293-44.36 3.5-12.557 8.472-23.082 14.784-31.28 6.28-8.16 13.885-14.36 22.603-18.43 8.742-4.082 18.64-6.152 29.414-6.152 11.532 0 21.862 2.037 30.702 6.055 8.803 4.002 16.4 10.093 22.58 18.106 12.48 16.185 18.81 41.776 18.81 76.062 0 17.003-1.782 32.023-5.297 44.64-3.498 12.563-8.474 23.138-14.79 31.432-6.274 8.245-13.92 14.488-22.725 18.558-8.84 4.085-18.786 6.156-29.562 6.156zm-33.403-55.213l.393 1.165c6.027 17.836 17.235 26.88 33.314 26.88 12.576 0 22.42-6.094 29.263-18.112 6.645-11.673 10.013-30.348 10.013-55.504 0-2.97-.047-5.877-.142-8.645-.09-2.683-.232-5.403-.42-8.085l-.274-3.904-72.147 66.205zm33.38-118.624c-12.584 0-22.386 6.146-29.13 18.27-6.545 11.762-9.864 30.194-9.864 54.784 0 2.86.045 5.582.136 8.085.093 2.546.236 5.17.426 7.803l.28 3.905 71.865-66.218-.404-1.167c-5.847-16.896-17.054-25.462-33.31-25.462z"/>
    <path fill="#2196F3" d="M244.158 3.773c11.26 0 21.328 1.98 29.92 5.886 8.522 3.87 15.88 9.772 21.868 17.54 6.05 7.844 10.668 18.058 13.727 30.356 3.112 12.513 4.69 27.502 4.69 44.553 0 16.832-1.76 31.68-5.23 44.134-3.432 12.33-8.302 22.69-14.473 30.794-6.086 7.997-13.493 14.05-22.015 17.988-8.59 3.97-18.27 5.98-28.77 5.98-11.33 0-21.422-2.085-29.994-6.2-8.51-4.087-15.82-10.32-21.724-18.53-5.995-8.333-10.567-18.744-13.59-30.945-3.062-12.37-4.616-26.912-4.616-43.22 0-16.653 1.758-31.407 5.224-43.854 3.433-12.323 8.298-22.63 14.46-30.637 6.095-7.917 13.464-13.93 21.906-17.87 8.492-3.966 18.12-5.977 28.618-5.977m-40.055 122.17l5.758-5.307 68.078-62.728 1.817-1.674-.808-2.335c-3.024-8.736-7.51-15.433-13.336-19.903-5.904-4.53-13.224-6.828-21.755-6.828-13.322 0-23.677 6.472-30.78 19.237-3.396 6.104-5.966 13.94-7.636 23.29-1.637 9.154-2.466 20.06-2.466 32.413 0 2.884.047 5.627.138 8.154.094 2.566.238 5.214.43 7.87l.56 7.808m40.078 51.67c13.303 0 23.7-6.416 30.903-19.066 3.452-6.066 6.063-13.946 7.76-23.422 1.66-9.272 2.5-20.38 2.5-33.015 0-2.99-.048-5.92-.143-8.708-.092-2.706-.235-5.45-.424-8.153l-.55-7.81-5.766 5.292-68.36 62.728-1.81 1.66.788 2.328c3.1 9.18 7.61 16.218 13.402 20.92 5.92 4.806 13.22 7.243 21.7 7.243M244.158 0c-11.107 0-21.176 2.11-30.213 6.33-9.036 4.218-16.802 10.547-23.3 18.986-6.494 8.44-11.527 19.083-15.104 31.926-3.577 12.847-5.36 27.804-5.36 44.866 0 33.38 6.302 58.838 18.916 76.37 12.615 17.537 30.872 26.3 54.782 26.3 11.102 0 21.22-2.11 30.354-6.328 9.128-4.22 16.94-10.592 23.435-19.128 6.496-8.53 11.528-19.22 15.106-32.067 3.578-12.843 5.367-27.892 5.367-45.147 0-34.88-6.404-60.618-19.203-77.214C286.137 8.298 267.875 0 244.157 0zm-36.854 117.86c-.188-2.623-.33-5.203-.422-7.734s-.136-5.204-.136-8.017c0-24.377 3.208-42.335 9.625-53.868s15.577-17.3 27.484-17.3c15.436 0 25.945 8.066 31.526 24.192l-68.076 62.727zm36.876 55.978c-15.25 0-25.76-8.53-31.527-25.597l68.358-62.727c.186 2.628.326 5.3.418 8.017.092 2.72.14 5.582.14 8.58 0 24.942-3.255 43.134-9.765 54.57-6.513 11.44-15.72 17.158-27.623 17.158z"/>
    <g>
        <path fill="#FFF" d="M424.662 198.955v-54.852h-85.23v-22.517L427.654 4.418h27.27v114.204h33.756v25.48h-33.756v54.853h-30.262zm-54.708-80.332h54.708v-69.8l-54.708 69.8z"/>
        <path fill="#2196F3" d="M453.038 6.305V120.51h33.756v21.706H453.04V197.068h-26.49V142.216H341.32v-20l87.275-115.91h24.443m-86.96 114.203H426.547V43.357l-6.743 8.604-48.944 62.446-4.782 6.1M456.81 2.533h-30.097l-89.17 118.424v25.035h85.232v54.853h34.036V145.99h33.757v-29.254H456.81V2.532zm-82.98 114.204l48.945-62.446v62.446H373.83z"/>
    </g>
</svg>
