<svg xmlns="http://www.w3.org/2000/svg" width="1008.406" height="1008.415" viewBox="0 0 1008.406 1008.415">
    <path fill="#FFF" d="M504.773 45c114.327.003 224.023 42.61 308.88 119.975 85.35 77.812 137.902 184.075 147.976 299.213a466.36 466.36 0 0 1 1.227 18.075 1257.763 1257.763 0 0 1-14.146-6.653l-.933-.453-1.745-.846a1368.785 1368.785 0 0 1-9.357-4.613c-60.278-29.983-106.267-57.21-144.72-85.673-11.272-8.35-24.797-12.762-39.11-12.762-10.463 0-19.624 2.316-27.207 4.583-5.842 1.746-12.1 3.506-19.697 5.54-12.215 3.27-25.43 6.45-40.397 9.722-24.297 5.312-50.15 10.023-79.034 14.403a1455.23 1455.23 0 0 1-66.594 8.5c-15.593-11.5-31.533-23.72-47.566-36.47a1660.96 1660.96 0 0 1-34.593-28.28 1510.005 1510.005 0 0 1-7.342-6.203l-.122-.104-1.294-1.11-1.08-.924c-4.184-3.602-8.36-7.236-12.425-10.81-8.594-7.556-15.715-13.907-22.532-20.344-14.037-13.254-31.83-20.553-50.107-20.553a66.688 66.688 0 0 0-33.258 8.907c-83.742 48.265-170.6 93.305-259.04 134.346 13.83-87.967 53.15-170.4 114.138-237.415C242.533 109.523 348.892 56.865 464.18 46.78A467.64 467.64 0 0 1 504.774 45m0-45c-14.728 0-29.568.64-44.518 1.95C197.495 24.937-.482 245.585 0 504.58c113.673-49.638 224.594-105.53 332.065-167.472a21.376 21.376 0 0 1 10.79-2.895c7.038 0 13.963 3.318 19.21 8.272 7.743 7.31 15.72 14.39 23.716 21.42 4.242 3.73 8.502 7.437 12.78 11.12.833.716 1.67 1.427 2.503 2.145.293.25.57.483.78.665a1647.45 1647.45 0 0 0 7.01 5.917 1690.99 1690.99 0 0 0 35.502 29.022c20.718 16.474 41.808 32.52 63.308 47.98a39.588 39.588 0 0 1 5.072-.802 695.37 695.37 0 0 1-4.688.392c-.014 0 .18-.017.655-.06 1.677-.145 3.354-.294 5.028-.452 5.948-.556 11.892-1.16 17.832-1.81a1492.655 1492.655 0 0 0 61.684-8.02c27.44-4.162 54.79-9.007 81.905-14.935 14.21-3.105 28.373-6.452 42.427-10.215 7.005-1.875 13.997-3.816 20.946-5.894 4.693-1.403 9.555-2.698 14.32-2.698 4.247 0 8.417 1.028 12.327 3.924 47.025 34.81 99.203 63.808 151.462 89.802 3.234 1.608 6.473 3.21 9.72 4.792l2.972 1.44c.456.214.89.423 1.16.555 5.854 2.785 11.723 5.54 17.618 8.23 12.84 5.86 25.766 11.534 38.802 16.944a1249.61 1249.61 0 0 0 19.49 7.89c2.627-29.302 2.717-59.242.063-89.573C983.497 197.826 763.352.008 504.774 0z"/>
    <path fill="#FFF" d="M883.927 549.052c-47.045-23.754-94.18-49.764-137.17-80.616-49.282 14.46-99.993 24.115-150.773 31.476a1718.588 1718.588 0 0 1-25.42 3.482c2.707 1.715 5.413 3.426 8.132 5.12 25.337 15.804 51.254 30.73 77.967 44.084 2.12 1.06 4.24 2.117 6.37 3.154.357.176 1.156.56 1.89.913a592.93 592.93 0 0 0 8.24 3.864c6.353 2.912 12.737 5.753 19.183 8.458 13.098 5.498 26.364 10.553 39.846 15.037a24.61 24.61 0 0 1 8.655 5.036c-117.546-4.895-234.68-71.14-260.545-86.617-48.568-34.82-95.97-72.19-140.17-112.526-27.65 15.754-55.505 31.144-83.606 46.086-82.808 44.036-167.45 84.653-253.658 121.61 28.937 272.574 271.048 472.845 545.27 448.853C777.506 986.4 957.507 815.724 999.24 600.41c-39.27-15.134-77.75-32.393-115.31-51.358z"/>
</svg>
