<svg xmlns="http://www.w3.org/2000/svg" width="75" height="98.077" viewBox="0 0 75 98.077">
    <path fill="#FFF" d="M69 81.296c0 .94-.763 1.704-1.704 1.704H2.704C1.764 83 1 82.237 1 81.296V2.704C1 1.764 1.763 1 2.704 1h64.592C68.236 1 69 1.763 69 2.704v78.592z"/>
    <path fill="#727272" d="M71 81.932A3.07 3.07 0 0 1 67.932 85H3.068A3.07 3.07 0 0 1 0 81.932V3.068A3.07 3.07 0 0 1 3.068 0H67.93A3.07 3.07 0 0 1 71 3.068v78.864zm-3-78.59A.34.34 0 0 0 67.66 3H3.34a.34.34 0 0 0-.34.34v78.32c0 .188.152.34.34.34h64.32a.34.34 0 0 0 .34-.34V3.34z"/>
    <path fill="#BBDEFB" d="M6 7h59v7H6zM6 16h59v8H6zM6 31h59v47H6z"/>
    <path fill="#727272" d="M72 4.008v78.41C72 84.11 71.184 86 69.488 86H4.716c0 1 1.374 3 3.068 3h64.772C74.252 89 75 87.18 75 85.485V7.075c0-1.693-1-3.067-3-3.067z"/>
    <g>
        <path fill="#1976D2" d="M40.732-208.218h42.44v34.503H40.73z"/>
        <path fill="#2196F3" d="M83.172-208.218h42.44v34.503H83.17z"/>
        <path fill="#BBDEFB" d="M125.61-208.218h42.44v34.503h-42.44z"/>
        <path fill="#FFF" d="M168.05-208.218h42.44v34.503h-42.44z"/>
        <path fill="#8BC34A" d="M40.732-173.714h42.44v34.503H40.73z"/>
        <path fill="#212121" d="M83.172-173.714h42.44v34.503H83.17z"/>
        <path fill="#727272" d="M125.61-173.714h42.44v34.503h-42.44z"/>
        <path fill="#B6B6B6" d="M168.05-173.714h42.44v34.503h-42.44z"/>
        <text transform="translate(44.828 -201.596)" fill="#FFF" font-family="'Courier'" font-size="2.907">
            #1976D2
        </text>
        <text transform="translate(86.928 -201.596)" fill="#FFF" font-family="'Courier'" font-size="2.907">
            #2196F3
        </text>
        <text transform="translate(128.963 -201.596)" fill="#FFF" font-family="'Courier'" font-size="2.907">
            #BBDEFB
        </text>
        <text transform="translate(172.865 -201.596)" font-family="'Courier'" font-size="2.907">
            #FFFFFF
        </text>
        <text transform="translate(45.205 -166.21)" fill="#FFF" font-family="'Courier'" font-size="2.907">
            #8BC34A
        </text>
        <text transform="translate(86.928 -166.21)" fill="#FFF" font-family="'Courier'" font-size="2.907">
            #212121
        </text>
        <text transform="translate(128.963 -166.21)" fill="#FFF" font-family="'Courier'" font-size="2.907">
            #727272
        </text>
        <text transform="translate(172.865 -166.21)" fill="#FFF" font-family="'Courier'" font-size="2.907">
            #B6B6B6
        </text>
    </g>
</svg>
