<svg xmlns="http://www.w3.org/2000/svg" width="1359.283" height="1359.281" viewBox="0 0 1359.283 1359.281">
    <path fill="#FFF" d="M679.643 1356.78c-91.413 0-180.092-17.903-263.575-53.213-80.634-34.105-153.05-82.93-215.237-145.116-62.186-62.186-111.01-134.602-145.116-215.235C20.404 859.732 2.5 771.053 2.5 679.64c0-91.41 17.904-180.09 53.214-263.573 34.105-80.633 82.93-153.05 145.117-215.236C263.02 138.645 335.435 89.82 416.07 55.715 499.55 20.404 588.23 2.5 679.643 2.5s180.092 17.904 263.574 53.214c80.634 34.105 153.05 82.93 215.236 145.116 62.187 62.187 111.01 134.603 145.116 215.236 35.31 83.483 53.213 172.162 53.213 263.574s-17.903 180.092-53.214 263.574c-34.106 80.634-82.93 153.05-145.117 215.236s-134.603 111.01-215.236 145.116c-83.483 35.31-172.162 53.215-263.574 53.215z"/>
    <path fill="#212121" d="M679.643 5c372.594 0 674.64 302.05 674.64 674.64 0 372.595-302.046 674.642-674.64 674.642S5 1052.234 5 679.642C5 307.048 307.05 5 679.643 5m0-5c-91.75 0-180.756 17.97-264.55 53.412-40.27 17.034-79.114 38.117-115.448 62.664-35.987 24.312-69.828 52.233-100.582 82.987s-58.675 64.594-82.988 100.582c-24.546 36.333-45.63 75.176-62.664 115.45C17.97 498.884 0 587.892 0 679.64c0 91.75 17.97 180.757 53.412 264.55 17.034 40.272 38.117 79.114 62.664 115.448 24.312 35.987 52.233 69.827 82.987 100.58s64.595 58.676 100.582 82.988c36.333 24.547 75.176 45.63 115.45 62.663 83.792 35.44 172.8 53.41 264.548 53.41s180.756-17.97 264.55-53.41c40.27-17.034 79.113-38.117 115.447-62.664 35.987-24.312 69.827-52.233 100.58-82.987s58.677-64.595 82.988-100.582c24.547-36.334 45.63-75.176 62.663-115.448 35.443-83.793 53.413-172.8 53.413-264.55 0-91.747-17.97-180.754-53.412-264.546-17.032-40.272-38.115-79.115-62.662-115.45-24.312-35.986-52.233-69.827-82.987-100.58s-64.593-58.676-100.58-82.988c-36.334-24.547-75.177-45.63-115.448-62.664C860.398 17.97 771.392 0 679.642 0z"/>
    <path fill="#FFF" d="M679.64 1236.27c-75.145 0-148.04-14.717-216.664-43.74-66.282-28.036-125.81-68.17-176.93-119.29-51.122-51.12-91.256-110.65-119.292-176.932-29.024-68.622-43.74-141.518-43.74-216.663 0-75.146 14.716-148.043 43.74-216.666 28.035-66.284 68.17-125.813 119.29-176.934 51.12-51.12 110.65-91.256 176.932-119.292 68.623-29.025 141.52-43.742 216.665-43.742s148.042 14.717 216.665 43.742c66.282 28.035 125.81 68.17 176.932 119.292 51.12 51.12 91.256 110.65 119.29 176.933 29.026 68.622 43.743 141.52 43.743 216.665 0 75.146-14.717 148.04-43.742 216.663-28.035 66.282-68.17 125.81-119.29 176.93-51.122 51.12-110.65 91.256-176.933 119.29-68.623 29.025-141.52 43.742-216.664 43.742z"/>
    <path fill="#212121" d="M679.64 125.513c74.81 0 147.378 14.65 215.69 43.544 32.834 13.887 64.502 31.076 94.125 51.09a558.105 558.105 0 0 1 82.014 67.666 558.213 558.213 0 0 1 67.666 82.013c20.013 29.624 37.202 61.292 51.09 94.125 28.894 68.314 43.544 140.883 43.544 215.693s-14.65 147.377-43.544 215.69a554.22 554.22 0 0 1-51.09 94.123 558.213 558.213 0 0 1-67.667 82.013 558.1 558.1 0 0 1-82.015 67.665c-29.623 20.013-61.29 37.202-94.125 51.09-68.312 28.893-140.88 43.543-215.69 43.543-74.808 0-147.377-14.65-215.69-43.544-32.832-13.887-64.5-31.076-94.124-51.09a558.143 558.143 0 0 1-82.013-67.665 558.15 558.15 0 0 1-67.667-82.014c-20.013-29.623-37.202-61.29-51.09-94.124-28.893-68.312-43.543-140.88-43.543-215.69s14.65-147.378 43.544-215.69a554.155 554.155 0 0 1 51.09-94.126 558.158 558.158 0 0 1 67.666-82.014 558.097 558.097 0 0 1 82.013-67.667c29.624-20.013 61.292-37.202 94.125-51.09 68.313-28.892 140.882-43.542 215.69-43.542m0-5c-308.798 0-559.126 250.33-559.126 559.132 0 308.797 250.328 559.125 559.127 559.125 308.798 0 559.13-250.328 559.13-559.125 0-308.8-250.332-559.132-559.13-559.132z"/>
    <g>
        <path fill="#2196F3" d="M507.504 512.54c10.217-5.888 22.04-2.138 30.002 5.378 7.742 7.31 15.72 14.39 23.715 21.422 4.243 3.73 8.5 7.436 12.78 11.12.834.716 1.67 1.427 2.504 2.144.29.248.568.482.78.666 2.333 1.975 4.667 3.953 7.01 5.916a1691.555 1691.555 0 0 0 35.5 29.023c20.718 16.472 41.808 32.517 63.308 47.98a39.62 39.62 0 0 1 5.074-.804c-2.24.193-6.273.527-4.033.334a830.19 830.19 0 0 0 5.027-.455c5.95-.555 11.89-1.158 17.832-1.81a1492.655 1492.655 0 0 0 61.684-8.02c27.44-4.162 54.79-9.006 81.904-14.934 14.21-3.104 28.373-6.452 42.426-10.214 7.006-1.875 13.998-3.816 20.947-5.893 8.875-2.652 18.348-4.92 26.646 1.225 47.026 34.81 99.202 63.807 151.462 89.8 3.234 1.61 6.473 3.212 9.72 4.794.99.482 1.98.963 2.972 1.44a1208.236 1208.236 0 0 0 18.78 8.783c12.84 5.864 25.763 11.536 38.8 16.946a1283.95 1283.95 0 0 0 19.488 7.892c2.63-29.303 2.72-59.242.064-89.574-24.268-277.39-268.81-482.586-546.2-458.316-262.763 22.988-460.74 243.638-460.257 502.63 113.67-49.637 224.593-105.53 332.064-167.47z"/>
        <path fill="#8BC34A" d="M1059.365 724.486c-47.043-23.754-94.18-49.766-137.168-80.617-49.283 14.458-99.994 24.114-150.773 31.474a1718.854 1718.854 0 0 1-25.422 3.482c2.707 1.717 5.414 3.426 8.133 5.12 25.336 15.804 51.254 30.73 77.967 44.085 2.12 1.062 4.242 2.118 6.37 3.155a560.84 560.84 0 0 0 10.13 4.777c6.352 2.912 12.738 5.754 19.184 8.46 13.098 5.497 26.363 10.552 39.846 15.036a24.61 24.61 0 0 1 8.654 5.037c-117.546-4.895-234.682-71.14-260.546-86.618-48.568-34.82-95.97-72.19-140.17-112.525-27.65 15.754-55.506 31.145-83.607 46.084-82.807 44.035-167.447 84.652-253.656 121.61 28.936 272.573 271.05 472.845 545.273 448.853 229.365-20.067 409.367-190.743 451.098-406.058-39.27-15.133-77.75-32.393-115.313-51.356z"/>
    </g>
    <g>
        <path d="M204.734 1053.258c3.568-1.537 7.19-2.354 10.867-2.45 3.676-.097 7.3.638 10.87 2.2 3.57 1.562 6.872 4.107 9.903 7.63s5.043 7.157 6.037 10.9c.993 3.745 1.168 7.427.523 11.046-.646 3.62-1.994 7.08-4.046 10.38-2.054 3.298-4.632 6.282-7.736 8.952s-6.44 4.773-10.008 6.31-7.18 2.345-10.835 2.423c-3.654.077-7.26-.653-10.812-2.196-3.552-1.543-6.845-4.076-9.875-7.6-3.03-3.523-5.053-7.168-6.064-10.932-1.013-3.766-1.206-7.447-.582-11.05.624-3.603 1.962-7.052 4.015-10.35 2.05-3.3 4.63-6.284 7.734-8.954s6.442-4.773 10.01-6.31zm-12.693 17.762c-1.81 2.69-3.063 5.518-3.757 8.486-.694 2.97-.687 6.012.02 9.125.71 3.114 2.343 6.16 4.905 9.14 2.562 2.977 5.32 5.04 8.275 6.184 2.954 1.143 5.95 1.594 8.99 1.352s6.024-1.06 8.955-2.445a35.773 35.773 0 0 0 8.043-5.222 35.64 35.64 0 0 0 6.398-7.2c1.79-2.67 3.03-5.49 3.726-8.46.693-2.97.696-6 .007-9.092-.688-3.094-2.314-6.13-4.876-9.107-2.562-2.98-5.33-5.052-8.303-6.216-2.972-1.166-5.98-1.627-9.018-1.385-3.04.24-6.014 1.048-8.922 2.42a35.66 35.66 0 0 0-8.075 5.247 35.652 35.652 0 0 0-6.364 7.173zM330.848 1150.572l-20.978 30.098c-1.962 2.814-3.313 5.43-4.054 7.848s-.934 4.68-.577 6.78c.353 2.105 1.22 4.056 2.595 5.856 1.374 1.803 3.174 3.477 5.398 5.027 2.27 1.583 4.487 2.708 6.654 3.374 2.165.668 4.296.803 6.393.408 2.095-.393 4.148-1.357 6.16-2.89 2.013-1.53 4-3.702 5.96-6.52l20.978-30.095 4.63 3.227-21.687 31.12c-1.74 2.495-3.745 4.622-6.015 6.378-2.27 1.756-4.75 2.945-7.44 3.564-2.693.62-5.57.588-8.634-.098-3.06-.686-6.296-2.213-9.7-4.586-3.36-2.342-5.89-4.832-7.594-7.47s-2.73-5.323-3.08-8.063c-.352-2.74-.094-5.48.77-8.216.86-2.738 2.163-5.355 3.903-7.852l21.687-31.12 4.63 3.23zM490.46 1234.656l-1.736 4.49-19.277-7.45-19.63 50.788-5.263-2.035 19.628-50.788-19.2-7.42 1.736-4.49 43.74 16.904zM608.663 1261.146c2.414.314 4.665.916 6.755 1.8 2.088.888 3.862 2.052 5.32 3.497 1.457 1.445 2.54 3.207 3.247 5.277.705 2.074.888 4.428.545 7.06-.485 3.733-1.868 6.845-4.146 9.34-2.278 2.493-5.36 3.876-9.245 4.15l-.022.165c1.884.525 3.41 1.24 4.575 2.145 1.165.906 2.07 1.986 2.717 3.242.645 1.256 1.048 2.662 1.21 4.217.158 1.556.18 3.218.06 4.987-.073.994-.176 2.21-.306 3.643a57.878 57.878 0 0 0-.233 4.363 26.824 26.824 0 0 0 .247 4.217c.188 1.338.537 2.4 1.05 3.193l-6.174-.805c-.258-.59-.432-1.297-.52-2.12-.09-.817-.118-1.66-.09-2.52s.068-1.707.12-2.537c.053-.83.09-1.55.115-2.16.16-2.1.253-4.194.274-6.284.02-2.09-.263-3.996-.846-5.72a9.804 9.804 0 0 0-2.948-4.358c-1.38-1.184-3.395-1.893-6.043-2.125l-21.234-2.766-3.396 26.09-5.597-.73 7.652-58.765 26.913 3.504zm-4.044 27.85c1.7.22 3.352.172 4.957-.15 1.603-.32 3.047-.9 4.327-1.738a11.217 11.217 0 0 0 3.224-3.22c.867-1.312 1.42-2.872 1.655-4.683.472-3.62-.2-6.61-2.013-8.967-1.814-2.355-4.86-3.814-9.14-4.37l-20.906-2.724-3.01 23.13 20.905 2.722zM765.957 1259.492l.52 4.785-35.067 3.82 2.318 21.287 32.84-3.576.52 4.785-32.84 3.578 2.536 23.27 35.48-3.866.52 4.785-41.09 4.476-6.42-58.912 40.683-4.432zM882.527 1229.3l42.043 47.798-5.695 2.064-13.068-14.863-25.36 9.19-.433 19.756-5.617 2.037 2.2-63.834 5.93-2.15zm19.844 31.124l-21.118-24.658-.807 32.605 21.926-7.946zM1028.662 1165.06c-1.947-.853-3.938-1.327-5.97-1.42a18.493 18.493 0 0 0-6.028.718 19.966 19.966 0 0 0-5.656 2.674c-3.256 2.203-5.63 4.71-7.13 7.53-1.503 2.82-2.308 5.753-2.417 8.798-.108 3.05.35 6.096 1.374 9.143a35.58 35.58 0 0 0 4.283 8.627 35.714 35.714 0 0 0 6.39 7.15c2.462 2.11 5.128 3.68 7.997 4.71 2.87 1.034 5.89 1.378 9.066 1.034 3.174-.344 6.39-1.617 9.643-3.818 2.29-1.55 4.074-3.357 5.35-5.422s2.098-4.258 2.465-6.578c.37-2.318.322-4.71-.14-7.17s-1.323-4.867-2.58-7.223l4.673-3.162c1.728 3.243 2.862 6.45 3.405 9.624s.518 6.197-.078 9.07c-.594 2.875-1.762 5.568-3.502 8.08-1.74 2.514-4.053 4.746-6.94 6.7-3.85 2.605-7.704 4.192-11.56 4.763-3.855.572-7.537.338-11.043-.697s-6.78-2.762-9.818-5.182-5.707-5.324-8.002-8.717c-2.293-3.39-3.998-6.946-5.113-10.67-1.114-3.72-1.51-7.413-1.18-11.075s1.474-7.176 3.438-10.545c1.965-3.365 4.873-6.352 8.723-8.955 2.34-1.582 4.85-2.78 7.538-3.596s5.395-1.16 8.12-1.034c2.726.127 5.36.766 7.91 1.914 2.546 1.15 4.85 2.898 6.905 5.248l-4.674 3.162c-1.684-1.6-3.5-2.826-5.448-3.68zM1106.32 1081.318l19.25 17.072 23.352-26.328-19.25-17.072 3.746-4.223 44.336 39.322-3.746 4.222-21.484-19.055-23.352 26.328 21.484 19.055-3.744 4.223-44.336-39.322 3.744-4.222z"/>
        <g>
            <path d="M85.646 897.945c-1.248 1.723-2.135 3.566-2.66 5.533a18.54 18.54 0 0 0-.578 6.04 19.94 19.94 0 0 0 1.41 6.1c1.458 3.647 3.404 6.503 5.84 8.57 2.434 2.063 5.13 3.476 8.082 4.23 2.955.757 6.03.956 9.225.603a35.576 35.576 0 0 0 9.34-2.35 35.67 35.67 0 0 0 8.348-4.722c2.585-1.957 4.687-4.227 6.305-6.81 1.62-2.585 2.598-5.464 2.938-8.64s-.22-6.586-1.68-10.234c-1.025-2.568-2.413-4.695-4.16-6.38s-3.712-2.956-5.9-3.81c-2.19-.854-4.534-1.316-7.037-1.39-2.502-.07-5.038.26-7.607.987l-2.095-5.24c3.535-.995 6.91-1.423 10.126-1.278 3.217.145 6.166.812 8.847 2.006 2.684 1.193 5.066 2.906 7.15 5.14 2.087 2.237 3.776 4.972 5.07 8.21 1.726 4.314 2.457 8.418 2.195 12.307-.263 3.89-1.273 7.438-3.03 10.643-1.758 3.205-4.142 6.035-7.153 8.49-3.01 2.455-6.417 4.443-10.22 5.965-3.802 1.52-7.64 2.428-11.514 2.725-3.873.297-7.564-.104-11.073-1.203s-6.698-2.967-9.57-5.604c-2.87-2.636-5.17-6.112-6.897-10.427-1.047-2.62-1.684-5.33-1.91-8.13s.016-5.52.72-8.155 1.89-5.074 3.553-7.32c1.667-2.244 3.865-4.12 6.6-5.63l2.094 5.24c-1.924 1.305-3.51 2.82-4.758 4.537zM42.204 773.758L97.3 741.875l.91 5.99-17.13 9.908 4.053 26.668 19.29 4.288.898 5.908-62.17-14.643-.946-6.235zm34.402-13.373l-28.312 15.89 31.817 7.167-3.504-23.057zM37.473 627.077c.176-2.428.647-4.71 1.41-6.847.768-2.136 1.83-3.973 3.19-5.51s3.054-2.72 5.082-3.545c2.03-.822 4.368-1.14 7.018-.947 3.754.27 6.94 1.474 9.56 3.604 2.62 2.132 4.177 5.13 4.674 8.993l.165.012c.417-1.91 1.042-3.475 1.88-4.69.836-1.215 1.863-2.18 3.08-2.897 1.217-.716 2.598-1.198 4.14-1.448 1.546-.248 3.204-.363 4.978-.347.998.018 2.217.05 3.655.1 1.44.048 2.896.042 4.37-.018a26.76 26.76 0 0 0 4.195-.487c1.323-.264 2.366-.674 3.127-1.23l-.45 6.21c-.574.29-1.27.505-2.085.64-.813.136-1.65.213-2.513.233-.862.02-1.71.03-2.54.024-.833-.004-1.554 0-2.166.01-2.104-.04-4.2-.013-6.29.086-2.086.098-3.973.49-5.66 1.17a9.814 9.814 0 0 0-4.183 3.193c-1.103 1.446-1.694 3.497-1.776 6.154l-1.547 21.357 26.242 1.9-.408 5.63-59.107-4.28 1.958-27.07zm28.034 2.446a15.12 15.12 0 0 0-.433-4.94c-.412-1.583-1.073-2.99-1.983-4.223-.908-1.23-2.042-2.24-3.4-3.033s-2.945-1.254-4.767-1.386c-3.643-.263-6.587.578-8.837 2.523-2.25 1.946-3.53 5.07-3.842 9.375l-1.522 21.026 23.263 1.685 1.522-21.027zM65.563 484.132c.78-2.54 1.846-4.73 3.194-6.572 1.35-1.843 2.952-3.29 4.808-4.34 1.857-1.048 3.913-1.66 6.167-1.836 2.254-.175 4.65.128 7.188.91 2.538.78 4.69 1.876 6.456 3.288 1.767 1.412 3.122 3.074 4.067 4.985.947 1.913 1.46 4.01 1.54 6.292.078 2.28-.272 4.69-1.053 7.23l-6.076 19.754 24.275 7.467-1.66 5.396-56.642-17.426 7.735-25.148zm27.4 9.73c1.155-3.754 1.14-7.088-.05-10-1.188-2.914-3.738-4.972-7.652-6.176-3.913-1.204-7.18-.935-9.8.806-2.62 1.743-4.507 4.49-5.662 8.245l-5.71 18.563 23.165 7.125 5.71-18.563zM119.416 361.266l63.047 8.787-2.97 5.282-19.6-2.736-13.22 23.512 12.56 15.252-2.928 5.21-39.98-49.81 3.09-5.498zm35.345 10.636l-32.093-4.904 20.663 25.234 11.43-20.33zM210.61 237.338l3.618 3.174L200.6 256.05l40.935 35.9-3.722 4.244-40.935-35.902-13.572 15.476-3.62-3.174 30.923-35.256zM286.673 168.763l15.14 20.804 28.455-20.708-15.14-20.805 4.563-3.32 34.872 47.915-4.562 3.322-16.898-23.22-28.454 20.708 16.898 23.22-4.564 3.32-34.872-47.916 4.563-3.32zM414.372 92.36l24.66 53.887-5.13 2.35-24.662-53.888 5.132-2.35zM533.636 51.998l36.306 52.287-5.895 1.4-11.284-16.258-26.244 6.234-2.688 19.578-5.814 1.38 9.48-63.162 6.138-1.458zm16.157 33.186l-18.164-26.91-4.528 32.3 22.69-5.39zM658.24 35.672l35.336 49.566.166-.003-.812-50.125 5.643-.092.96 59.254-6.306.102L657.89 44.81l-.166.002.812 50.125-5.643.09-.96-59.253 6.307-.102zM917.762 80.497l-2.654 55.493 39.426-39.524 7.613 3.306-23.607 54.357-5.176-2.25 20.398-46.973-.152-.066-38.975 38.906-4.873-2.116 2.51-54.742-.152-.066-20.4 46.972-5.176-2.248L910.15 77.19l7.612 3.307zM1039.414 166.216c3.176-2.236 6.555-3.778 10.133-4.628 3.576-.85 7.273-.875 11.09-.078 3.814.797 7.568 2.608 11.258 5.435s6.404 5.97 8.146 9.43c1.74 3.46 2.67 7.026 2.78 10.702.11 3.676-.498 7.34-1.83 10.988-1.332 3.65-3.242 7.1-5.732 10.35s-5.324 5.995-8.5 8.23c-3.178 2.237-6.547 3.77-10.107 4.595-3.56.827-7.237.85-11.03.07-3.795-.78-7.535-2.582-11.227-5.41-3.69-2.826-6.416-5.978-8.178-9.454-1.766-3.477-2.71-7.04-2.838-10.695-.13-3.652.473-7.304 1.805-10.954 1.33-3.65 3.242-7.1 5.732-10.35s5.322-5.993 8.5-8.23zm-8.777 19.99c-1.22 3.003-1.867 6.03-1.936 9.078-.07 3.048.563 6.023 1.894 8.926 1.332 2.902 3.557 5.547 6.676 7.937 3.12 2.39 6.242 3.84 9.37 4.354 3.126.514 6.15.34 9.077-.52 2.924-.862 5.678-2.273 8.26-4.233s4.85-4.214 6.8-6.762a35.686 35.686 0 0 0 4.784-8.36c1.204-2.98 1.84-5.996 1.91-9.044.07-3.047-.55-6.015-1.86-8.9-1.31-2.884-3.523-5.52-6.643-7.91-3.12-2.39-6.252-3.85-9.4-4.38s-6.188-.363-9.11.498c-2.927.86-5.67 2.26-8.235 4.2a35.568 35.568 0 0 0-6.826 6.794 35.574 35.574 0 0 0-4.76 8.324zM1168.21 259.295l-28.435 23.183c-2.658 2.168-4.676 4.312-6.05 6.434-1.378 2.12-2.185 4.242-2.42 6.36-.235 2.12.062 4.235.89 6.345.828 2.11 2.098 4.215 3.812 6.316 1.748 2.144 3.57 3.834 5.47 5.07 1.9 1.235 3.913 1.95 6.036 2.147 2.123.196 4.363-.167 6.72-1.087 2.353-.92 4.86-2.464 7.52-4.633l28.433-23.183 3.566 4.374-29.398 23.97c-2.357 1.924-4.87 3.418-7.535 4.485-2.665 1.065-5.378 1.528-8.134 1.385-2.76-.143-5.518-.964-8.275-2.464-2.755-1.5-5.446-3.857-8.07-7.074-2.587-3.174-4.337-6.262-5.25-9.265s-1.163-5.87-.747-8.6c.414-2.73 1.412-5.294 2.994-7.69 1.58-2.396 3.55-4.555 5.908-6.478l29.398-23.97 3.566 4.375zM1251.977 383.066l-29.998 52.967.07.15 45.09-21.913 2.468 5.076-53.303 25.902-2.756-5.673 29.997-52.967-.072-.15-45.09 21.913-2.467-5.075 53.3-25.903 2.76 5.674zM1312.547 556.346l-4.69 1.09-4.67-20.133-53.038 12.31-1.278-5.5 53.04-12.308-4.655-20.05 4.69-1.09 10.6 45.68zM1323.842 669.89l-58.78 24.432-.124-6.06 18.277-7.59-.545-26.97-18.566-6.765-.12-5.975 59.73 22.62.128 6.308zm-35.852 8.777l30.14-12.064-30.61-11.254.47 23.317zM1313.79 793.953l-58.378-10.195.97-5.56 58.38 10.194-.97 5.56zM1285.79 899.088l-59.282 13.826-.06.154 46.665 18.314-2.06 5.254-55.167-21.65 2.305-5.87 59.282-13.827.06-.155-46.667-18.316 2.062-5.255 55.166 21.65-2.304 5.873z"/>
        </g>
    </g>
</svg>
