<svg xmlns="http://www.w3.org/2000/svg" width="50" height="50.005" viewBox="0 0 50 50.005">
    <g fill="#FFF">
        <path d="M24.998 2.23A22.706 22.706 0 0 1 41.1 8.9a22.695 22.695 0 0 1 6.653 17 60.403 60.403 0 0 1-.61-.354l-.06-.034-.106-.064-.02-.013c-.13-.08-.272-.164-.442-.268-2.848-1.74-5.002-3.285-6.78-4.857a3.25 3.25 0 0 0-2.195-.813c-.397 0-.75.062-1.045.123a43.855 43.855 0 0 1-3.035.494 60.51 60.51 0 0 1-3.967.37 71.52 71.52 0 0 1-3.326.13 81.022 81.022 0 0 1-3.777-3.55v-.002h-.002l-.29-.292-.016-.016a.864.864 0 0 1-.03-.03l-.004-.005a3.2 3.2 0 0 0-.058-.06l-.052-.054c-.188-.193-.38-.39-.567-.587a44.47 44.47 0 0 1-1.024-1.104c-.703-.79-1.68-1.245-2.676-1.245-.483 0-.952.105-1.392.31A164.773 164.773 0 0 1 2.9 19.498 22.718 22.718 0 0 1 9.565 8.263 22.685 22.685 0 0 1 24.998 2.23m0-2.23C11.918 0 1.183 10.045.088 22.84a165.784 165.784 0 0 0 17.128-6.837c.148-.07.3-.1.45-.1.383 0 .75.203 1.008.495.35.395.714.78 1.08 1.16.192.204.387.405.582.605l.114.117.036.036.32.323a83.997 83.997 0 0 0 4.55 4.23c.082-.01.167.082.253.08-.107 0-.295.098-.216.098h.014c.083 0 .167-.1.25-.1.296 0 .592-.054.89-.06 1.027-.023 2.055-.09 3.08-.155a64.293 64.293 0 0 0 4.112-.396c.715-.092 1.43-.203 2.14-.328.354-.063.708-.132 1.06-.205.196-.04.397-.078.594-.078.254 0 .5.06.717.25 2.173 1.924 4.626 3.58 7.095 5.09.153.094.306.188.46.28l.14.083.055.033a58.642 58.642 0 0 0 3.608 1.96 25.2 25.2 0 0 0 .39-4.424c.002-13.806-11.192-25-25-25z"/>
        <path d="M43.563 28.86c-2.222-1.377-4.438-2.866-6.428-4.576-2.498.5-5.044.76-7.585.903-.423.024-.847.044-1.27.062a47.16 47.16 0 0 0 4.34 2.986l.09.052a33.434 33.434 0 0 0 1.3.728c.624.328 1.257.635 1.903.915.158.07.294.168.406.287-5.787-.75-11.287-4.53-12.498-5.405-2.25-1.93-4.43-3.98-6.438-6.165-1.434.66-2.877 1.3-4.33 1.916A166.34 166.34 0 0 1 0 25.473c.25 13.592 11.347 24.532 24.998 24.532 11.418 0 21.048-7.654 24.04-18.11a62.922 62.922 0 0 1-5.475-3.036z"/>
    </g>
</svg>
