<svg xmlns="http://www.w3.org/2000/svg" width="75" height="98.035" viewBox="0 0 75 98.035">
    <path fill="#FFF" d="M69 81.296c0 .94-.763 1.704-1.704 1.704H2.704C1.764 83 1 82.237 1 81.296V2.704C1 1.764 1.763 1 2.704 1h64.592C68.236 1 69 1.763 69 2.704v78.592z"/>
    <path fill="#727272" d="M71 81.932A3.07 3.07 0 0 1 67.932 85H3.068A3.07 3.07 0 0 1 0 81.932V3.068A3.07 3.07 0 0 1 3.068 0H67.93A3.07 3.07 0 0 1 71 3.068v78.864zm-3-78.59A.34.34 0 0 0 67.66 3H3.34a.34.34 0 0 0-.34.34v78.32c0 .188.152.34.34.34h64.32a.34.34 0 0 0 .34-.34V3.34z"/>
    <path fill="#2196F3" d="M13.932 14.132c.24-.14.52-.05.705.126a34.93 34.93 0 0 0 .858.764c.02.018.04.035.06.05l.018.018.166.14a39.08 39.08 0 0 0 2.322 1.813.897.897 0 0 1 .118-.018.846.846 0 0 1-.095.008c.04-.002.078-.006.117-.01.14-.01.28-.03.42-.044a35.67 35.67 0 0 0 1.45-.19 29.835 29.835 0 0 0 1.923-.352c.334-.073.667-.152.998-.24.164-.044.328-.09.49-.14.21-.06.433-.115.628.03 1.105.818 2.332 1.5 3.56 2.11.077.038.152.076.23.113l.07.033a.8.8 0 0 1 .026.013c.138.065.275.13.414.193a25.394 25.394 0 0 0 1.37.584c.062-.69.063-1.393 0-2.105-.57-6.52-6.315-11.34-12.834-10.77-6.176.54-10.83 5.726-10.818 11.813a79.035 79.035 0 0 0 7.804-3.936z"/>
    <path fill="#8BC34A" d="M26.9 19.113c-1.104-.558-2.213-1.17-3.224-1.895-1.158.34-2.35.567-3.543.74-.198.03-.397.056-.597.082l.19.12c.596.372 1.205.723 1.832 1.037l.15.074c.01.005.027.015.044.022.065.03.13.062.193.09a13.572 13.572 0 0 0 1.39.552.605.605 0 0 1 .202.12c-2.763-.116-5.516-1.672-6.123-2.036a35.912 35.912 0 0 1-3.295-2.645 79.11 79.11 0 0 1-7.926 3.94c.68 6.406 6.37 11.113 12.813 10.55 5.39-.473 9.62-4.483 10.602-9.543a30.16 30.16 0 0 1-2.71-1.207z"/>
    <path fill="#BBDEFB" d="M34 9h31v7H34zM34 19h31v7H34zM6 61h59v17H6zM6 38h59v17H6z"/>
    <path fill="#727272" d="M72 4.258v78.41C72 84.36 70.684 86 68.988 86H4.216c0 1 1.374 3 3.068 3h64.772C73.752 89 75 87.43 75 85.735V7.325c0-1.693-1-3.067-3-3.067z"/>
</svg>
