<svg xmlns="http://www.w3.org/2000/svg" width="50" height="50.005" viewBox="0 0 50 50.005">
    <path fill="#2196F3" d="M17.216 16.003c.53-.247 1.098-.01 1.46.396a66.687 66.687 0 0 0 1.662 1.765l.114.116c.013.015.026.027.036.037l.32.323a83.997 83.997 0 0 0 1.63 1.587c.95.903 1.924 1.885 2.92 2.74.082-.01.167.08.253.08h-.2.25c.296 0 .592-.103.89-.11 1.027-.02 2.055-.113 3.08-.178a63.616 63.616 0 0 0 4.112-.41 46.85 46.85 0 0 0 2.14-.333c.354-.062.708-.134 1.06-.207.45-.092.928-.167 1.312.172 2.172 1.923 4.625 3.58 7.094 5.09l.46.278.14.084.055.032a58.67 58.67 0 0 0 3.608 1.96 25.2 25.2 0 0 0 .39-4.424C50 11.194 38.807 0 25 0 11.918 0 1.183 10.045.088 22.842a165.926 165.926 0 0 0 17.128-6.84z"/>
    <path fill="#8BC34A" d="M43.563 28.86c-2.22-1.377-4.438-2.866-6.428-4.576-2.497.5-5.044.76-7.584.903-.422.024-.846.044-1.27.062.126.096.252.192.38.287 1.183.89 2.398 1.74 3.66 2.515l.3.183.09.053.39.227a27.957 27.957 0 0 0 2.815 1.416c.157.068.294.167.406.286-5.785-.75-11.286-4.53-12.496-5.405-2.25-1.93-4.43-3.98-6.438-6.165-1.434.66-2.876 1.3-4.33 1.916A166.836 166.836 0 0 1 0 25.473c.25 13.592 11.347 24.532 24.998 24.532 11.418 0 21.048-7.654 24.04-18.11a62.922 62.922 0 0 1-5.475-3.036z"/>
</svg>
