<svg xmlns="http://www.w3.org/2000/svg" width="1365.947" height="1366.65" viewBox="0 0 1365.947 1366.65">
    <path fill="#FFF" d="M682.975 1354.465c-90.605 0-178.498-17.744-261.237-52.74-79.92-33.803-151.694-82.194-213.332-143.832-61.638-61.638-110.03-133.413-143.833-213.33-34.996-82.74-52.74-170.634-52.74-261.238 0-90.604 17.744-178.497 52.74-261.236 33.803-79.92 82.195-151.694 143.833-213.332C270.044 147.12 341.82 98.728 421.738 64.925c82.74-34.996 170.632-52.74 261.237-52.74 90.604 0 178.498 17.744 261.237 52.74 79.918 33.803 151.693 82.195 213.33 143.833s110.03 133.413 143.833 213.33c34.996 82.74 52.74 170.632 52.74 261.237s-17.744 178.498-52.74 261.237c-33.803 79.918-82.194 151.693-143.832 213.33s-133.413 110.03-213.33 143.833c-82.74 34.996-170.634 52.74-261.238 52.74z"/>
    <path fill="#212121" d="M682.975 15.684c90.134 0 177.568 17.65 259.874 52.464 39.558 16.732 77.713 37.442 113.404 61.555a672.493 672.493 0 0 1 98.814 81.53 672.487 672.487 0 0 1 81.528 98.813c24.113 35.69 44.823 73.846 61.555 113.405 34.813 82.307 52.465 169.74 52.465 259.874 0 90.134-17.65 177.568-52.464 259.874-16.73 39.56-37.44 77.714-61.554 113.405a672.438 672.438 0 0 1-81.528 98.813 672.42 672.42 0 0 1-98.814 81.53c-35.69 24.112-73.847 44.822-113.405 61.554-82.307 34.812-169.74 52.464-259.875 52.464-90.134 0-177.568-17.65-259.874-52.464-39.558-16.73-77.713-37.44-113.405-61.555a672.43 672.43 0 0 1-98.814-81.53 672.422 672.422 0 0 1-81.528-98.812c-24.113-35.69-44.823-73.847-61.555-113.405-34.812-82.306-52.464-169.74-52.464-259.874 0-90.133 17.65-177.567 52.464-259.873 16.732-39.558 37.442-77.713 61.555-113.404a672.493 672.493 0 0 1 81.53-98.814 672.493 672.493 0 0 1 98.813-81.53C345.385 105.59 383.542 84.88 423.1 68.15c82.306-34.813 169.74-52.464 259.875-52.464m0-7c-372.594 0-674.643 302.05-674.643 674.64 0 372.595 302.05 674.642 674.643 674.642s674.64-302.047 674.64-674.64c0-372.592-302.047-674.642-674.64-674.642z"/>
    <path fill="#FFF" d="M682.973 1238.973c-75.01 0-147.776-14.69-216.275-43.662-66.163-27.983-125.584-68.047-176.613-119.075-51.03-51.03-91.092-110.45-119.077-176.613-28.972-68.498-43.662-141.263-43.662-216.273 0-75.012 14.69-147.778 43.662-216.276 27.985-66.164 68.048-125.585 119.077-176.615 51.03-51.03 110.45-91.093 176.613-119.078 68.5-28.973 141.264-43.663 216.275-43.663 75.01 0 147.775 14.69 216.274 43.662 66.163 27.985 125.585 68.048 176.614 119.077 51.03 51.028 91.094 110.45 119.078 176.614 28.973 68.5 43.663 141.264 43.663 216.275 0 75.01-14.69 147.774-43.662 216.272-27.984 66.163-68.048 125.584-119.077 176.613-51.028 51.028-110.45 91.092-176.613 119.076-68.5 28.973-141.264 43.663-216.274 43.663z"/>
    <path fill="#212121" d="M682.973 131.218c74.54 0 146.846 14.597 214.91 43.386a552.125 552.125 0 0 1 93.785 50.905 556.182 556.182 0 0 1 81.72 67.423 556.25 556.25 0 0 1 67.423 81.718c19.94 29.518 37.068 61.07 50.905 93.786 28.79 68.065 43.387 140.372 43.387 214.912s-14.598 146.846-43.387 214.91a552.172 552.172 0 0 1-50.904 93.783 556.196 556.196 0 0 1-67.423 81.72 556.078 556.078 0 0 1-81.72 67.423c-29.516 19.94-61.07 37.067-93.784 50.904-68.064 28.79-140.37 43.386-214.91 43.386s-146.847-14.597-214.91-43.386c-32.715-13.837-64.27-30.964-93.785-50.904a556.122 556.122 0 0 1-81.718-67.424 556.03 556.03 0 0 1-67.424-81.72 552.14 552.14 0 0 1-50.904-93.782c-28.79-68.064-43.386-140.37-43.386-214.91 0-74.54 14.597-146.847 43.386-214.912a552.196 552.196 0 0 1 50.904-93.785 556.07 556.07 0 0 1 67.424-81.717 556.08 556.08 0 0 1 81.718-67.424 552.154 552.154 0 0 1 93.784-50.906c68.064-28.79 140.37-43.386 214.91-43.386m0-7c-308.798 0-559.126 250.33-559.126 559.13 0 308.797 250.328 559.125 559.127 559.125 308.797 0 559.13-250.328 559.13-559.125 0-308.8-250.333-559.13-559.13-559.13z"/>
    <g fill="#212121">
        <path d="M223.808 1075.8c3.502-1.678 7.088-2.64 10.758-2.887 3.67-.246 7.318.34 10.95 1.757 3.63 1.417 7.033 3.824 10.205 7.223 3.172 3.397 5.33 6.946 6.476 10.646 1.144 3.7 1.468 7.37.97 11.014-.497 3.645-1.705 7.155-3.62 10.534-1.92 3.38-4.374 6.466-7.367 9.26-2.995 2.794-6.243 5.03-9.746 6.71-3.503 1.682-7.08 2.635-10.728 2.86s-7.28-.357-10.892-1.755c-3.612-1.396-7.004-3.794-10.176-7.19-3.172-3.4-5.34-6.96-6.503-10.678-1.165-3.72-1.507-7.393-1.03-11.018.478-3.624 1.674-7.126 3.592-10.505 1.917-3.38 4.372-6.466 7.366-9.26 2.994-2.793 6.242-5.03 9.745-6.71zm-11.963 18.264c-1.7 2.76-2.838 5.638-3.41 8.633-.574 2.994-.443 6.033.39 9.115.834 3.083 2.59 6.06 5.272 8.932 2.68 2.872 5.52 4.82 8.52 5.843 2.998 1.023 6.01 1.353 9.038.987 3.026-.365 5.975-1.302 8.847-2.808a35.764 35.764 0 0 0 7.825-5.544 35.662 35.662 0 0 0 6.1-7.454c1.68-2.74 2.805-5.61 3.38-8.604.57-2.995.45-6.024-.363-9.086-.815-3.062-2.562-6.03-5.243-8.9-2.68-2.873-5.53-4.83-8.546-5.874-3.018-1.044-6.042-1.383-9.067-1.017-3.028.365-5.966 1.29-8.816 2.78a35.57 35.57 0 0 0-7.854 5.57 35.714 35.714 0 0 0-6.07 7.427zM349.257 1164.815l-20.02 30.742c-1.872 2.876-3.14 5.532-3.804 7.972-.665 2.438-.786 4.705-.364 6.795.42 2.09 1.347 4.015 2.778 5.77 1.43 1.76 3.282 3.376 5.554 4.855 2.318 1.51 4.57 2.564 6.756 3.162 2.186.6 4.32.668 6.402.207 2.082-.46 4.104-1.488 6.067-3.082 1.962-1.595 3.88-3.828 5.752-6.704l20.018-30.742 4.73 3.08-20.7 31.785c-1.66 2.55-3.597 4.74-5.81 6.566-2.214 1.827-4.656 3.094-7.326 3.797-2.672.704-5.548.763-8.63.174s-6.365-2.015-9.843-4.28c-3.433-2.234-6.04-4.643-7.826-7.224-1.785-2.582-2.896-5.237-3.332-7.964-.438-2.728-.267-5.473.51-8.236.775-2.764 1.994-5.42 3.655-7.97l20.7-31.786 4.73 3.08zM506.2 1242.17l-1.635 4.53-19.44-7.02-18.487 51.214-5.31-1.916 18.49-51.214-19.362-6.99 1.634-4.526 44.11 15.923zM619.525 1265.456c2.418.283 4.676.854 6.777 1.713 2.1.858 3.888 2 5.365 3.427 1.476 1.427 2.58 3.173 3.314 5.235.733 2.063.947 4.414.638 7.053-.438 3.737-1.78 6.867-4.024 9.39-2.247 2.522-5.31 3.946-9.19 4.27l-.02.166c1.89.502 3.424 1.195 4.602 2.086 1.177.89 2.096 1.958 2.758 3.206.66 1.247 1.082 2.647 1.263 4.2.18 1.555.222 3.217.126 4.987a235.99 235.99 0 0 1-.26 3.645 58.194 58.194 0 0 0-.177 4.367 26.85 26.85 0 0 0 .3 4.213c.206 1.334.568 2.394 1.09 3.18l-6.183-.726c-.266-.588-.448-1.293-.547-2.112-.1-.818-.14-1.66-.123-2.52.018-.862.046-1.71.088-2.54.043-.83.07-1.55.087-2.162.134-2.1.2-4.196.193-6.286s-.313-3.992-.92-5.707a9.798 9.798 0 0 0-3.003-4.32c-1.396-1.167-3.418-1.85-6.07-2.05l-21.268-2.49-3.062 26.133-5.605-.656 6.893-58.86 26.96 3.156zm-3.685 27.897a15.1 15.1 0 0 0 4.956-.213c1.6-.342 3.035-.94 4.305-1.794a11.19 11.19 0 0 0 3.183-3.263c.85-1.32 1.383-2.89 1.595-4.702.425-3.626-.286-6.605-2.13-8.94-1.844-2.33-4.908-3.75-9.195-4.25l-20.94-2.453-2.71 23.164 20.937 2.453zM771.334 1262.634l.54 4.784-35.056 3.944 2.396 21.28 32.827-3.694.54 4.784-32.828 3.693 2.617 23.26 35.466-3.99.538 4.782-41.075 4.623-6.628-58.89 40.662-4.576zM882.65 1233.916l41.764 48.04-5.71 2.03-12.98-14.937-25.413 9.043-.545 19.753-5.63 2.004 2.572-63.818 5.942-2.116zm19.662 31.237l-20.977-24.78-.996 32.6 21.972-7.82zM1024.583 1173.734c-1.935-.882-3.918-1.386-5.95-1.51a18.54 18.54 0 0 0-6.036.628 19.934 19.934 0 0 0-5.696 2.59c-3.286 2.15-5.7 4.625-7.243 7.42s-2.392 5.72-2.547 8.763c-.156 3.045.256 6.1 1.236 9.16a35.558 35.558 0 0 0 4.152 8.69 35.693 35.693 0 0 0 6.282 7.246c2.43 2.147 5.07 3.758 7.925 4.832 2.854 1.076 5.87 1.464 9.05 1.168 3.18-.296 6.41-1.52 9.698-3.672 2.314-1.516 4.125-3.296 5.432-5.342 1.305-2.045 2.16-4.225 2.563-6.54.403-2.312.392-4.704-.032-7.17-.425-2.467-1.25-4.888-2.473-7.262l4.722-3.092c1.677 3.268 2.763 6.492 3.258 9.673.496 3.182.425 6.205-.213 9.068-.638 2.865-1.846 5.54-3.624 8.027-1.778 2.487-4.124 4.686-7.04 6.595-3.89 2.546-7.767 4.076-11.63 4.59-3.864.513-7.54.225-11.03-.863s-6.737-2.864-9.74-5.33c-3.003-2.464-5.626-5.41-7.87-8.836-2.242-3.425-3.893-7.007-4.95-10.745s-1.397-7.435-1.015-11.093c.384-3.656 1.583-7.152 3.6-10.49 2.014-3.336 4.966-6.278 8.854-8.824a27.782 27.782 0 0 1 7.59-3.482c2.7-.774 5.412-1.077 8.135-.91 2.722.17 5.35.847 7.878 2.033 2.53 1.188 4.807 2.972 6.828 5.352l-4.723 3.092c-1.66-1.625-3.456-2.88-5.39-3.763zM1099.64 1095.09l18.83 17.534 23.98-25.755-18.83-17.535 3.848-4.13 43.37 40.386-3.848 4.132-21.016-19.57-23.983 25.753 21.018 19.57-3.846 4.132-43.37-40.387 3.847-4.13z"/>
        <g>
            <path d="M69.274 837.083c-1.425 1.578-2.504 3.317-3.237 5.217-.73 1.9-1.14 3.882-1.223 5.944a19.97 19.97 0 0 0 .75 6.212c1.06 3.784 2.688 6.832 4.888 9.146 2.2 2.314 4.73 4.007 7.583 5.074 2.856 1.067 5.892 1.597 9.106 1.587a35.644 35.644 0 0 0 9.54-1.335 35.777 35.777 0 0 0 8.805-3.802c2.78-1.67 5.113-3.7 6.998-6.097 1.887-2.397 3.168-5.155 3.846-8.275s.486-6.57-.574-10.355c-.746-2.664-1.897-4.927-3.453-6.79-1.556-1.862-3.375-3.335-5.46-4.418-2.084-1.083-4.367-1.795-6.847-2.134-2.48-.34-5.036-.284-7.668.164l-1.522-5.435c3.622-.61 7.023-.674 10.205-.186 3.184.488 6.044 1.47 8.582 2.94 2.54 1.475 4.725 3.434 6.56 5.88 1.833 2.445 3.22 5.346 4.16 8.703 1.254 4.476 1.542 8.634.864 12.472-.677 3.84-2.062 7.257-4.153 10.256-2.09 3-4.764 5.56-8.02 7.678-3.257 2.118-6.856 3.73-10.8 4.834-3.943 1.104-7.856 1.597-11.74 1.478-3.882-.12-7.51-.914-10.88-2.383-3.372-1.47-6.343-3.668-8.917-6.598-2.572-2.93-4.485-6.63-5.74-11.107a27.77 27.77 0 0 1-1.027-8.288 23.962 23.962 0 0 1 1.586-8.03 21.534 21.534 0 0 1 4.317-6.896c1.896-2.054 4.284-3.686 7.163-4.895l1.522 5.435c-2.05 1.092-3.788 2.427-5.214 4.003zM39.652 716.06l57.88-26.5.335 6.05-17.996 8.234 1.5 26.934 18.795 6.103.333 5.968-60.495-20.49-.35-6.3zm35.52-10.042l-29.695 13.125 30.99 10.162-1.296-23.287zM47.62 576.514c.38-2.404 1.042-4.638 1.984-6.703.943-2.06 2.156-3.803 3.64-5.22 1.485-1.418 3.274-2.452 5.365-3.103 2.09-.648 4.448-.767 7.07-.353 3.718.588 6.79 2.055 9.22 4.4 2.432 2.345 3.73 5.463 3.9 9.354l.164.026c.577-1.87 1.332-3.374 2.27-4.516.936-1.14 2.04-2.016 3.313-2.627 1.273-.61 2.69-.973 4.248-1.092 1.56-.117 3.222-.092 4.988.074a246.4 246.4 0 0 1 3.633.407c1.43.17 2.883.286 4.356.352a26.93 26.93 0 0 0 4.222-.13c1.34-.152 2.415-.473 3.22-.963l-.973 6.148c-.597.24-1.308.396-2.13.46-.823.067-1.664.074-2.525.022a81.693 81.693 0 0 1-2.533-.19c-.83-.074-1.547-.13-2.157-.173-2.094-.218-4.186-.367-6.274-.445s-4 .152-5.738.688a9.798 9.798 0 0 0-4.438 2.827c-1.222 1.35-1.984 3.342-2.29 5.982l-3.346 21.15 25.988 4.11-.88 5.574-58.536-9.257 4.24-26.803zm27.727 4.805a15.114 15.114 0 0 0-.014-4.96c-.277-1.612-.817-3.07-1.62-4.375a11.19 11.19 0 0 0-3.13-3.31c-1.287-.903-2.83-1.498-4.635-1.783-3.607-.57-6.613.02-9.02 1.767-2.404 1.748-3.944 4.753-4.618 9.017L49.017 598.5l23.037 3.643 3.293-20.824zM85.123 442.957c.967-2.474 2.192-4.58 3.673-6.317 1.482-1.737 3.188-3.06 5.118-3.97 1.93-.907 4.025-1.366 6.286-1.374 2.26-.007 4.628.474 7.1 1.44 2.475.968 4.54 2.22 6.195 3.76 1.657 1.54 2.885 3.298 3.686 5.273.803 1.977 1.158 4.105 1.067 6.388s-.62 4.66-1.586 7.133l-7.527 19.25 23.653 9.25-2.056 5.256-55.19-21.587 9.583-24.503zm26.6 11.74c1.432-3.658 1.663-6.983.695-9.978-.97-2.993-3.358-5.236-7.173-6.728-3.813-1.49-7.09-1.466-9.833.075-2.742 1.543-4.83 4.143-6.26 7.8l-7.073 18.09 22.57 8.827 7.074-18.087zM144.005 330.337l62.37 12.734-3.297 5.085-19.39-3.963-14.672 22.635 11.58 16.013-3.25 5.015-36.772-52.224 3.43-5.293zm34.606 12.84l-31.72-6.914 19.035 26.483 12.686-19.57zM237.652 217.222l3.45 3.356-14.412 14.812 39.024 37.97-3.936 4.046-39.024-37.97L208.4 254.19l-3.45-3.357 32.702-33.61zM311.394 156.707l14.274 21.407 29.28-19.524-14.275-21.407 4.696-3.13 32.876 49.305-4.696 3.13-15.932-23.892-29.28 19.523 15.933 23.893-4.695 3.13-32.877-49.305 4.696-3.13zM435.62 88.292l23.012 54.61-5.2 2.193-23.014-54.61 5.202-2.193zM549.146 53.002l35.283 52.982-5.922 1.286-10.966-16.476-26.36 5.724-3.067 19.52-5.84 1.27 10.707-62.968 6.164-1.338zm15.51 33.495l-17.64-27.257-5.153 32.205 22.792-4.948zM668.252 38.812l33.71 50.686.167.003.81-50.125 5.644.092-.96 59.254-6.308-.102-33.71-50.685-.166-.003-.812 50.126-5.644-.092.96-59.254 6.308.102zM913.016 81.053l-1.908 55.524 38.89-40.05 7.657 3.203-22.875 54.67-5.206-2.178 19.766-47.243-.152-.064-38.45 39.425-4.9-2.05 1.773-54.77-.152-.063-19.766 47.242-5.207-2.18 22.874-54.67 7.656 3.203zM1030.115 161.302c3.12-2.312 6.46-3.937 10.018-4.872 3.556-.935 7.25-1.05 11.084-.346 3.834.704 7.63 2.425 11.387 5.16 3.758 2.737 6.548 5.813 8.372 9.23 1.823 3.417 2.837 6.96 3.038 10.632.2 3.673-.32 7.35-1.564 11.03s-3.07 7.175-5.48 10.484c-2.412 3.31-5.178 6.122-8.3 8.434-3.122 2.313-6.452 3.926-9.992 4.84s-7.216 1.024-11.026.336c-3.812-.688-7.596-2.4-11.354-5.137-3.757-2.736-6.56-5.822-8.405-9.254-1.848-3.435-2.878-6.975-3.096-10.624s.296-7.314 1.54-10.995 3.068-7.175 5.48-10.485c2.41-3.31 5.175-6.12 8.298-8.433zm-8.292 20.196c-1.147 3.032-1.72 6.073-1.715 9.122.003 3.05.706 6.008 2.108 8.877 1.4 2.87 3.69 5.46 6.865 7.773 3.177 2.312 6.333 3.688 9.472 4.125s6.16.19 9.062-.74c2.902-.932 5.62-2.41 8.156-4.432a35.75 35.75 0 0 0 6.635-6.924 35.673 35.673 0 0 0 4.58-8.475c1.13-3.01 1.693-6.04 1.69-9.088s-.696-6-2.075-8.853c-1.38-2.854-3.656-5.436-6.832-7.75s-6.344-3.695-9.504-4.148c-3.16-.454-6.194-.215-9.097.717-2.903.932-5.614 2.397-8.132 4.396-2.518 2-4.736 4.32-6.658 6.957a35.778 35.778 0 0 0-4.554 8.44zM1156.367 246.046l-27.605 24.163c-2.582 2.26-4.523 4.472-5.823 6.64-1.303 2.17-2.033 4.317-2.193 6.443-.162 2.127.21 4.23 1.11 6.31.9 2.08 2.243 4.138 4.03 6.18 1.82 2.08 3.703 3.706 5.645 4.874s3.977 1.813 6.107 1.935c2.127.122 4.353-.318 6.674-1.32 2.32-1.003 4.772-2.633 7.354-4.894l27.604-24.163 3.718 4.247-28.542 24.983c-2.29 2.005-4.748 3.586-7.374 4.744s-5.32 1.715-8.08 1.668c-2.763-.047-5.547-.77-8.355-2.173s-5.58-3.665-8.313-6.788c-2.697-3.08-4.555-6.106-5.573-9.075-1.02-2.97-1.368-5.826-1.048-8.57.318-2.742 1.228-5.34 2.724-7.788 1.495-2.45 3.39-4.676 5.68-6.68l28.54-24.984 3.717 4.246zM1240.905 360.663l-27.52 54.297.08.146 44.03-23.972 2.697 4.957-52.047 28.338-3.017-5.54 27.52-54.296-.08-.146-44.03 23.973-2.697-4.958 52.048-28.338 3.017 5.54zM1307.748 524.14l-4.62 1.354-5.817-19.83-52.245 15.326-1.588-5.416 52.246-15.327-5.795-19.75 4.62-1.356 13.2 45zM1324.938 629.86l-57.01 28.318-.527-6.036 17.727-8.8-2.353-26.872-18.978-5.505-.52-5.953 61.112 18.563.55 6.285zm-35.182 11.16l29.264-14.06-31.298-9.174 2.034 23.235zM1323.967 747.27l-59-5.57.53-5.62 59 5.572-.53 5.62zM1306.2 847.464l-57.792 19.117-.047.16 48.13 14.03-1.58 5.42-56.893-16.587 1.766-6.057 57.792-19.116.046-.16-48.127-14.03 1.58-5.42 56.894 16.588-1.766 6.056z"/>
        </g>
    </g>
    <g>
        <path fill="#2196F3" d="M526.01 501.505c10.69-4.977 22.143-.21 29.418 7.973 7.076 7.957 14.404 15.705 21.758 23.406 3.9 4.086 7.82 8.148 11.762 12.19.768.786 1.54 1.567 2.307 2.354.27.273.525.53.72.73 2.15 2.172 4.304 4.346 6.468 6.506a1700 1700 0 0 0 32.836 32.006c19.202 18.217 38.813 36.04 58.884 53.316 1.676-.23 3.39-.348 5.123-.357-2.246-.003-6.295-.022-4.047-.02 1.684 0 3.367-.003 5.05-.015 5.974-.035 11.946-.12 17.92-.248 20.73-.443 41.454-1.31 62.15-2.615 27.696-1.754 55.364-4.197 82.894-7.738 14.426-1.855 28.826-3.955 43.154-6.48 7.143-1.257 14.277-2.58 21.38-4.044 9.073-1.87 18.708-3.303 26.44 3.543 43.812 38.775 93.264 72.21 143.06 102.66 3.08 1.884 6.167 3.76 9.263 5.62l2.837 1.695a1209.988 1209.988 0 0 0 17.94 10.386c12.282 6.96 24.663 13.736 37.18 20.262a1262.25 1262.25 0 0 0 18.726 9.56c5.172-28.962 7.87-58.78 7.87-89.228 0-278.448-225.726-504.177-504.177-504.177-263.766 0-480.22 202.556-502.312 460.605 117.564-39.538 232.935-85.55 345.396-137.89z"/>
        <path fill="#8BC34A" d="M1057.3 760.74c-44.796-27.763-89.485-57.782-129.622-92.264-50.355 10.108-101.715 15.308-152.943 18.214-8.537.482-17.08.898-25.627 1.254 2.547 1.945 5.094 3.885 7.654 5.81 23.863 17.952 48.38 35.08 73.828 50.712 2.02 1.24 4.04 2.48 6.07 3.697.342.207 1.104.66 1.803 1.074a593.872 593.872 0 0 0 7.873 4.568c6.074 3.455 12.188 6.842 18.373 10.098 12.567 6.62 25.343 12.81 38.382 18.453a24.604 24.604 0 0 1 8.184 5.77c-116.672-15.12-227.588-91.323-252.004-108.995-45.35-38.92-89.312-80.277-129.83-124.312-28.918 13.283-58.008 26.188-87.305 38.623-86.33 36.65-174.19 69.737-263.29 99.04 5.07 274.058 228.806 494.667 504.077 494.667 230.242 0 424.434-154.338 484.77-365.195-37.8-18.498-74.63-39.045-110.395-61.21z"/>
    </g>
</svg>
