<svg xmlns="http://www.w3.org/2000/svg" width="300" height="300" viewBox="0 0 300 300">
    <circle fill="#FFF" cx="150" cy="150" r="149.446"/>
    <path fill="#212121" d="M150 300c-20.25 0-39.894-3.966-58.387-11.788-17.862-7.555-33.904-18.37-47.68-32.146-13.774-13.775-24.59-29.817-32.145-47.68C3.966 189.895 0 170.25 0 150s3.966-39.894 11.788-58.387c7.555-17.862 18.37-33.904 32.146-47.68s29.817-24.59 47.68-32.145C110.105 3.966 129.75 0 150 0s39.894 3.966 58.387 11.788c17.862 7.555 33.903 18.37 47.68 32.146 13.775 13.775 24.59 29.817 32.145 47.68C296.034 110.105 300 129.75 300 150s-3.966 39.894-11.788 58.387c-7.555 17.862-18.37 33.903-32.146 47.68-13.775 13.775-29.817 24.59-47.68 32.145C189.895 296.032 170.25 300 150 300zm0-298.893c-20.1 0-39.6 3.937-57.955 11.7-17.73 7.5-33.653 18.236-47.328 31.91s-24.41 29.598-31.91 47.327C5.045 110.4 1.108 129.9 1.108 150c0 20.1 3.937 39.6 11.7 57.955 7.5 17.73 18.236 33.653 31.91 47.328 13.674 13.674 29.598 24.41 47.328 31.91 18.355 7.763 37.854 11.7 57.955 11.7s39.6-3.937 57.956-11.7c17.73-7.5 33.653-18.236 47.327-31.91s24.41-29.598 31.91-47.328c7.763-18.355 11.7-37.855 11.7-57.955s-3.937-39.6-11.7-57.956c-7.5-17.73-18.236-33.653-31.91-47.327s-29.597-24.41-47.327-31.91C189.6 5.045 170.1 1.108 150 1.108z"/>
    <circle fill="#FFF" cx="150" cy="150.005" r="123.858"/>
    <path fill="#212121" d="M150 274.416c-16.795 0-33.088-3.29-48.427-9.777-14.815-6.267-28.12-15.237-39.545-26.663-11.426-11.425-20.396-24.73-26.662-39.545-6.488-15.338-9.777-31.63-9.777-48.427s3.29-33.088 9.776-48.427c6.266-14.815 15.236-28.12 26.662-39.546 11.425-11.426 24.73-20.396 39.545-26.662 15.338-6.488 31.63-9.777 48.427-9.777 16.795 0 33.088 3.29 48.426 9.777 14.815 6.266 28.12 15.236 39.546 26.662 11.425 11.426 20.396 24.73 26.662 39.546 6.488 15.338 9.777 31.63 9.777 48.427s-3.29 33.088-9.776 48.427c-6.266 14.815-15.237 28.12-26.662 39.545-11.426 11.426-24.73 20.396-39.546 26.662-15.338 6.486-31.63 9.776-48.426 9.776zM150 26.7c-16.646 0-32.794 3.26-47.996 9.69-14.683 6.21-27.87 15.1-39.193 26.425C51.488 74.14 42.597 87.327 36.387 102.01c-6.43 15.2-9.69 31.35-9.69 47.995 0 16.646 3.26 32.794 9.69 47.995 6.21 14.683 15.1 27.87 26.425 39.194 11.325 11.324 24.512 20.214 39.194 26.425 15.2 6.43 31.35 9.688 47.996 9.688s32.794-3.26 47.995-9.69c14.683-6.21 27.87-15.1 39.194-26.424 11.323-11.324 20.214-24.51 26.424-39.194 6.43-15.2 9.69-31.35 9.69-47.995 0-16.646-3.26-32.794-9.69-47.996-6.21-14.684-15.1-27.87-26.425-39.195S212.677 42.6 197.994 36.39c-15.2-6.43-31.35-9.69-47.995-9.69z"/>
    <g fill="#212121">
        <path d="M48.286 236.94c.776-.37 1.57-.584 2.383-.64s1.62.076 2.425.39c.804.314 1.558.847 2.26 1.6.703.752 1.18 1.54 1.435 2.358.253.82.325 1.633.215 2.44s-.377 1.585-.802 2.333-.97 1.433-1.632 2.052a8.608 8.608 0 0 1-2.158 1.486 6.37 6.37 0 0 1-2.376.634 5.66 5.66 0 0 1-2.413-.39c-.8-.308-1.55-.84-2.254-1.592-.704-.753-1.184-1.542-1.44-2.365a5.637 5.637 0 0 1-.23-2.44c.106-.803.37-1.58.796-2.327s.968-1.432 1.632-2.05a8.63 8.63 0 0 1 2.158-1.487zm-2.65 4.046a5.66 5.66 0 0 0-.755 1.913 4.45 4.45 0 0 0 .087 2.018c.185.683.574 1.342 1.168 1.98.594.635 1.223 1.067 1.887 1.293.664.228 1.332.3 2.002.22.67-.08 1.323-.29 1.96-.622a7.93 7.93 0 0 0 3.085-2.88c.37-.606.62-1.242.748-1.905.126-.664.1-1.334-.08-2.013-.18-.678-.568-1.335-1.162-1.972-.594-.636-1.225-1.07-1.894-1.3-.667-.232-1.337-.307-2.008-.226s-1.32.286-1.953.616a7.923 7.923 0 0 0-3.083 2.878zM76.075 256.66l-4.435 6.81c-.415.636-.696 1.225-.843 1.765-.147.54-.174 1.042-.08 1.506.092.464.297.89.614 1.28s.728.747 1.23 1.074c.515.334 1.014.568 1.498.7a2.92 2.92 0 0 0 1.418.047c.46-.1.91-.33 1.344-.682.435-.354.86-.848 1.274-1.485l4.435-6.81 1.047.682-4.585 7.04c-.368.566-.797 1.05-1.287 1.456s-1.03.687-1.623.842c-.592.156-1.23.17-1.912.04-.683-.13-1.41-.447-2.18-.95-.76-.494-1.338-1.028-1.733-1.6s-.642-1.16-.738-1.764c-.098-.604-.06-1.212.112-1.824s.44-1.2.81-1.766l4.585-7.04 1.048.68zM110.84 273.795l-.36 1.003-4.307-1.555-4.096 11.345-1.176-.424 4.096-11.345-4.29-1.55.363-1.002 9.77 3.527zM135.945 278.953a5.67 5.67 0 0 1 1.5.38c.466.19.862.442 1.19.758.326.317.57.704.733 1.16s.21.98.14 1.563c-.096.828-.393 1.52-.89 2.08-.5.56-1.177.875-2.037.946l-.003.036c.42.11.758.265 1.02.462.26.197.464.434.61.71.147.276.24.586.28.93s.05.713.03 1.105c-.015.22-.034.49-.06.808-.024.32-.037.642-.04.968 0 .327.022.638.067.934.046.295.126.53.242.704l-1.37-.16c-.06-.13-.1-.287-.12-.47a3.95 3.95 0 0 1-.028-.558c.004-.19.01-.378.02-.562.01-.184.015-.344.02-.48.03-.464.043-.928.04-1.39 0-.464-.068-.886-.203-1.266-.134-.38-.356-.7-.666-.957s-.758-.41-1.345-.454l-4.71-.553-.68 5.79-1.24-.146 1.526-13.038 5.975.7zm-.817 6.18c.377.044.743.03 1.098-.047a2.72 2.72 0 0 0 .954-.397c.28-.19.516-.432.705-.724.188-.293.306-.64.354-1.042.093-.803-.064-1.463-.473-1.98-.41-.517-1.087-.83-2.037-.942l-4.638-.543-.6 5.13 4.636.543zM169.574 278.328l.12 1.06-7.766.874.53 4.714 7.272-.818.12 1.06-7.272.818.58 5.152 7.856-.884.12 1.06-9.1 1.024-1.468-13.045 9.008-1.015zM194.232 271.966l9.252 10.642-1.265.45-2.876-3.31-5.63 2.004-.12 4.375-1.25.444.57-14.136 1.318-.468zm4.356 6.92l-4.647-5.49-.22 7.222 4.868-1.732zM225.673 258.635a3.694 3.694 0 0 0-1.318-.334 4.12 4.12 0 0 0-1.337.14c-.44.12-.862.312-1.262.574-.728.477-1.263 1.024-1.604 1.644a4.435 4.435 0 0 0-.564 1.94c-.034.675.057 1.352.274 2.03a7.936 7.936 0 0 0 2.312 3.53c.54.476 1.124.833 1.756 1.07.632.238 1.3.324 2.004.26s1.42-.337 2.148-.814c.513-.335.914-.73 1.203-1.183.29-.452.48-.935.568-1.448a4.636 4.636 0 0 0-.007-1.59 5.587 5.587 0 0 0-.547-1.607l1.045-.685c.372.724.612 1.438.722 2.143.11.705.094 1.375-.047 2.01-.14.634-.41 1.227-.803 1.777s-.914 1.038-1.56 1.46c-.86.565-1.72.904-2.576 1.018s-1.67.05-2.442-.19a6.357 6.357 0 0 1-2.158-1.182c-.665-.545-1.246-1.198-1.743-1.957s-.862-1.553-1.097-2.38a6.48 6.48 0 0 1-.224-2.46c.084-.81.35-1.583.797-2.323.446-.74 1.1-1.39 1.96-1.955.524-.343 1.084-.6 1.683-.77s1.2-.24 1.802-.203a4.78 4.78 0 0 1 1.745.45c.56.263 1.065.658 1.513 1.186l-1.046.685a4.192 4.192 0 0 0-1.197-.835zM242.3 241.214l4.17 3.884 5.312-5.706-4.17-3.884.85-.915 9.608 8.946-.852.914-4.656-4.335-5.312 5.704 4.655 4.335-.852.914-9.607-8.946.853-.914z"/>
        <g>
            <path d="M14.054 184.06c-.316.35-.555.736-.717 1.156-.162.42-.252.86-.27 1.317-.02.457.036.916.165 1.376.235.837.596 1.513 1.083 2.025s1.047.888 1.68 1.124a5.68 5.68 0 0 0 2.018.35 7.94 7.94 0 0 0 4.063-1.138 5.635 5.635 0 0 0 1.55-1.35c.418-.53.702-1.142.852-1.833.15-.692.108-1.457-.127-2.295-.164-.59-.42-1.092-.764-1.504s-.748-.738-1.21-.978a4.63 4.63 0 0 0-1.517-.473 5.556 5.556 0 0 0-1.7.035l-.337-1.204a7.076 7.076 0 0 1 2.26-.04 5.38 5.38 0 0 1 1.902.65c.562.328 1.046.762 1.453 1.303.406.542.713 1.185.922 1.928.278.992.34 1.914.19 2.764a5.63 5.63 0 0 1-.92 2.272 6.377 6.377 0 0 1-1.776 1.7 8.63 8.63 0 0 1-2.393 1.072 8.616 8.616 0 0 1-2.6.327 6.493 6.493 0 0 1-2.41-.528 5.58 5.58 0 0 1-1.975-1.46c-.57-.65-.993-1.47-1.27-2.46a6.163 6.163 0 0 1-.23-1.837 5.298 5.298 0 0 1 .353-1.78 4.78 4.78 0 0 1 .956-1.527c.42-.455.95-.816 1.587-1.084l.338 1.203a4.213 4.213 0 0 0-1.154.888zM7.492 157.25l12.82-5.87.076 1.34-3.987 1.825.334 5.966 4.163 1.353.074 1.322-13.4-4.54-.078-1.394zm7.868-2.223l-6.578 2.907 6.865 2.25-.287-5.157zM9.257 126.34c.084-.534.23-1.028.44-1.486.208-.457.477-.843.806-1.157.33-.314.725-.543 1.188-.687s.986-.17 1.567-.078c.824.13 1.504.455 2.042.975.538.52.825 1.21.863 2.072l.036.005c.126-.414.294-.748.5-1 .21-.252.453-.446.735-.582.282-.135.596-.215.94-.242.347-.025.715-.02 1.106.017.22.023.49.053.806.09.317.038.64.063.965.078.328.014.64.005.937-.03s.535-.103.713-.212l-.215 1.362c-.132.054-.29.088-.472.102a3.853 3.853 0 0 1-.56.004c-.19-.01-.376-.024-.56-.04a18.62 18.62 0 0 0-.478-.04 20.987 20.987 0 0 0-1.39-.098 3.81 3.81 0 0 0-1.27.152c-.386.12-.713.328-.984.626-.27.298-.44.74-.507 1.325l-.74 4.685 5.756.91-.196 1.236-12.966-2.05.94-5.937zm6.142 1.063c.058-.375.058-.74-.004-1.1-.06-.356-.18-.68-.358-.968s-.41-.533-.694-.733a2.415 2.415 0 0 0-1.026-.395c-.8-.126-1.465.004-1.998.392-.533.386-.874 1.052-1.023 1.997l-.73 4.613 5.104.807.73-4.614zM17.564 96.753a4.842 4.842 0 0 1 .814-1.4 3.364 3.364 0 0 1 1.133-.878c.43-.2.893-.302 1.394-.304.5 0 1.025.106 1.573.32.548.215 1.005.492 1.372.833s.638.73.815 1.168c.177.44.256.91.236 1.416s-.136 1.032-.35 1.58l-1.668 4.264 5.24 2.05-.456 1.164-12.226-4.782 2.124-5.43zm5.893 2.6c.317-.81.368-1.546.154-2.21-.213-.662-.743-1.16-1.588-1.49-.845-.33-1.57-.324-2.178.018-.607.343-1.07.92-1.387 1.73l-1.567 4.006 5 1.956 1.567-4.008zM30.608 71.806l13.816 2.82-.73 1.127-4.295-.878-3.25 5.014 2.564 3.546-.72 1.11L29.85 72.98l.758-1.174zm7.666 2.844l-7.027-1.53 4.217 5.865 2.81-4.335zM51.353 46.75l.765.743-3.193 3.28 8.645 8.412-.872.896-8.645-8.41-3.18 3.268-.764-.744 7.243-7.445zM67.688 33.344l3.162 4.742 6.486-4.325-3.162-4.74 1.04-.694 7.283 10.922-1.04.694-3.53-5.293-6.486 4.324 3.53 5.292-1.04.694-7.283-10.922 1.04-.694zM95.207 18.188l5.098 12.097-1.152.486-5.098-12.097 1.152-.485zM120.354 10.37l7.816 11.738-1.312.285-2.43-3.65-5.838 1.27-.68 4.323-1.293.28 2.372-13.947 1.364-.3zm3.436 7.42l-3.907-6.037-1.142 7.134 5.05-1.096zM146.74 7.228l7.467 11.228h.037l.18-11.104 1.25.02-.213 13.126-1.396-.022-7.468-11.228h-.037l-.18 11.104-1.25-.02.212-13.127 1.397.023zM200.96 16.585l-.424 12.3 8.615-8.872 1.697.71-5.067 12.11-1.153-.482 4.378-10.464-.034-.014-8.517 8.733-1.085-.454.393-12.132-.033-.014-4.378 10.465-1.155-.483 5.067-12.11 1.697.708zM226.898 34.362a6.487 6.487 0 0 1 2.22-1.08 5.585 5.585 0 0 1 2.455-.076c.85.156 1.69.537 2.522 1.143.833.605 1.45 1.287 1.855 2.043.404.757.628 1.542.673 2.355s-.07 1.627-.347 2.443-.68 1.59-1.214 2.324a8.648 8.648 0 0 1-1.838 1.868 6.36 6.36 0 0 1-2.214 1.072 5.63 5.63 0 0 1-2.442.075c-.844-.153-1.683-.533-2.515-1.14-.832-.605-1.453-1.29-1.862-2.05a5.632 5.632 0 0 1-.685-2.353c-.048-.808.066-1.62.34-2.436s.68-1.588 1.215-2.322 1.147-1.354 1.838-1.866zm-1.836 4.473c-.254.67-.38 1.345-.38 2.02s.157 1.332.467 1.967c.31.636.816 1.21 1.52 1.722.703.512 1.402.817 2.098.914a4.476 4.476 0 0 0 2.008-.164 5.653 5.653 0 0 0 1.807-.98 7.94 7.94 0 0 0 2.485-3.412c.25-.667.375-1.338.374-2.013s-.154-1.33-.46-1.962c-.304-.632-.81-1.204-1.512-1.717-.704-.51-1.405-.818-2.105-.918a4.43 4.43 0 0 0-2.015.16 5.65 5.65 0 0 0-1.8.973 7.878 7.878 0 0 0-1.476 1.542 7.76 7.76 0 0 0-1.012 1.868zM254.866 53.134l-6.115 5.353c-.57.5-1 .99-1.29 1.47-.288.48-.45.957-.485 1.428-.036.47.046.937.246 1.397.2.46.498.917.894 1.37.403.46.82.82 1.25 1.08s.88.4 1.353.428c.47.027.964-.07 1.48-.292.513-.222 1.056-.583 1.628-1.084l6.115-5.353.823.942-6.322 5.534a6.395 6.395 0 0 1-1.633 1.05 4.227 4.227 0 0 1-1.79.37c-.612-.01-1.23-.17-1.85-.48s-1.237-.812-1.842-1.503c-.598-.683-1.01-1.353-1.235-2.01-.226-.66-.303-1.292-.232-1.9.07-.607.272-1.182.604-1.725.33-.543.75-1.036 1.258-1.48l6.323-5.534.823.94zM273.593 78.524l-6.096 12.028.018.032 9.753-5.31.598 1.098-11.53 6.277-.667-1.228 6.095-12.028-.018-.032-9.753 5.31-.598-1.098 11.53-6.277.667 1.227zM288.4 114.737l-1.024.3-1.29-4.393-11.572 3.395-.352-1.2 11.574-3.396-1.284-4.375 1.023-.3 2.924 9.967zM292.208 138.156l-12.63 6.273-.116-1.338 3.927-1.95-.522-5.952-4.204-1.22-.116-1.32 13.538 4.113.122 1.393zm-7.794 2.473l6.482-3.116-6.933-2.032.45 5.147zM291.992 164.165l-13.07-1.234.12-1.244 13.07 1.234-.12 1.245zM288.057 186.36l-12.802 4.235-.01.035 10.66 3.108-.35 1.2-12.602-3.674.39-1.342 12.803-4.234.01-.035-10.66-3.108.35-1.2 12.603 3.674-.393 1.34z"/>
        </g>
    </g>
    <g>
        <path fill="#2196F3" d="M115.23 109.723c2.367-1.103 4.904-.046 6.516 1.766 1.567 1.762 3.19 3.478 4.82 5.184.864.905 1.732 1.805 2.605 2.7l.512.52.16.163c.476.48.953.962 1.432 1.44a371.23 371.23 0 0 0 7.274 7.09 364.7 364.7 0 0 0 13.044 11.812c.37-.052.75-.078 1.135-.08-.498 0-1.394-.005-.896-.005.374 0 .747 0 1.12-.003 1.323-.008 2.646-.026 3.97-.055a329.38 329.38 0 0 0 13.767-.58c6.135-.388 12.264-.93 18.362-1.714a208.22 208.22 0 0 0 9.56-1.435c1.582-.28 3.162-.572 4.735-.896 2.01-.414 4.144-.732 5.857.785 9.706 8.59 20.66 15.996 31.69 22.74.683.418 1.366.834 2.052 1.246l.628.375a261.113 261.113 0 0 0 3.974 2.3 266.42 266.42 0 0 0 8.235 4.49c1.377.717 2.76 1.422 4.15 2.117a112.34 112.34 0 0 0 1.743-19.766c0-61.683-50.003-111.686-111.686-111.686-58.43 0-106.378 44.87-111.272 102.033a741.174 741.174 0 0 0 76.514-30.544z"/>
        <path fill="#8BC34A" d="M232.92 167.15c-9.923-6.15-19.823-12.8-28.714-20.44-11.155 2.24-22.532 3.392-33.88 4.036-1.89.107-3.784.2-5.677.278.563.43 1.127.86 1.695 1.287 5.286 3.978 10.717 7.772 16.354 11.234.447.275.895.55 1.344.82l.4.237c.58.34 1.16.682 1.743 1.013 1.346.765 2.7 1.515 4.07 2.237a123.776 123.776 0 0 0 8.502 4.087 5.456 5.456 0 0 1 1.812 1.28c-25.845-3.35-50.415-20.23-55.824-24.146-10.046-8.62-19.785-17.782-28.76-27.537a724.04 724.04 0 0 1-19.34 8.556 744.225 744.225 0 0 1-58.324 21.938c1.124 60.71 50.686 109.578 111.663 109.578 51.003 0 94.02-34.188 107.386-80.897-8.372-4.1-16.53-8.65-24.453-13.56z"/>
    </g>
</svg>
