<svg xmlns="http://www.w3.org/2000/svg" width="75" height="89" viewBox="0 0 75 89">
    <path fill="#FFF" d="M69 81.296c0 .94-.763 1.704-1.704 1.704H2.704C1.764 83 1 82.237 1 81.296V2.704C1 1.764 1.763 1 2.704 1h64.592C68.236 1 69 1.763 69 2.704v78.592z"/>
    <path fill="#727272" d="M71 81.932A3.07 3.07 0 0 1 67.932 85H3.068A3.07 3.07 0 0 1 0 81.932V3.068A3.07 3.07 0 0 1 3.068 0H67.93A3.07 3.07 0 0 1 71 3.068v78.864zm-3-78.59A.34.34 0 0 0 67.66 3H3.34a.34.34 0 0 0-.34.34v78.32c0 .188.152.34.34.34h64.32a.34.34 0 0 0 .34-.34V3.34z"/>
    <path fill="#2196F3" d="M14.29 13.794c.25-.117.52-.004.69.188.167.188.34.37.512.55l.276.287c.02.018.036.036.055.054l.017.017a42.026 42.026 0 0 0 .923.905c.452.43.913.828 1.385 1.233.04-.005.08-.028.12-.028h-.096.12c.14 0 .28.018.42.014.487-.01.975-.02 1.46-.05.652-.042 1.302-.095 1.95-.178.338-.043.676-.09 1.013-.15.168-.03.336-.06.502-.093.214-.044.44-.077.622.084 1.028.91 2.19 1.697 3.36 2.413.073.044.146.09.218.132l.067.04a26.33 26.33 0 0 0 1.735.947c.123-.68.186-1.38.186-2.097 0-6.543-5.305-11.848-11.848-11.848-6.2 0-11.286 4.76-11.805 10.825a79.81 79.81 0 0 0 8.117-3.246z"/>
    <path fill="#8BC34A" d="M26.775 19.887c-1.053-.653-2.104-1.358-3.047-2.168-1.184.237-2.39.36-3.594.427l-.602.03.18.135a22.683 22.683 0 0 0 1.877 1.28c.007.004.024.015.042.024.062.036.122.072.185.107a13.89 13.89 0 0 0 1.334.67c.075.033.14.08.193.137-2.742-.355-5.35-2.146-5.923-2.562a36.27 36.27 0 0 1-3.05-2.92 79.276 79.276 0 0 1-8.24 3.236c.118 6.44 5.376 11.624 11.846 11.624 5.41 0 9.974-3.627 11.392-8.582a30.05 30.05 0 0 1-2.593-1.44z"/>
    <path fill="#BBDEFB" d="M34 9h31v7H34zM34 19h31v7H34zM6 34h59v44H6z"/>
    <path fill="#727272" d="M72 4.258v78.41C72 84.36 70.684 86 68.988 86H4.216c0 1 1.374 3 3.068 3h64.772C73.752 89 75 87.43 75 85.735V7.325c0-1.693-1-3.067-3-3.067z"/>
    <path fill="#1976D2" d="M52.732-144.218h42.44v34.503H52.73z"/>
    <path fill="#2196F3" d="M95.172-144.218h42.44v34.503H95.17z"/>
    <path fill="#BBDEFB" d="M137.61-144.218h42.44v34.503h-42.44z"/>
    <path fill="#FFF" d="M180.05-144.218h42.44v34.503h-42.44z"/>
    <path fill="#8BC34A" d="M52.732-109.714h42.44v34.503H52.73z"/>
    <path fill="#212121" d="M95.172-109.714h42.44v34.503H95.17z"/>
    <path fill="#727272" d="M137.61-109.714h42.44v34.503h-42.44z"/>
    <path fill="#B6B6B6" d="M180.05-109.714h42.44v34.503h-42.44z"/>
    <text transform="translate(56.828 -137.596)" fill="#FFF" font-family="'Courier'" font-size="2.907">
        #1976D2
    </text>
    <text transform="translate(98.928 -137.596)" fill="#FFF" font-family="'Courier'" font-size="2.907">
        #2196F3
    </text>
    <text transform="translate(140.963 -137.596)" fill="#FFF" font-family="'Courier'" font-size="2.907">
        #BBDEFB
    </text>
    <text transform="translate(184.865 -137.596)" font-family="'Courier'" font-size="2.907">
        #FFFFFF
    </text>
    <text transform="translate(57.205 -102.21)" fill="#FFF" font-family="'Courier'" font-size="2.907">
        #8BC34A
    </text>
    <text transform="translate(98.928 -102.21)" fill="#FFF" font-family="'Courier'" font-size="2.907">
        #212121
    </text>
    <text transform="translate(140.963 -102.21)" fill="#FFF" font-family="'Courier'" font-size="2.907">
        #727272
    </text>
    <text transform="translate(184.865 -102.21)" fill="#FFF" font-family="'Courier'" font-size="2.907">
        #B6B6B6
    </text>
</svg>
