<svg xmlns="http://www.w3.org/2000/svg" width="75" height="89" viewBox="0 0 75 89">
    <path fill="#FFF" d="M69 81.296c0 .94-.763 1.704-1.704 1.704H2.704C1.764 83 1 82.237 1 81.296V2.704C1 1.764 1.763 1 2.704 1h64.592C68.236 1 69 1.763 69 2.704v78.592z"/>
    <path fill="#727272" d="M71 81.932A3.07 3.07 0 0 1 67.932 85H3.068A3.07 3.07 0 0 1 0 81.932V3.068A3.07 3.07 0 0 1 3.068 0H67.93A3.07 3.07 0 0 1 71 3.068v78.864zm-3-78.59A.34.34 0 0 0 67.66 3H3.34a.34.34 0 0 0-.34.34v78.32c0 .188.152.34.34.34h64.32a.34.34 0 0 0 .34-.34V3.34z"/>
    <path fill="#BBDEFB" d="M6 7h59v7H6zM6 16h59v8H6zM6 31h59v47H6z"/>
    <path fill="#727272" d="M72 4.258v78.41C72 84.36 70.684 86 68.988 86H4.216c0 1 1.374 3 3.068 3h64.772C73.752 89 75 87.43 75 85.735V7.325c0-1.693-1-3.067-3-3.067z"/>
</svg>
