<svg xmlns="http://www.w3.org/2000/svg" width="75" height="89" viewBox="0 0 75 89">
    <path fill="#FFF" d="M69 81.295c0 .942-.764 1.705-1.705 1.705H2.705C1.765 83 1 82.237 1 81.295V2.705C1 1.763 1.764 1 2.705 1h64.59C68.235 1 69 1.763 69 2.705v78.59z"/>
    <path fill="#727272" d="M71 81.932A3.07 3.07 0 0 1 67.932 85H3.068A3.07 3.07 0 0 1 0 81.932V3.068A3.07 3.07 0 0 1 3.068 0H67.93A3.07 3.07 0 0 1 71 3.068v78.864zm-3-78.59A.34.34 0 0 0 67.66 3H3.34a.34.34 0 0 0-.34.34V81.66c0 .19.152.342.34.342h64.32a.34.34 0 0 0 .34-.34V3.34z"/>
    <path fill="#2196F3" d="M29.666 24.12c.404-.187.837-.006 1.11.303.27.3.545.593.823.884a48.075 48.075 0 0 0 .556.576c.082.083.162.165.245.246.41.408.822.81 1.24 1.208.726.688 1.468 1.69 2.226 2.344.064-.008.128.318.195.318h-.152.19c.226 0 .452-.335.678-.34.782-.017 1.565-.215 2.348-.264 1.046-.066 2.09-.242 3.13-.376.546-.07 1.09-.19 1.63-.286.27-.047.54-.118.81-.173.342-.07.706-.134.998.125 1.655 1.464 3.522 2.723 5.403 3.872l.35.21c.036.02.072.04.107.062l.042.023a47.7 47.7 0 0 0 2.748 1.494c.195-1.094.297-2.22.297-3.37 0-10.52-8.527-19.045-19.045-19.045-9.963 0-18.14 7.65-18.975 17.4a126.43 126.43 0 0 0 13.046-5.21z"/>
    <path fill="#8BC34A" d="M49.734 33.914c-1.69-1.05-3.38-2.183-4.896-3.485-1.902.38-3.84.578-5.776.687a62.69 62.69 0 0 1-.968.047l.288.22a36.327 36.327 0 0 0 3.086 2.096c.1.058.197.116.297.173.23.13.46.258.694.38.474.25.956.485 1.45.698.12.053.223.128.308.22-4.406-.572-8.597-3.45-9.52-4.118-1.713-1.47-3.372-3.033-4.903-4.696-1.093.502-2.19.99-3.298 1.46a127.656 127.656 0 0 1-9.945 3.74c.19 10.353 8.643 18.686 19.04 18.686 8.697 0 16.033-5.83 18.312-13.795a48.56 48.56 0 0 1-4.17-2.313z"/>
    <path fill="#BBDEFB" d="M20 66h30v7H20zM15 54h41v10H15z"/>
    <path fill="#727272" d="M72 4.258v78.41C72 84.36 70.684 86 68.99 86H4.215c0 1 1.374 3 3.068 3h64.772C73.752 89 75 87.43 75 85.735V7.325c0-1.693-1-3.067-3-3.067z"/>
</svg>
