<svg xmlns="http://www.w3.org/2000/svg" width="75" height="98.042" viewBox="0 0 75 98.042">
    <g fill="#727272">
        <path d="M74.54 2.417A4.36 4.36 0 0 0 70.637 0H4.364C2.647 0 1.164.992.45 2.433L37.484 27.62 74.54 2.416z"/>
        <path d="M40.64 32.258a5.61 5.61 0 0 1-6.31 0L0 8.912v39.28C0 50.602 1.954 53 4.364 53h66.272C73.046 53 75 50.602 75 48.192v-39.3L40.64 32.257z"/>
    </g>
    <path fill="#727272" d="M3381 838c0 38.66-31.34 70-70 70H2248c-38.66 0-70-31.34-70-70V135c0-38.66 31.34-70 70-70h1063c38.66 0 70 31.34 70 70v703z"/>
    <path d="M3610.025-57l-830.788 565L1948.45-57H3610m.05-90h-1661.6c-39.508 0-74.396 25.764-86.02 63.523-11.62 37.758 2.74 78.682 35.407 100.898l830.8 565c15.273 10.387 32.943 15.58 50.613 15.58s35.34-5.193 50.61-15.58l830.802-565c32.668-22.215 47.028-63.14 35.406-100.897-11.623-37.76-46.51-63.523-86.017-63.523z"/>
</svg>
