<svg xmlns="http://www.w3.org/2000/svg" width="75" height="98" viewBox="0 0 75 98">
    <path fill="#182545" d="M75 96.125C75 97.16 74.16 98 73.125 98H1.875A1.875 1.875 0 0 1 0 96.125V1.875C0 .84.84 0 1.875 0h71.25C74.16 0 75 .84 75 1.875v94.25z"/>
    <g fill="#FFF176">
        <path d="M12.506 16.66c.944 0 1.627.132 2.093.467.56.383.884.98.884 1.758 0 1.603-1.184 2.332-2.44 2.488-.18.024-.37.024-.5.024l-.814-.19v1.637c0 1.017.107 1.1 1.136 1.184v.407h-3.72v-.407c.897-.084 1.004-.167 1.004-1.184v-4.58c0-1.017-.106-1.088-.933-1.184v-.418h3.29zm-.777 4.067c.143.06.394.12.645.12.443 0 1.4-.31 1.4-1.925 0-1.352-.767-1.794-1.496-1.794-.228 0-.37.06-.443.12-.07.072-.107.19-.107.37v3.11zM19.36 24.434v-.418c.705-.108.764-.25.573-.777-.12-.36-.3-.862-.48-1.353H17.16c-.132.37-.287.8-.43 1.28-.168.574-.145.74.728.85v.417h-2.68l.013-.418c.788-.096.932-.228 1.326-1.232l2.452-6.147.61-.156c.765 2.094 1.506 4.175 2.283 6.232.407 1.052.563 1.208 1.316 1.304v.418H19.36zm-1.017-5.765h-.036c-.335.872-.634 1.733-.944 2.582h1.865l-.885-2.583zM27.732 18.61c-.252-.753-.694-1.638-1.675-1.638-.67 0-1.16.502-1.16 1.184 0 .658.43 1.04 1.483 1.567 1.256.61 2.116 1.28 2.116 2.463 0 1.363-1.16 2.428-2.906 2.428-.43 0-.85-.06-1.207-.167a5.67 5.67 0 0 1-.73-.263c-.107-.3-.263-1.303-.346-2.033l.418-.13c.24.765.945 2.104 2.094 2.104.728 0 1.194-.502 1.194-1.256 0-.706-.526-1.148-1.424-1.626-1.23-.622-2.08-1.268-2.08-2.416 0-1.315 1.04-2.344 2.738-2.344.766 0 1.447.24 1.662.323.048.442.132.97.228 1.71l-.406.095zM33.772 18.61c-.25-.753-.693-1.638-1.675-1.638-.67 0-1.16.502-1.16 1.184 0 .658.43 1.04 1.483 1.567 1.256.61 2.117 1.28 2.117 2.463 0 1.363-1.16 2.428-2.906 2.428-.43 0-.85-.06-1.207-.167a5.67 5.67 0 0 1-.73-.263c-.106-.3-.262-1.303-.346-2.033l.418-.13c.24.765.945 2.104 2.094 2.104.728 0 1.194-.502 1.194-1.256 0-.706-.526-1.148-1.423-1.626-1.23-.622-2.08-1.268-2.08-2.416 0-1.315 1.04-2.344 2.738-2.344.766 0 1.447.24 1.663.323.048.442.133.97.228 1.71l-.406.095zM38.58 16.66c.946 0 1.627.132 2.094.467.562.383.885.98.885 1.758 0 1.603-1.185 2.332-2.44 2.488-.18.024-.37.024-.502.024l-.813-.19v1.637c0 1.017.107 1.1 1.136 1.184v.407h-3.718v-.407c.896-.084 1.005-.167 1.005-1.184v-4.58c0-1.017-.108-1.088-.934-1.184v-.418h3.288zm-.776 4.067c.144.06.395.12.646.12.442 0 1.4-.31 1.4-1.925 0-1.352-.767-1.794-1.496-1.794-.227 0-.37.06-.442.12-.07.072-.107.19-.107.37v3.11zM50.602 20.463c0 2.583-1.854 4.15-4.103 4.15-2.393 0-4.055-1.758-4.055-4.054 0-2.058 1.46-4.08 4.197-4.08 2.177 0 3.96 1.616 3.96 3.983zm-6.328-.13c0 2.044.91 3.778 2.44 3.778 1.136 0 2.057-1.11 2.057-3.312 0-2.38-.968-3.815-2.344-3.815-1.206 0-2.152 1.28-2.152 3.35zM58.77 24.542c-.07 0-.214-.012-.357-.012-1.507-.072-1.974-.407-2.452-1.16-.31-.49-.633-1.136-.98-1.758-.19-.37-.405-.514-.788-.526h-.228v1.746c0 .98.12 1.1 1.017 1.184v.418h-3.61v-.418c.896-.084 1.028-.204 1.028-1.184V18.24c0-.957-.107-1.076-.98-1.16v-.418h3.36c1.04 0 1.65.12 2.13.455.478.31.81.85.81 1.59 0 1.052-.692 1.615-1.493 1.95.167.346.62 1.147.97 1.697.43.658.68 1.04.92 1.292.263.275.454.418.73.515l-.074.382zm-4.497-3.923c.503 0 .91-.085 1.173-.324.406-.334.573-.813.573-1.423 0-1.268-.742-1.734-1.41-1.734-.3 0-.468.047-.54.12-.083.07-.107.19-.107.44v2.92h.31zM65.385 18.706c-.144-.622-.31-1.017-.525-1.232-.204-.215-.515-.287-1.21-.287h-.55v5.656c0 1.017.12 1.088 1.174 1.172v.418h-3.898v-.418c1.004-.084 1.123-.156 1.123-1.172v-5.656h-.407c-.98 0-1.196.13-1.375.323-.19.203-.347.61-.502 1.208h-.43c.046-.873.118-1.746.143-2.356h.286c.19.275.346.3.68.3h4.81c.322 0 .49-.073.692-.3h.287c.013.502.072 1.555.132 2.32l-.432.024z"/>
    </g>
    <path fill="#FFF176" d="M37.47 71.54c-9.073 0-16.456-7.383-16.456-16.458 0-9.074 7.383-16.457 16.457-16.457S53.93 46.008 53.93 55.082c0 9.075-7.383 16.457-16.457 16.457zm0-31.04c-8.04 0-14.58 6.542-14.58 14.582 0 8.04 6.54 14.582 14.58 14.582 8.042 0 14.583-6.54 14.583-14.582 0-8.04-6.54-14.582-14.582-14.582z"/>
</svg>
